{
.appVersion = "1284";
customParameters = (
{
name = glyphOrder;
value = (
space,
exclam,
quotesingle,
quotedbl,
numbersign,
dollar,
percent,
ampersand,
parenleft,
parenright,
asterisk,
plus,
comma,
hyphen,
period,
slash,
zero,
one,
two,
three,
four,
five,
six,
seven,
eight,
nine,
colon,
semicolon,
less,
equal,
greater,
question,
at,
A,
B,
C,
D,
E,
F,
G,
H,
I,
J,
K,
L,
M,
N,
O,
P,
Q,
R,
S,
T,
U,
V,
W,
X,
Y,
Z,
bracketleft,
backslash,
bracketright,
asciicircum,
underscore,
grave,
a,
b,
c,
d,
e,
f,
g,
h,
i,
j,
k,
l,
m,
n,
o,
p,
q,
r,
s,
t,
u,
v,
w,
x,
y,
z,
braceleft,
bar,
braceright,
asciitilde,
exclamdown,
cent,
sterling,
currency,
yen,
brokenbar,
section,
dieresis,
copyright,
ordfeminine,
guillemetleft,
logicalnot,
registered,
macron,
degree,
plusminus,
twosuperior,
threesuperior,
acute,
mu,
paragraph,
periodcentered,
cedilla,
onesuperior,
ordmasculine,
guillemetright,
onequarter,
onehalf,
threequarters,
questiondown,
Agrave,
Aacute,
Acircumflex,
Atilde,
Adieresis,
Aring,
AE,
Ccedilla,
Egrave,
Eacute,
Ecircumflex,
Edieresis,
Igrave,
Iacute,
Icircumflex,
Idieresis,
Eth,
Ntilde,
Ograve,
Oacute,
Ocircumflex,
Otilde,
Odieresis,
multiply,
Oslash,
Ugrave,
Uacute,
Ucircumflex,
Udieresis,
Yacute,
Thorn,
germandbls,
agrave,
aacute,
acircumflex,
atilde,
adieresis,
aring,
ae,
ccedilla,
egrave,
eacute,
ecircumflex,
edieresis,
igrave,
iacute,
icircumflex,
idieresis,
eth,
ntilde,
ograve,
oacute,
ocircumflex,
otilde,
odieresis,
divide,
oslash,
ugrave,
uacute,
ucircumflex,
udieresis,
yacute,
thorn,
ydieresis,
dotlessi,
circumflex,
caron,
breve,
dotaccent,
ring,
ogonek,
tilde,
hungarumlaut,
quoteleft,
quoteright,
minus,
circumflexcomb,
uni0429,
uni0428,
uni0427,
uni0426,
uni0425,
uni0424,
uni0423,
uni0422,
uni0421,
uni0420,
uni041F,
uni043D,
uni043E,
uni043F,
uni043A,
uni043B,
uni043C,
guillemotright,
uni0438,
gravecomb,
uni0434,
uni0436,
uni0437,
uni0430,
uni0431,
uni0432,
uni0433,
uni045A,
uni0456,
uni042E,
uni042D,
uni042C,
uni042A,
uni042F,
uni00B9,
uni0414,
uni042B,
uni0409,

glyphs = (
{
color = 11;
glyphname = exclam;
lastChange = "2020-01-10 19:30:18 +0000";
layers = (
{
layerId = "EE8FC948-6E49-42F4-ACA5-5A0A3F8AB331";
paths = (
{
closed = 1;
nodes = (
"320 440 LINE",
"340 920 OFFCURVE",
"420 1170 OFFCURVE",
"420 1350 CURVE SMOOTH",
"420 1430 OFFCURVE",
"380 1500 OFFCURVE",
"280 1500 CURVE SMOOTH",
"180 1500 OFFCURVE",
"140 1430 OFFCURVE",
"140 1350 CURVE SMOOTH",
"140 1170 OFFCURVE",
"220 920 OFFCURVE",
"240 440 CURVE"
);
},
{
closed = 1;
nodes = (
"360 -40 OFFCURVE",
"420 20 OFFCURVE",
"420 100 CURVE SMOOTH",
"420 180 OFFCURVE",
"360 240 OFFCURVE",
"280 240 CURVE SMOOTH",
"200 240 OFFCURVE",
"140 180 OFFCURVE",
"140 100 CURVE SMOOTH",
"140 20 OFFCURVE",
"200 -40 OFFCURVE",
"280 -40 CURVE SMOOTH"
);
}
);
width = 560;
},
{
layerId = "27D48214-71DC-4330-B979-784A7B16B611";
width = 1200;
}
);
unicode = 0021;
userData = {
com.fontlab.hintData = {
hhints = (
{
position = -20;
width = 139;
},
{
position = 730;
width = 20;
}
);
vhints = (
{
position = 96;
width = 139;
}
);
};
};
},
{
color = 11;
glyphname = quotesingle;
lastChange = "2020-01-10 19:30:18 +0000";
layers = (
{
layerId = "EE8FC948-6E49-42F4-ACA5-5A0A3F8AB331";
paths = (
{
closed = 1;
nodes = (
"290 828 LINE",
"336 1118 LINE",
"350 1216 LINE",
"358 1300 LINE",
"358 1360 OFFCURVE",
"318 1400 OFFCURVE",
"258 1400 CURVE SMOOTH",
"198 1400 OFFCURVE",
"160 1360 OFFCURVE",
"160 1300 CURVE",
"166 1216 LINE",
"180 1118 LINE",
"228 828 LINE"
);
}
);
width = 518;
},
{
layerId = "27D48214-71DC-4330-B979-784A7B16B611";
width = 1200;
}
);
unicode = 0027;
userData = {
com.fontlab.hintData = {
hhints = (
{
position = 414;
width = 286;
}
);
vhints = (
{
position = 80;
width = 99;
},
{
position = 114;
width = 31;
}
);
};
};
},
{
color = 11;
glyphname = quotedbl;
lastChange = "2020-01-10 19:30:18 +0000";
layers = (
{
layerId = "EE8FC948-6E49-42F4-ACA5-5A0A3F8AB331";
paths = (
{
closed = 1;
nodes = (
"616 828 LINE",
"662 1118 LINE",
"676 1216 LINE",
"684 1300 LINE",
"684 1360 OFFCURVE",
"644 1400 OFFCURVE",
"584 1400 CURVE SMOOTH",
"524 1400 OFFCURVE",
"484 1360 OFFCURVE",
"484 1300 CURVE",
"492 1216 LINE",
"506 1118 LINE",
"552 828 LINE"
);
},
{
closed = 1;
nodes = (
"262 828 LINE",
"308 1118 LINE",
"322 1216 LINE",
"330 1300 LINE",
"330 1360 OFFCURVE",
"290 1400 OFFCURVE",
"230 1400 CURVE SMOOTH",
"170 1400 OFFCURVE",
"132 1360 OFFCURVE",
"132 1300 CURVE",
"138 1216 LINE",
"152 1118 LINE",
"200 828 LINE"
);
}
);
width = 816;
},
{
layerId = "27D48214-71DC-4330-B979-784A7B16B611";
width = 1200;
}
);
unicode = 0022;
userData = {
com.fontlab.hintData = {
hhints = (
{
position = 414;
width = 286;
}
);
vhints = (
{
position = 66;
width = 99;
},
{
position = 100;
width = 31;
},
{
position = 242;
width = 100;
}
);
};
};
},
{
color = 11;
glyphname = numbersign;
lastChange = "2020-01-10 19:30:18 +0000";
layers = (
{
layerId = "EE8FC948-6E49-42F4-ACA5-5A0A3F8AB331";
paths = (
{
closed = 1;
nodes = (
"386 -32 LINE",
"464 354 LINE",
"778 354 LINE",
"696 -32 LINE",
"856 -32 LINE",
"938 354 LINE",
"1210 354 LINE",
"1250 514 LINE",
"968 514 LINE",
"1036 816 LINE",
"1290 816 LINE",
"1330 976 LINE",
"1064 976 LINE",
"1146 1364 LINE",
"986 1364 LINE",
"904 976 LINE",
"594 976 LINE",
"676 1364 LINE",
"518 1364 LINE",
"434 976 LINE",
"200 976 LINE",
"160 816 LINE",
"406 816 LINE",
"336 514 LINE",
"120 514 LINE",
"80 354 LINE",
"306 354 LINE",
"224 -32 LINE"
);
},
{
closed = 1;
nodes = (
"566 816 LINE",
"876 816 LINE",
"808 516 LINE",
"496 516 LINE"
);
}
);
width = 1410;
},
{
layerId = "27D48214-71DC-4330-B979-784A7B16B611";
width = 1200;
}
);
unicode = 0023;
userData = {
com.fontlab.hintData = {
hhints = (
{
position = -16;
width = 21;
},
{
position = 177;
width = 80;
},
{
position = 408;
width = 80;
}
);
};
};
},
{
color = 11;
glyphname = dollar;
lastChange = "2020-01-10 19:30:18 +0000";
layers = (
{
layerId = "EE8FC948-6E49-42F4-ACA5-5A0A3F8AB331";
paths = (
{
closed = 1;
nodes = (
"682 -256 LINE",
"682 -27 LINE",
"945 -4 OFFCURVE",
"1108 157 OFFCURVE",
"1108 400 CURVE SMOOTH",
"1108 654 OFFCURVE",
"893 747 OFFCURVE",
"680 816 CURVE SMOOTH",
"487 878 OFFCURVE",
"308 974 OFFCURVE",
"308 1112 CURVE SMOOTH",
"308 1248 OFFCURVE",
"408 1320 OFFCURVE",
"576 1320 CURVE SMOOTH",
"763 1320 OFFCURVE",
"871 1221 OFFCURVE",
"922 988 CURVE",
"1010 988 LINE",
"1010 1282 LINE",
"916 1354 OFFCURVE",
"807 1403 OFFCURVE",
"682 1422 CURVE",
"682 1658 LINE",
"542 1658 LINE",
"542 1429 LINE",
"279 1420 OFFCURVE",
"100 1273 OFFCURVE",
"100 1050 CURVE SMOOTH",
"100 779 OFFCURVE",
"402 650 OFFCURVE",
"588 592 CURVE SMOOTH",
"769 535 OFFCURVE",
"908 463 OFFCURVE",
"908 326 CURVE SMOOTH",
"908 193 OFFCURVE",
"777 80 OFFCURVE",
"594 80 CURVE SMOOTH",
"392 80 OFFCURVE",
"268 226 OFFCURVE",
"234 460 CURVE",
"140 460 LINE",
"140 80 LINE",
"251 21 OFFCURVE",
"335 -21 OFFCURVE",
"542 -29 CURVE",
"542 -256 LINE"
);
}
);
width = 1212;
},
{
layerId = "27D48214-71DC-4330-B979-784A7B16B611";
width = 1200;
}
);
unicode = 0024;
userData = {
com.fontlab.hintData = {
hhints = (
{
position = -15;
width = 10;
},
{
position = 494;
width = 21;
},
{
position = 705;
width = 10;
}
);
vhints = (
{
position = 50;
width = 104;
},
{
position = 70;
width = 47;
},
{
position = 271;
width = 70;
},
{
position = 454;
width = 100;
},
{
position = 461;
width = 44;
}
);
};
};
},
{
color = 11;
glyphname = percent;
lastChange = "2020-01-10 19:30:18 +0000";
layers = (
{
layerId = "EE8FC948-6E49-42F4-ACA5-5A0A3F8AB331";
paths = (
{
closed = 1;
nodes = (
"526 -62 LINE",
"1448 1388 LINE",
"1306 1388 LINE",
"382 -62 LINE"
);
},
{
closed = 1;
nodes = (
"614 678 OFFCURVE",
"738 830 OFFCURVE",
"738 1032 CURVE SMOOTH",
"738 1238 OFFCURVE",
"614 1388 OFFCURVE",
"446 1388 CURVE SMOOTH",
"276 1388 OFFCURVE",
"152 1234 OFFCURVE",
"152 1026 CURVE SMOOTH",
"152 824 OFFCURVE",
"276 678 OFFCURVE",
"446 678 CURVE SMOOTH"
);
},
{
closed = 1;
nodes = (
"358 740 OFFCURVE",
"316 832 OFFCURVE",
"316 1030 CURVE SMOOTH",
"316 1232 OFFCURVE",
"358 1326 OFFCURVE",
"444 1326 CURVE SMOOTH",
"534 1326 OFFCURVE",
"574 1234 OFFCURVE",
"574 1022 CURVE SMOOTH",
"574 835 OFFCURVE",
"532 740 OFFCURVE",
"446 740 CURVE SMOOTH"
);
},
{
closed = 1;
nodes = (
"1534 -24 OFFCURVE",
"1658 128 OFFCURVE",
"1658 330 CURVE SMOOTH",
"1658 536 OFFCURVE",
"1534 686 OFFCURVE",
"1366 686 CURVE SMOOTH",
"1196 686 OFFCURVE",
"1072 532 OFFCURVE",
"1072 324 CURVE SMOOTH",
"1072 122 OFFCURVE",
"1196 -24 OFFCURVE",
"1366 -24 CURVE SMOOTH"
);
},
{
closed = 1;
nodes = (
"1278 38 OFFCURVE",
"1236 130 OFFCURVE",
"1236 328 CURVE SMOOTH",
"1236 530 OFFCURVE",
"1278 624 OFFCURVE",
"1364 624 CURVE SMOOTH",
"1454 624 OFFCURVE",
"1494 532 OFFCURVE",
"1494 320 CURVE SMOOTH",
"1494 133 OFFCURVE",
"1452 38 OFFCURVE",
"1366 38 CURVE SMOOTH"
);
}
);
width = 1812;
},
{
layerId = "27D48214-71DC-4330-B979-784A7B16B611";
width = 1200;
}
);
unicode = 0025;
userData = {
com.fontlab.hintData = {
hhints = (
{
position = -12;
width = 31;
},
{
position = 312;
width = 31;
},
{
position = 339;
width = 31;
},
{
position = 663;
width = 31;
}
);
vhints = (
{
position = 76;
width = 82;
},
{
position = 287;
width = 82;
},
{
position = 536;
width = 82;
},
{
position = 747;
width = 82;
}
);
};
};
},
{
color = 11;
glyphname = ampersand;
lastChange = "2020-01-10 19:30:18 +0000";
layers = (
{
layerId = "EE8FC948-6E49-42F4-ACA5-5A0A3F8AB331";
paths = (
{
closed = 1;
nodes = (
"614 -30 OFFCURVE",
"810 62 OFFCURVE",
"928 174 QCURVE",
"1058 -20 OFFCURVE",
"1290 -20 QCURVE SMOOTH",
"1350 -20 OFFCURVE",
"1420 -10 OFFCURVE",
"1460 0 QCURVE",
"1460 90 LINE",
"1394 90 OFFCURVE",
"1254 136 OFFCURVE",
"1180 210 QCURVE SMOOTH",
"1164 226 OFFCURVE",
"1070 340 QCURVE",
"1144 440 OFFCURVE",
"1284 692 OFFCURVE",
"1364 782 OFFCURVE",
"1450 800 QCURVE",
"1450 880 LINE",
"1030 880 LINE",
"1030 802 LINE",
"1088 792 OFFCURVE",
"1156 730 OFFCURVE",
"1156 690 QCURVE SMOOTH",
"1156 650 OFFCURVE",
"1082 496 OFFCURVE",
"1020 414 QCURVE",
"906 586 OFFCURVE",
"748 800 OFFCURVE",
"676 862 QCURVE",
"830 958 OFFCURVE",
"942 1076 OFFCURVE",
"942 1140 QCURVE SMOOTH",
"942 1270 OFFCURVE",
"806 1400 OFFCURVE",
"686 1400 QCURVE SMOOTH",
"608 1400 OFFCURVE",
"432 1342 OFFCURVE",
"300 1196 OFFCURVE",
"300 1074 QCURVE SMOOTH",
"300 1016 OFFCURVE",
"368 888 OFFCURVE",
"446 802 QCURVE",
"304 702 OFFCURVE",
"150 562 OFFCURVE",
"80 428 OFFCURVE",
"80 346 QCURVE SMOOTH",
"80 252 OFFCURVE",
"176 78 OFFCURVE",
"364 -30 OFFCURVE",
"496 -30 QCURVE SMOOTH"
);
},
{
closed = 1;
nodes = (
"536 126 OFFCURVE",
"372 218 OFFCURVE",
"270 364 OFFCURVE",
"270 444 QCURVE SMOOTH",
"270 520 OFFCURVE",
"378 662 OFFCURVE",
"500 746 QCURVE",
"578 678 OFFCURVE",
"798 384 OFFCURVE",
"880 238 QCURVE",
"808 176 OFFCURVE",
"696 126 OFFCURVE",
"624 126 QCURVE SMOOTH"
);
},
{
closed = 1;
nodes = (
"530 996 OFFCURVE",
"448 1100 OFFCURVE",
"448 1142 QCURVE SMOOTH",
"448 1224 OFFCURVE",
"554 1300 OFFCURVE",
"630 1300 QCURVE SMOOTH",
"690 1300 OFFCURVE",
"792 1196 OFFCURVE",
"792 1116 QCURVE SMOOTH",
"792 1066 OFFCURVE",
"708 972 OFFCURVE",
"618 920 QCURVE"
);
}
);
width = 1510;
},
{
layerId = "27D48214-71DC-4330-B979-784A7B16B611";
width = 1200;
}
);
unicode = 0026;
userData = {
com.fontlab.hintData = {
hhints = (
{
position = -15;
width = 78;
},
{
position = -6;
width = 50;
},
{
position = 401;
width = 38;
},
{
position = 650;
width = 50;
}
);
vhints = (
{
position = 40;
width = 95;
},
{
position = 150;
width = 74;
},
{
position = 396;
width = 75;
}
);
};
};
},
{
color = 11;
glyphname = parenleft;
lastChange = "2020-01-10 19:30:18 +0000";
layers = (
{
layerId = "EE8FC948-6E49-42F4-ACA5-5A0A3F8AB331";
paths = (
{
closed = 1;
nodes = (
"740 -294 LINE",
"545 -128 OFFCURVE",
"376 146 OFFCURVE",
"376 510 CURVE SMOOTH",
"376 874 OFFCURVE",
"545 1148 OFFCURVE",
"740 1314 CURVE",
"698 1390 LINE",
"370 1200 OFFCURVE",
"170 892 OFFCURVE",
"170 510 CURVE SMOOTH",
"170 128 OFFCURVE",
"370 -180 OFFCURVE",
"698 -370 CURVE"
);
}
);
width = 770;
},
{
layerId = "27D48214-71DC-4330-B979-784A7B16B611";
width = 1200;
}
);
unicode = 0028;
userData = {
com.fontlab.hintData = {
vhints = (
{
position = 85;
width = 103;
}
);
};
};
},
{
color = 11;
glyphname = parenright;
lastChange = "2020-01-10 19:30:18 +0000";
layers = (
{
layerId = "EE8FC948-6E49-42F4-ACA5-5A0A3F8AB331";
paths = (
{
closed = 1;
nodes = (
"400 -180 OFFCURVE",
"600 128 OFFCURVE",
"600 510 CURVE SMOOTH",
"600 892 OFFCURVE",
"400 1200 OFFCURVE",
"72 1390 CURVE",
"30 1314 LINE",
"224 1148 OFFCURVE",
"394 874 OFFCURVE",
"394 510 CURVE SMOOTH",
"394 146 OFFCURVE",
"224 -128 OFFCURVE",
"30 -294 CURVE",
"72 -370 LINE"
);
}
);
width = 770;
},
{
layerId = "27D48214-71DC-4330-B979-784A7B16B611";
width = 1200;
}
);
unicode = 0029;
userData = {
com.fontlab.hintData = {
vhints = (
{
position = 197;
width = 103;
}
);
};
};
},
{
color = 11;
glyphname = asterisk;
lastChange = "2020-01-10 19:30:18 +0000";
layers = (
{
layerId = "EE8FC948-6E49-42F4-ACA5-5A0A3F8AB331";
paths = (
{
closed = 1;
nodes = (
"632 690 LINE",
"606 1010 LINE",
"814 766 LINE",
"884 836 LINE",
"640 1046 LINE",
"960 1020 LINE",
"960 1120 LINE",
"640 1094 LINE",
"884 1304 LINE",
"814 1374 LINE",
"606 1130 LINE",
"632 1450 LINE",
"528 1450 LINE",
"554 1130 LINE",
"346 1374 LINE",
"276 1304 LINE",
"520 1094 LINE",
"200 1120 LINE",
"200 1020 LINE",
"520 1046 LINE",
"276 836 LINE",
"346 766 LINE",
"554 1010 LINE",
"528 690 LINE"
);
}
);
width = 1160;
},
{
layerId = "27D48214-71DC-4330-B979-784A7B16B611";
width = 1200;
}
);
unicode = 002A;
},
{
color = 11;
glyphname = plus;
lastChange = "2020-01-10 19:30:18 +0000";
layers = (
{
layerId = "EE8FC948-6E49-42F4-ACA5-5A0A3F8AB331";
paths = (
{
closed = 1;
nodes = (
"678 102 LINE",
"678 560 LINE",
"1136 560 LINE",
"1136 700 LINE",
"678 700 LINE",
"678 1158 LINE",
"538 1158 LINE",
"538 700 LINE",
"80 700 LINE",
"80 560 LINE",
"538 560 LINE",
"538 102 LINE"
);
}
);
width = 1216;
},
{
layerId = "27D48214-71DC-4330-B979-784A7B16B611";
width = 1200;
}
);
unicode = 002B;
userData = {
com.fontlab.hintData = {
hhints = (
{
position = 280;
width = 70;
}
);
vhints = (
{
position = 269;
width = 70;
}
);
};
};
},
{
color = 11;
glyphname = comma;
lastChange = "2020-01-10 19:30:18 +0000";
layers = (
{
layerId = "EE8FC948-6E49-42F4-ACA5-5A0A3F8AB331";
paths = (
{
closed = 1;
nodes = (
"340 -200 OFFCURVE",
"360 -40 OFFCURVE",
"360 100 CURVE SMOOTH",
"360 160 OFFCURVE",
"320 270 OFFCURVE",
"190 270 CURVE SMOOTH",
"110 270 OFFCURVE",
"60 210 OFFCURVE",
"60 140 CURVE SMOOTH",
"60 70 OFFCURVE",
"110 0 OFFCURVE",
"190 0 CURVE SMOOTH",
"220 0 OFFCURVE",
"240 -20 OFFCURVE",
"240 -60 CURVE SMOOTH",
"240 -120 OFFCURVE",
"180 -200 OFFCURVE",
"100 -240 CURVE",
"140 -300 LINE"
);
}
);
width = 460;
},
{
layerId = "27D48214-71DC-4330-B979-784A7B16B611";
width = 1200;
}
);
unicode = 002C;
userData = {
com.fontlab.hintData = {
hhints = (
{
position = -160;
width = 37;
},
{
position = -20;
width = 153;
},
{
position = 13;
width = 120;
}
);
vhints = (
{
position = 65;
width = 140;
},
{
position = 174;
width = 59;
}
);
};
};
},
{
color = 11;
glyphname = hyphen;
lastChange = "2020-01-10 19:30:18 +0000";
layers = (
{
layerId = "EE8FC948-6E49-42F4-ACA5-5A0A3F8AB331";
paths = (
{
closed = 1;
nodes = (
"700 480 LINE",
"700 600 LINE",
"80 600 LINE",
"80 480 LINE"
);
}
);
width = 780;
},
{
layerId = "27D48214-71DC-4330-B979-784A7B16B611";
width = 1200;
}
);
unicode = 002D;
userData = {
com.fontlab.hintData = {
hhints = (
{
position = 280;
width = 70;
}
);
vhints = (
{
position = 40;
width = 310;
}
);
};
};
},
{
color = 11;
glyphname = period;
lastChange = "2020-01-10 19:30:18 +0000";
layers = (
{
layerId = "EE8FC948-6E49-42F4-ACA5-5A0A3F8AB331";
paths = (
{
closed = 1;
nodes = (
"394 -40 OFFCURVE",
"466 23 OFFCURVE",
"466 113 CURVE SMOOTH",
"466 203 OFFCURVE",
"394 266 OFFCURVE",
"313 266 CURVE SMOOTH",
"232 266 OFFCURVE",
"160 203 OFFCURVE",
"160 113 CURVE SMOOTH",
"160 23 OFFCURVE",
"232 -40 OFFCURVE",
"313 -40 CURVE SMOOTH"
);
}
);
width = 626;
},
{
layerId = "27D48214-71DC-4330-B979-784A7B16B611";
width = 1200;
}
);
unicode = 002E;
userData = {
com.fontlab.hintData = {
hhints = (
{
position = -20;
width = 153;
}
);
vhints = (
{
position = 80;
width = 153;
}
);
};
};
},
{
color = 11;
glyphname = slash;
lastChange = "2020-01-10 19:30:18 +0000";
layers = (
{
layerId = "EE8FC948-6E49-42F4-ACA5-5A0A3F8AB331";
paths = (
{
closed = 1;
nodes = (
"-684 -158 LINE",
"656 1430 LINE",
"548 1430 LINE",
"-792 -158 LINE"
);
}
);
width = 676;
},
{
layerId = "27D48214-71DC-4330-B979-784A7B16B611";
width = 1200;
}
);
unicode = 002F;
userData = {
com.fontlab.hintData = {
hhints = (
{
position = -15;
width = 21;
},
{
position = 695;
width = 20;
}
);
vhints = (
{
position = 20;
width = 308;
}
);
};
};
},
{
color = 11;
glyphname = zero;
lastChange = "2020-01-10 19:30:18 +0000";
layers = (
{
layerId = "EE8FC948-6E49-42F4-ACA5-5A0A3F8AB331";
paths = (
{
closed = 1;
nodes = (
"794 -30 OFFCURVE",
"1134 330 OFFCURVE",
"1134 700 QCURVE SMOOTH",
"1134 968 OFFCURVE",
"872 1400 OFFCURVE",
"628 1400 QCURVE SMOOTH",
"400 1400 OFFCURVE",
"80 1012 OFFCURVE",
"80 672 QCURVE SMOOTH",
"80 364 OFFCURVE",
"356 -30 OFFCURVE",
"586 -30 QCURVE SMOOTH"
);
},
{
closed = 1;
nodes = (
"468 50 OFFCURVE",
"300 384 OFFCURVE",
"300 716 QCURVE SMOOTH",
"300 956 OFFCURVE",
"440 1320 OFFCURVE",
"600 1320 QCURVE SMOOTH",
"756 1320 OFFCURVE",
"914 922 OFFCURVE",
"914 656 QCURVE SMOOTH",
"914 404 OFFCURVE",
"786 50 OFFCURVE",
"614 50 QCURVE SMOOTH"
);
}
);
width = 1214;
},
{
layerId = "27D48214-71DC-4330-B979-784A7B16B611";
paths = (
{
closed = 1;
nodes = (
"794 -30 OFFCURVE",
"1134 330 OFFCURVE",
"1134 700 QCURVE SMOOTH",
"1134 968 OFFCURVE",
"872 1400 OFFCURVE",
"628 1400 QCURVE SMOOTH",
"400 1400 OFFCURVE",
"80 1012 OFFCURVE",
"80 672 QCURVE SMOOTH",
"80 364 OFFCURVE",
"356 -30 OFFCURVE",
"586 -30 QCURVE SMOOTH"
);
},
{
closed = 1;
nodes = (
"568 130 OFFCURVE",
"480 384 OFFCURVE",
"480 716 QCURVE SMOOTH",
"480 956 OFFCURVE",
"560 1260 OFFCURVE",
"600 1260 QCURVE SMOOTH",
"656 1260 OFFCURVE",
"714 922 OFFCURVE",
"714 656 QCURVE SMOOTH",
"714 404 OFFCURVE",
"666 130 OFFCURVE",
"614 130 QCURVE SMOOTH"
);
}
);
width = 1200;
},
{
associatedMasterId = "EE8FC948-6E49-42F4-ACA5-5A0A3F8AB331";
layerId = "E15CCDCB-151F-4555-B32D-ADBA50B72086";
name = "Jul 25 18, 19:23";
paths = (
{
closed = 1;
nodes = (
"750 -30 OFFCURVE",
"998 148 OFFCURVE",
"1134 478 OFFCURVE",
"1134 700 QCURVE SMOOTH",
"1134 928 OFFCURVE",
"992 1244 OFFCURVE",
"762 1400 OFFCURVE",
"628 1400 QCURVE SMOOTH",
"462 1400 OFFCURVE",
"214 1208 OFFCURVE",
"80 876 OFFCURVE",
"80 672 QCURVE SMOOTH",
"80 444 OFFCURVE",
"224 128 OFFCURVE",
"456 -30 OFFCURVE",
"586 -30 QCURVE SMOOTH"
);
},
{
closed = 1;
nodes = (
"528 50 OFFCURVE",
"386 186 OFFCURVE",
"300 484 OFFCURVE",
"300 716 QCURVE SMOOTH",
"300 954 OFFCURVE",
"438 1320 OFFCURVE",
"600 1320 QCURVE SMOOTH",
"686 1320 OFFCURVE",
"828 1180 OFFCURVE",
"914 882 OFFCURVE",
"914 656 QCURVE SMOOTH",
"914 404 OFFCURVE",
"786 50 OFFCURVE",
"614 50 QCURVE SMOOTH"
);
}
);
visible = 1;
width = 1214;
}
);
unicode = 0030;
userData = {
com.fontlab.hintData = {
hhints = (
{
position = -15;
width = 40;
},
{
position = 660;
width = 40;
}
);
vhints = (
{
position = 40;
width = 110;
},
{
position = 457;
width = 110;
}
);
};
};
},
{
color = 11;
glyphname = one;
lastChange = "2020-01-10 19:30:18 +0000";
layers = (
{
layerId = "EE8FC948-6E49-42F4-ACA5-5A0A3F8AB331";
paths = (
{
closed = 1;
nodes = (
"810 0 LINE",
"810 60 LINE",
"650 100 LINE SMOOTH",
"610 110 OFFCURVE",
"590 140 OFFCURVE",
"590 180 CURVE SMOOTH",
"590 200 LINE",
"590 1400 LINE",
"520 1400 LINE",
"419 1324 OFFCURVE",
"334 1298 OFFCURVE",
"188 1298 CURVE",
"188 1226 LINE",
"222 1226 LINE SMOOTH",
"338 1226 OFFCURVE",
"380 1170 OFFCURVE",
"380 1062 CURVE SMOOTH",
"380 200 LINE",
"380 180 LINE SMOOTH",
"380 140 OFFCURVE",
"360 110 OFFCURVE",
"320 100 CURVE SMOOTH",
"160 60 LINE",
"160 0 LINE"
);
}
);
width = 970;
},
{
layerId = "27D48214-71DC-4330-B979-784A7B16B611";
width = 1200;
}
);
unicode = 0031;
userData = {
com.fontlab.hintData = {
hhints = (
{
position = 0;
width = 30;
},
{
position = 613;
width = 36;
},
{
position = 680;
width = 20;
}
);
vhints = (
{
position = 190;
width = 105;
}
);
};
};
},
{
color = 11;
glyphname = two;
lastChange = "2020-01-10 19:30:18 +0000";
layers = (
{
layerId = "EE8FC948-6E49-42F4-ACA5-5A0A3F8AB331";
paths = (
{
closed = 1;
nodes = (
"932 0 LINE",
"1030 330 LINE",
"960 330 LINE",
"904 198 OFFCURVE",
"854 162 OFFCURVE",
"726 162 CURVE SMOOTH",
"266 162 LINE",
"590 548 OFFCURVE",
"1002 668 OFFCURVE",
"1002 1028 CURVE SMOOTH",
"1002 1234 OFFCURVE",
"853 1400 OFFCURVE",
"558 1400 CURVE SMOOTH",
"352 1400 OFFCURVE",
"184 1250 OFFCURVE",
"88 982 CURVE",
"162 952 LINE",
"244 1146 OFFCURVE",
"368 1256 OFFCURVE",
"508 1256 CURVE SMOOTH",
"705 1256 OFFCURVE",
"782 1136 OFFCURVE",
"782 990 CURVE SMOOTH",
"782 725 OFFCURVE",
"470 513 OFFCURVE",
"80 72 CURVE",
"80 0 LINE"
);
}
);
width = 1110;
},
{
layerId = "27D48214-71DC-4330-B979-784A7B16B611";
width = 1200;
}
);
unicode = 0032;
userData = {
com.fontlab.hintData = {
hhints = (
{
position = 0;
width = 81;
},
{
position = 628;
width = 72;
}
);
vhints = (
{
position = 391;
width = 110;
}
);
};
};
},
{
color = 11;
glyphname = three;
lastChange = "2020-01-10 19:30:18 +0000";
layers = (
{
layerId = "EE8FC948-6E49-42F4-ACA5-5A0A3F8AB331";
paths = (
{
closed = 1;
nodes = (
"775 -30 OFFCURVE",
"1042 180 OFFCURVE",
"1042 502 CURVE SMOOTH",
"1042 707 OFFCURVE",
"894 840 OFFCURVE",
"670 840 CURVE",
"666 844 LINE",
"868 936 OFFCURVE",
"946 1016 OFFCURVE",
"946 1138 CURVE SMOOTH",
"946 1292 OFFCURVE",
"776 1400 OFFCURVE",
"590 1400 CURVE SMOOTH",
"387 1400 OFFCURVE",
"244 1312 OFFCURVE",
"116 1074 CURVE",
"172 1030 LINE",
"281 1189 OFFCURVE",
"384 1256 OFFCURVE",
"532 1256 CURVE SMOOTH",
"643 1256 OFFCURVE",
"726 1179 OFFCURVE",
"726 1084 CURVE SMOOTH",
"726 934 OFFCURVE",
"597 864 OFFCURVE",
"334 724 CURVE",
"366 658 LINE",
"440 708 OFFCURVE",
"510 734 OFFCURVE",
"572 734 CURVE SMOOTH",
"713 734 OFFCURVE",
"822 618 OFFCURVE",
"822 456 CURVE SMOOTH",
"822 189 OFFCURVE",
"625 56 OFFCURVE",
"386 56 CURVE SMOOTH",
"295 56 OFFCURVE",
"224 72 OFFCURVE",
"120 118 CURVE",
"80 60 LINE",
"166 6 OFFCURVE",
"318 -30 OFFCURVE",
"458 -30 CURVE SMOOTH"
);
}
);
width = 1122;
},
{
layerId = "27D48214-71DC-4330-B979-784A7B16B611";
width = 1200;
}
);
unicode = 0033;
userData = {
com.fontlab.hintData = {
hhints = (
{
position = -15;
width = 43;
},
{
position = 367;
width = 53;
},
{
position = 628;
width = 72;
}
);
vhints = (
{
position = 363;
width = 110;
},
{
position = 411;
width = 110;
}
);
};
};
},
{
color = 11;
glyphname = four;
lastChange = "2020-01-10 19:30:18 +0000";
layers = (
{
layerId = "EE8FC948-6E49-42F4-ACA5-5A0A3F8AB331";
paths = (
{
closed = 1;
nodes = (
"1024 0 LINE",
"1024 72 LINE",
"898 72 OFFCURVE",
"848 114 OFFCURVE",
"848 230 CURVE SMOOTH",
"848 374 LINE",
"1024 374 LINE",
"1054 600 LINE",
"986 600 LINE",
"956 502 OFFCURVE",
"928 472 OFFCURVE",
"848 472 CURVE",
"848 1400 LINE",
"656 1400 LINE",
"80 490 LINE",
"80 374 LINE",
"628 374 LINE",
"628 234 LINE SMOOTH",
"628 120 OFFCURVE",
"584 72 OFFCURVE",
"448 72 CURVE",
"448 0 LINE"
);
},
{
closed = 1;
nodes = (
"624 1226 LINE",
"628 1226 LINE",
"628 472 LINE",
"162 472 LINE"
);
}
);
width = 1134;
},
{
layerId = "27D48214-71DC-4330-B979-784A7B16B611";
width = 1200;
}
);
unicode = 0034;
userData = {
com.fontlab.hintData = {
hhints = (
{
position = 0;
width = 36;
},
{
position = 187;
width = 49;
},
{
position = 680;
width = 20;
}
);
vhints = (
{
position = 314;
width = 110;
},
{
position = 493;
width = 34;
}
);
};
};
},
{
color = 11;
glyphname = five;
lastChange = "2020-01-10 19:30:18 +0000";
layers = (
{
layerId = "EE8FC948-6E49-42F4-ACA5-5A0A3F8AB331";
paths = (
{
closed = 1;
nodes = (
"687 -30 OFFCURVE",
"940 203 OFFCURVE",
"940 520 CURVE SMOOTH",
"940 799 OFFCURVE",
"755 1016 OFFCURVE",
"472 1016 CURVE SMOOTH",
"389 1016 OFFCURVE",
"320 1000 OFFCURVE",
"220 962 CURVE",
"280 1238 LINE",
"880 1238 LINE",
"918 1424 LINE",
"850 1424 LINE",
"834 1404 OFFCURVE",
"814 1400 OFFCURVE",
"734 1400 CURVE SMOOTH",
"242 1400 LINE",
"100 778 LINE",
"146 766 LINE",
"224 828 OFFCURVE",
"298 854 OFFCURVE",
"392 854 CURVE SMOOTH",
"582 854 OFFCURVE",
"720 704 OFFCURVE",
"720 492 CURVE SMOOTH",
"720 253 OFFCURVE",
"532 62 OFFCURVE",
"300 62 CURVE SMOOTH",
"244 62 OFFCURVE",
"186 70 OFFCURVE",
"110 86 CURVE",
"80 18 LINE",
"164 -14 OFFCURVE",
"256 -30 OFFCURVE",
"346 -30 CURVE SMOOTH"
);
}
);
width = 1020;
},
{
layerId = "27D48214-71DC-4330-B979-784A7B16B611";
width = 1200;
}
);
unicode = 0035;
userData = {
com.fontlab.hintData = {
hhints = (
{
position = -15;
width = 46;
},
{
position = 427;
width = 81;
},
{
position = 619;
width = 81;
},
{
position = 619;
width = 93;
}
);
vhints = (
{
position = 360;
width = 110;
}
);
};
};
},
{
color = 11;
glyphname = six;
lastChange = "2020-01-10 19:30:18 +0000";
layers = (
{
layerId = "EE8FC948-6E49-42F4-ACA5-5A0A3F8AB331";
paths = (
{
closed = 1;
nodes = (
"885 -30 OFFCURVE",
"1106 206 OFFCURVE",
"1106 494 CURVE SMOOTH",
"1106 751 OFFCURVE",
"921 944 OFFCURVE",
"668 944 CURVE SMOOTH",
"542 944 OFFCURVE",
"430 908 OFFCURVE",
"316 802 CURVE",
"312 806 LINE",
"360 1136 OFFCURVE",
"605 1320 OFFCURVE",
"904 1330 CURVE",
"904 1400 LINE",
"463 1400 OFFCURVE",
"80 1073 OFFCURVE",
"80 618 CURVE SMOOTH",
"80 179 OFFCURVE",
"375 -30 OFFCURVE",
"618 -30 CURVE SMOOTH"
);
},
{
closed = 1;
nodes = (
"414 62 OFFCURVE",
"300 340 OFFCURVE",
"300 666 CURVE",
"405 794 OFFCURVE",
"489 844 OFFCURVE",
"606 844 CURVE SMOOTH",
"772 844 OFFCURVE",
"886 686 OFFCURVE",
"886 450 CURVE SMOOTH",
"886 194 OFFCURVE",
"763 62 OFFCURVE",
"616 62 CURVE SMOOTH"
);
}
);
width = 1186;
},
{
layerId = "27D48214-71DC-4330-B979-784A7B16B611";
width = 1200;
}
);
unicode = 0036;
userData = {
com.fontlab.hintData = {
hhints = (
{
position = -15;
width = 46;
},
{
position = 422;
width = 50;
},
{
position = 665;
width = 35;
}
);
vhints = (
{
position = 40;
width = 110;
},
{
position = 443;
width = 110;
}
);
};
};
},
{
color = 11;
glyphname = seven;
lastChange = "2020-01-10 19:30:18 +0000";
layers = (
{
layerId = "EE8FC948-6E49-42F4-ACA5-5A0A3F8AB331";
paths = (
{
closed = 1;
nodes = (
"598 0 LINE",
"600 384 OFFCURVE",
"788 983 OFFCURVE",
"974 1298 CURVE",
"974 1400 LINE",
"358 1400 LINE SMOOTH",
"326 1400 OFFCURVE",
"298 1400 OFFCURVE",
"274 1402 CURVE SMOOTH",
"250 1404 OFFCURVE",
"228 1410 OFFCURVE",
"210 1424 CURVE",
"162 1424 LINE",
"80 1064 LINE",
"154 1064 LINE",
"188 1192 OFFCURVE",
"248 1238 OFFCURVE",
"376 1238 CURVE SMOOTH",
"828 1238 LINE",
"544 685 OFFCURVE",
"378 299 OFFCURVE",
"378 0 CURVE"
);
}
);
width = 1054;
},
{
layerId = "27D48214-71DC-4330-B979-784A7B16B611";
width = 1200;
}
);
unicode = 0037;
userData = {
com.fontlab.hintData = {
hhints = (
{
position = 0;
width = 21;
},
{
position = 619;
width = 81;
}
);
vhints = (
{
position = 40;
width = 37;
},
{
position = 189;
width = 110;
}
);
};
};
},
{
color = 11;
glyphname = eight;
lastChange = "2020-01-10 19:30:18 +0000";
layers = (
{
layerId = "EE8FC948-6E49-42F4-ACA5-5A0A3F8AB331";
paths = (
{
closed = 1;
nodes = (
"862 -24 OFFCURVE",
"1060 140 OFFCURVE",
"1060 374 CURVE SMOOTH",
"1060 535 OFFCURVE",
"951 666 OFFCURVE",
"734 758 CURVE",
"934 836 OFFCURVE",
"1024 932 OFFCURVE",
"1024 1066 CURVE SMOOTH",
"1024 1252 OFFCURVE",
"829 1400 OFFCURVE",
"582 1400 CURVE SMOOTH",
"325 1400 OFFCURVE",
"114 1236 OFFCURVE",
"114 1036 CURVE SMOOTH",
"114 890 OFFCURVE",
"211 787 OFFCURVE",
"426 688 CURVE",
"220 616 OFFCURVE",
"80 503 OFFCURVE",
"80 346 CURVE SMOOTH",
"80 136 OFFCURVE",
"296 -24 OFFCURVE",
"578 -24 CURVE SMOOTH"
);
},
{
closed = 1;
nodes = (
"420 50 OFFCURVE",
"300 178 OFFCURVE",
"300 362 CURVE SMOOTH",
"300 489 OFFCURVE",
"370 592 OFFCURVE",
"498 652 CURVE",
"736 551 OFFCURVE",
"870 477 OFFCURVE",
"870 312 CURVE SMOOTH",
"870 160 OFFCURVE",
"756 50 OFFCURVE",
"594 50 CURVE SMOOTH"
);
},
{
closed = 1;
nodes = (
"518 866 OFFCURVE",
"334 916 OFFCURVE",
"334 1096 CURVE SMOOTH",
"334 1218 OFFCURVE",
"436 1314 OFFCURVE",
"568 1314 CURVE SMOOTH",
"722 1314 OFFCURVE",
"834 1203 OFFCURVE",
"834 1050 CURVE SMOOTH",
"834 937 OFFCURVE",
"776 854 OFFCURVE",
"658 794 CURVE"
);
}
);
width = 1140;
},
{
layerId = "27D48214-71DC-4330-B979-784A7B16B611";
width = 1200;
}
);
unicode = 0038;
userData = {
com.fontlab.hintData = {
hhints = (
{
position = -12;
width = 37;
},
{
position = 657;
width = 43;
}
);
vhints = (
{
position = 40;
width = 110;
},
{
position = 57;
width = 110;
},
{
position = 417;
width = 95;
},
{
position = 435;
width = 95;
}
);
};
};
},
{
color = 11;
glyphname = nine;
lastChange = "2020-01-10 19:30:18 +0000";
layers = (
{
layerId = "EE8FC948-6E49-42F4-ACA5-5A0A3F8AB331";
paths = (
{
closed = 1;
nodes = (
"732 -28 OFFCURVE",
"1086 363 OFFCURVE",
"1086 764 CURVE SMOOTH",
"1086 1204 OFFCURVE",
"790 1400 OFFCURVE",
"558 1400 CURVE SMOOTH",
"297 1400 OFFCURVE",
"80 1169 OFFCURVE",
"80 892 CURVE SMOOTH",
"80 634 OFFCURVE",
"260 440 OFFCURVE",
"508 440 CURVE SMOOTH",
"630 440 OFFCURVE",
"730 480 OFFCURVE",
"848 580 CURVE",
"852 576 LINE",
"789 233 OFFCURVE",
"548 67 OFFCURVE",
"200 46 CURVE",
"200 -30 LINE"
);
},
{
closed = 1;
nodes = (
"410 540 OFFCURVE",
"300 701 OFFCURVE",
"300 936 CURVE SMOOTH",
"300 1181 OFFCURVE",
"408 1314 OFFCURVE",
"564 1314 CURVE SMOOTH",
"739 1314 OFFCURVE",
"866 1075 OFFCURVE",
"866 718 CURVE",
"783 598 OFFCURVE",
"683 540 OFFCURVE",
"570 540 CURVE SMOOTH"
);
}
);
width = 1166;
},
{
layerId = "27D48214-71DC-4330-B979-784A7B16B611";
width = 1200;
}
);
unicode = 0039;
userData = {
com.fontlab.hintData = {
hhints = (
{
position = -15;
width = 38;
},
{
position = 220;
width = 50;
},
{
position = 657;
width = 43;
}
);
vhints = (
{
position = 40;
width = 110;
},
{
position = 433;
width = 110;
}
);
};
};
},
{
color = 11;
glyphname = colon;
lastChange = "2020-01-10 19:30:18 +0000";
layers = (
{
layerId = "EE8FC948-6E49-42F4-ACA5-5A0A3F8AB331";
paths = (
{
closed = 1;
nodes = (
"376 656 OFFCURVE",
"438 720 OFFCURVE",
"438 798 CURVE SMOOTH",
"438 874 OFFCURVE",
"376 934 OFFCURVE",
"298 934 CURVE SMOOTH",
"222 934 OFFCURVE",
"160 874 OFFCURVE",
"160 798 CURVE SMOOTH",
"160 720 OFFCURVE",
"222 656 OFFCURVE",
"298 656 CURVE SMOOTH"
);
},
{
closed = 1;
nodes = (
"376 -40 OFFCURVE",
"438 24 OFFCURVE",
"438 102 CURVE SMOOTH",
"438 178 OFFCURVE",
"376 238 OFFCURVE",
"298 238 CURVE SMOOTH",
"222 238 OFFCURVE",
"160 178 OFFCURVE",
"160 102 CURVE SMOOTH",
"160 24 OFFCURVE",
"222 -40 OFFCURVE",
"298 -40 CURVE SMOOTH"
);
}
);
width = 598;
},
{
layerId = "27D48214-71DC-4330-B979-784A7B16B611";
width = 1200;
}
);
unicode = 003A;
userData = {
com.fontlab.hintData = {
hhints = (
{
position = -20;
width = 139;
},
{
position = 328;
width = 139;
}
);
vhints = (
{
position = 80;
width = 139;
}
);
};
};
},
{
color = 11;
glyphname = semicolon;
lastChange = "2020-01-10 19:30:18 +0000";
layers = (
{
layerId = "EE8FC948-6E49-42F4-ACA5-5A0A3F8AB331";
paths = (
{
closed = 1;
nodes = (
"350 -316 OFFCURVE",
"496 -200 OFFCURVE",
"496 0 CURVE SMOOTH",
"496 149 OFFCURVE",
"431 263 OFFCURVE",
"303 266 CURVE SMOOTH",
"301 266 OFFCURVE",
"300 266 OFFCURVE",
"299 266 CURVE SMOOTH",
"299 266 OFFCURVE",
"299 266 OFFCURVE",
"299 266 CURVE SMOOTH",
"298 266 OFFCURVE",
"298 266 OFFCURVE",
"298 266 CURVE SMOOTH",
"260 266 OFFCURVE",
"228 256 OFFCURVE",
"205 238 CURVE SMOOTH",
"164 212 OFFCURVE",
"136 167 OFFCURVE",
"136 113 CURVE SMOOTH",
"136 23 OFFCURVE",
"213 -40 OFFCURVE",
"299 -40 CURVE SMOOTH",
"325 -40 OFFCURVE",
"350 -33 OFFCURVE",
"371 -19 CURVE",
"376 -33 OFFCURVE",
"378 -49 OFFCURVE",
"378 -68 CURVE SMOOTH",
"378 -180 OFFCURVE",
"273 -229 OFFCURVE",
"96 -246 CURVE",
"96 -320 LINE"
);
},
{
closed = 1;
nodes = (
"375 656 OFFCURVE",
"438 721 OFFCURVE",
"438 797 CURVE SMOOTH",
"438 873 OFFCURVE",
"375 934 OFFCURVE",
"298 934 CURVE SMOOTH",
"221 934 OFFCURVE",
"160 873 OFFCURVE",
"160 797 CURVE SMOOTH",
"160 721 OFFCURVE",
"221 656 OFFCURVE",
"298 656 CURVE SMOOTH"
);
}
);
width = 656;
},
{
layerId = "27D48214-71DC-4330-B979-784A7B16B611";
width = 1200;
}
);
unicode = 003B;
userData = {
com.fontlab.hintData = {
hhints = (
{
position = -160;
width = 37;
},
{
position = -20;
width = 153;
},
{
position = 13;
width = 120;
},
{
position = 328;
width = 139;
}
);
vhints = (
{
position = 80;
width = 141;
},
{
position = 189;
width = 59;
}
);
};
};
},
{
color = 11;
glyphname = less;
lastChange = "2020-01-10 19:30:18 +0000";
layers = (
{
layerId = "EE8FC948-6E49-42F4-ACA5-5A0A3F8AB331";
paths = (
{
closed = 1;
nodes = (
"1108 240 LINE",
"368 592 LINE",
"1108 944 LINE",
"1108 1110 LINE",
"160 662 LINE",
"160 522 LINE",
"1108 74 LINE"
);
}
);
width = 1188;
},
{
layerId = "27D48214-71DC-4330-B979-784A7B16B611";
width = 1200;
}
);
unicode = 003C;
},
{
color = 11;
glyphname = equal;
lastChange = "2020-01-10 19:30:18 +0000";
layers = (
{
layerId = "EE8FC948-6E49-42F4-ACA5-5A0A3F8AB331";
paths = (
{
closed = 1;
nodes = (
"1202 816 LINE",
"1202 960 LINE",
"132 960 LINE",
"132 816 LINE"
);
},
{
closed = 1;
nodes = (
"1202 344 LINE",
"1202 488 LINE",
"132 488 LINE",
"132 344 LINE"
);
}
);
width = 1334;
},
{
layerId = "27D48214-71DC-4330-B979-784A7B16B611";
width = 1200;
}
);
unicode = 003D;
userData = {
com.fontlab.hintData = {
hhints = (
{
position = 172;
width = 72;
},
{
position = 408;
width = 72;
}
);
};
};
},
{
color = 11;
glyphname = greater;
lastChange = "2020-01-10 19:30:18 +0000";
layers = (
{
layerId = "EE8FC948-6E49-42F4-ACA5-5A0A3F8AB331";
paths = (
{
closed = 1;
nodes = (
"1028 522 LINE",
"1028 660 LINE",
"80 1110 LINE",
"80 942 LINE",
"820 590 LINE",
"80 240 LINE",
"80 74 LINE"
);
}
);
width = 1188;
},
{
layerId = "27D48214-71DC-4330-B979-784A7B16B611";
width = 1200;
}
);
unicode = 003E;
},
{
color = 11;
glyphname = question;
lastChange = "2020-01-10 19:30:18 +0000";
layers = (
{
layerId = "EE8FC948-6E49-42F4-ACA5-5A0A3F8AB331";
paths = (
{
closed = 1;
nodes = (
"296 440 LINE",
"298 504 OFFCURVE",
"306 556 OFFCURVE",
"334 584 CURVE SMOOTH",
"401 652 OFFCURVE",
"527 648 OFFCURVE",
"632 754 CURVE SMOOTH",
"686 808 OFFCURVE",
"708 874 OFFCURVE",
"708 948 CURVE SMOOTH",
"708 1073 OFFCURVE",
"526 1500 OFFCURVE",
"246 1500 CURVE SMOOTH",
"140 1500 OFFCURVE",
"70 1452 OFFCURVE",
"70 1378 CURVE SMOOTH",
"70 1330 OFFCURVE",
"104 1296 OFFCURVE",
"154 1296 CURVE SMOOTH",
"214 1296 OFFCURVE",
"244 1340 OFFCURVE",
"316 1340 CURVE SMOOTH",
"438 1340 OFFCURVE",
"582 1176 OFFCURVE",
"582 1036 CURVE SMOOTH",
"582 990 OFFCURVE",
"558 942 OFFCURVE",
"522 906 CURVE SMOOTH",
"421 806 OFFCURVE",
"232 808 OFFCURVE",
"198 774 CURVE SMOOTH",
"188 764 OFFCURVE",
"186 754 OFFCURVE",
"186 738 CURVE SMOOTH",
"186 696 OFFCURVE",
"216 630 OFFCURVE",
"216 440 CURVE"
);
},
{
closed = 1;
nodes = (
"335 -40 OFFCURVE",
"398 25 OFFCURVE",
"398 101 CURVE SMOOTH",
"398 177 OFFCURVE",
"335 238 OFFCURVE",
"258 238 CURVE SMOOTH",
"181 238 OFFCURVE",
"120 177 OFFCURVE",
"120 101 CURVE SMOOTH",
"120 25 OFFCURVE",
"181 -40 OFFCURVE",
"258 -40 CURVE SMOOTH"
);
}
);
width = 770;
},
{
layerId = "27D48214-71DC-4330-B979-784A7B16B611";
width = 1200;
}
);
unicode = 003F;
userData = {
com.fontlab.hintData = {
hhints = (
{
position = -20;
width = 139;
},
{
position = 670;
width = 80;
}
);
vhints = (
{
position = 60;
width = 139;
},
{
position = 108;
width = 40;
},
{
position = 291;
width = 63;
}
);
};
};
},
{
color = 11;
glyphname = at;
lastChange = "2020-01-10 19:30:18 +0000";
layers = (
{
layerId = "EE8FC948-6E49-42F4-ACA5-5A0A3F8AB331";
paths = (
{
closed = 1;
nodes = (
"1234 -340 OFFCURVE",
"1554 -94 OFFCURVE",
"1642 214 CURVE",
"1646 226 LINE",
"1650 236 LINE",
"1638 236 LINE",
"1570 236 LINE",
"1564 236 LINE",
"1560 232 LINE",
"1558 226 LINE",
"1428 -80 OFFCURVE",
"1182 -248 OFFCURVE",
"868 -248 CURVE SMOOTH",
"474 -248 OFFCURVE",
"198 38 OFFCURVE",
"198 452 CURVE SMOOTH",
"198 840 OFFCURVE",
"478 1236 OFFCURVE",
"934 1236 CURVE SMOOTH",
"1276 1236 OFFCURVE",
"1486 982 OFFCURVE",
"1486 712 CURVE SMOOTH",
"1486 390 OFFCURVE",
"1272 176 OFFCURVE",
"1136 176 CURVE SMOOTH",
"1106 176 OFFCURVE",
"1086 194 OFFCURVE",
"1086 244 CURVE SMOOTH",
"1086 264 OFFCURVE",
"1090 288 OFFCURVE",
"1098 316 CURVE SMOOTH",
"1272 918 LINE",
"1276 932 LINE",
"1262 930 LINE",
"1104 908 LINE",
"1098 906 LINE",
"1096 900 LINE",
"1082 848 LINE",
"1052 904 OFFCURVE",
"994 934 OFFCURVE",
"932 934 CURVE SMOOTH",
"720 934 OFFCURVE",
"430 588 OFFCURVE",
"430 302 CURVE SMOOTH",
"430 180 OFFCURVE",
"504 76 OFFCURVE",
"608 76 CURVE SMOOTH",
"724 76 OFFCURVE",
"834 176 OFFCURVE",
"924 286 CURVE",
"922 264 OFFCURVE",
"920 240 OFFCURVE",
"920 218 CURVE SMOOTH",
"920 126 OFFCURVE",
"976 76 OFFCURVE",
"1074 76 CURVE SMOOTH",
"1422 76 OFFCURVE",
"1576 466 OFFCURVE",
"1576 714 CURVE SMOOTH",
"1576 1082 OFFCURVE",
"1312 1336 OFFCURVE",
"928 1336 CURVE SMOOTH",
"452 1336 OFFCURVE",
"80 948 OFFCURVE",
"80 458 CURVE SMOOTH",
"80 -38 OFFCURVE",
"406 -340 OFFCURVE",
"846 -340 CURVE SMOOTH"
);
},
{
closed = 1;
nodes = (
"646 220 OFFCURVE",
"604 262 OFFCURVE",
"604 328 CURVE SMOOTH",
"604 464 OFFCURVE",
"788 856 OFFCURVE",
"944 856 CURVE SMOOTH",
"994 856 OFFCURVE",
"1034 814 OFFCURVE",
"1034 744 CURVE SMOOTH",
"1034 486 OFFCURVE",
"818 220 OFFCURVE",
"690 220 CURVE SMOOTH"
);
}
);
width = 1730;
},
{
layerId = "27D48214-71DC-4330-B979-784A7B16B611";
width = 1200;
}
);
unicode = 0040;
userData = {
com.fontlab.hintData = {
hhints = (
{
position = -170;
width = 46;
},
{
position = 38;
width = 50;
},
{
position = 38;
width = 72;
},
{
position = 428;
width = 39;
},
{
position = 618;
width = 50;
}
);
vhints = (
{
position = 40;
width = 59;
},
{
position = 215;
width = 87;
},
{
position = 460;
width = 83;
},
{
position = 743;
width = 45;
}
);
};
};
},
{
color = 11;
glyphname = A;
lastChange = "2020-01-10 19:30:33 +0000";
layers = (
{
anchors = (
{
name = "Anchor-1";
position = "{760, 1620}";
},
{
name = Anchor1;
position = "{760, 1620}";
}
);
layerId = "EE8FC948-6E49-42F4-ACA5-5A0A3F8AB331";
paths = (
{
closed = 1;
nodes = (
"520 0 LINE",
"520 60 LINE",
"390 100 LINE SMOOTH",
"350 112 OFFCURVE",
"320 160 OFFCURVE",
"334 200 CURVE SMOOTH",
"470 580 LINE",
"950 580 LINE",
"1090 200 LINE SMOOTH",
"1104 160 OFFCURVE",
"1080 112 OFFCURVE",
"1040 100 CURVE SMOOTH",
"910 60 LINE",
"910 0 LINE",
"1560 0 LINE",
"1560 60 LINE",
"1420 100 LINE SMOOTH",
"1380 112 OFFCURVE",
"1372 140 OFFCURVE",
"1356 180 CURVE SMOOTH",
"870 1400 LINE",
"680 1400 LINE",
"204 180 LINE SMOOTH",
"188 140 OFFCURVE",
"170 108 OFFCURVE",
"140 100 CURVE SMOOTH",
"0 60 LINE",
"0 0 LINE"
);
},
{
closed = 1;
nodes = (
"710 1240 LINE",
"920 670 LINE",
"500 670 LINE"
);
}
);
width = 1560;
},
{
layerId = "27D48214-71DC-4330-B979-784A7B16B611";
width = 1200;
}
);
unicode = 0041;
userData = {
com.fontlab.hintData = {
hhints = (
{
position = 0;
width = 30;
},
{
position = 290;
width = 45;
},
{
position = 680;
width = 20;
}
);
};
};
},
{
color = 11;
glyphname = B;
lastChange = "2020-01-10 19:30:18 +0000";
layers = (
{
layerId = "EE8FC948-6E49-42F4-ACA5-5A0A3F8AB331";
paths = (
{
closed = 1;
nodes = (
"820 0 LINE SMOOTH",
"1094 0 OFFCURVE",
"1320 186 OFFCURVE",
"1320 380 QCURVE SMOOTH",
"1320 458 OFFCURVE",
"1242 602 OFFCURVE",
"1102 700 OFFCURVE",
"1012 712 QCURVE",
"1012 719 LINE",
"1260 776 OFFCURVE",
"1260 1040 QCURVE SMOOTH",
"1260 1222 OFFCURVE",
"1034 1400 OFFCURVE",
"760 1400 QCURVE SMOOTH",
"80 1400 LINE",
"80 1340 LINE",
"240 1300 LINE SMOOTH",
"270 1292 OFFCURVE",
"300 1250 OFFCURVE",
"300 1220 QCURVE SMOOTH",
"300 180 LINE SMOOTH",
"300 150 OFFCURVE",
"270 108 OFFCURVE",
"240 100 QCURVE SMOOTH",
"80 60 LINE",
"80 0 LINE"
);
},
{
closed = 1;
nodes = (
"566 80 OFFCURVE",
"520 118 OFFCURVE",
"520 160 QCURVE SMOOTH",
"520 688 LINE",
"740 688 LINE SMOOTH",
"848 688 OFFCURVE",
"1002 604 OFFCURVE",
"1080 464 OFFCURVE",
"1080 380 QCURVE SMOOTH",
"1080 224 OFFCURVE",
"926 80 OFFCURVE",
"760 80 QCURVE SMOOTH",
"600 80 LINE SMOOTH"
);
},
{
closed = 1;
nodes = (
"520 1240 LINE SMOOTH",
"520 1282 OFFCURVE",
"566 1320 OFFCURVE",
"600 1320 QCURVE SMOOTH",
"700 1320 LINE SMOOTH",
"866 1320 OFFCURVE",
"1020 1186 OFFCURVE",
"1020 1040 QCURVE SMOOTH",
"1020 918 OFFCURVE",
"884 768 OFFCURVE",
"740 768 QCURVE SMOOTH",
"520 768 LINE"
);
}
);
width = 1400;
},
{
layerId = "27D48214-71DC-4330-B979-784A7B16B611";
width = 1200;
}
);
unicode = 0042;
userData = {
com.fontlab.hintData = {
hhints = (
{
position = 0;
width = 30;
},
{
position = 0;
width = 40;
},
{
position = 344;
width = 40;
},
{
position = 660;
width = 40;
},
{
position = 670;
width = 30;
}
);
vhints = (
{
position = 150;
width = 110;
},
{
position = 510;
width = 120;
},
{
position = 540;
width = 120;
}
);
};
};
},
{
color = 11;
glyphname = C;
lastChange = "2020-01-10 19:30:18 +0000";
layers = (
{
anchors = (
{
name = "Anchor-0";
position = "{660, 0}";
},
{
name = Anchor0;
position = "{660, 0}";
}
);
layerId = "EE8FC948-6E49-42F4-ACA5-5A0A3F8AB331";
paths = (
{
closed = 1;
nodes = (
"808 -30 LINE SMOOTH",
"981 -30 OFFCURVE",
"1127 25 OFFCURVE",
"1248 118 CURVE",
"1248 412 LINE",
"1160 412 LINE",
"1109 158 OFFCURVE",
"961 50 OFFCURVE",
"814 50 CURVE SMOOTH",
"794 50 LINE SMOOTH",
"549 50 OFFCURVE",
"320 232 OFFCURVE",
"320 730 CURVE SMOOTH",
"320 987 OFFCURVE",
"410 1350 OFFCURVE",
"780 1350 CURVE SMOOTH",
"814 1350 LINE SMOOTH",
"961 1350 OFFCURVE",
"1109 1242 OFFCURVE",
"1160 988 CURVE",
"1248 988 LINE",
"1248 1282 LINE",
"1127 1375 OFFCURVE",
"981 1430 OFFCURVE",
"808 1430 CURVE SMOOTH",
"357 1430 OFFCURVE",
"80 1102 OFFCURVE",
"80 686 CURVE SMOOTH",
"80 200 OFFCURVE",
"431 -30 OFFCURVE",
"766 -30 CURVE SMOOTH"
);
}
);
width = 1328;
},
{
layerId = "27D48214-71DC-4330-B979-784A7B16B611";
width = 1200;
}
);
unicode = 0043;
userData = {
com.fontlab.hintData = {
hhints = (
{
position = -15;
width = 40;
},
{
position = 494;
width = 21;
},
{
position = 675;
width = 40;
}
);
vhints = (
{
position = 40;
width = 120;
},
{
position = 580;
width = 44;
}
);
};
};
},
{
color = 11;
glyphname = D;
lastChange = "2020-01-10 19:30:18 +0000";
layers = (
{
layerId = "EE8FC948-6E49-42F4-ACA5-5A0A3F8AB331";
paths = (
{
closed = 1;
nodes = (
"820 0 LINE SMOOTH",
"1144 0 OFFCURVE",
"1420 247 OFFCURVE",
"1420 700 CURVE SMOOTH",
"1420 1044 OFFCURVE",
"1253 1400 OFFCURVE",
"760 1400 CURVE SMOOTH",
"80 1400 LINE",
"80 1340 LINE",
"240 1300 LINE SMOOTH",
"280 1290 OFFCURVE",
"300 1260 OFFCURVE",
"300 1220 CURVE SMOOTH",
"300 180 LINE SMOOTH",
"300 140 OFFCURVE",
"280 110 OFFCURVE",
"240 100 CURVE SMOOTH",
"80 60 LINE",
"80 0 LINE"
);
},
{
closed = 1;
nodes = (
"560 80 OFFCURVE",
"520 100 OFFCURVE",
"520 160 CURVE SMOOTH",
"520 1240 LINE SMOOTH",
"520 1300 OFFCURVE",
"560 1320 OFFCURVE",
"600 1320 CURVE SMOOTH",
"700 1320 LINE SMOOTH",
"1006 1320 OFFCURVE",
"1180 1084 OFFCURVE",
"1180 700 CURVE SMOOTH",
"1180 429 OFFCURVE",
"1062 80 OFFCURVE",
"760 80 CURVE SMOOTH",
"600 80 LINE SMOOTH"
);
}
);
width = 1500;
},
{
layerId = "27D48214-71DC-4330-B979-784A7B16B611";
width = 1200;
}
);
unicode = 0044;
userData = {
com.fontlab.hintData = {
hhints = (
{
position = 0;
width = 30;
},
{
position = 0;
width = 40;
},
{
position = 660;
width = 40;
},
{
position = 670;
width = 30;
}
);
vhints = (
{
position = 150;
width = 110;
},
{
position = 590;
width = 120;
}
);
};
};
},
{
color = 11;
glyphname = E;
lastChange = "2020-01-10 19:30:18 +0000";
layers = (
{
anchors = (
{
name = "Anchor-1";
position = "{680, 1620}";
},
{
name = Anchor1;
position = "{680, 1620}";
}
);
layerId = "EE8FC948-6E49-42F4-ACA5-5A0A3F8AB331";
paths = (
{
closed = 1;
nodes = (
"1240 0 LINE",
"1300 420 LINE",
"1220 420 LINE",
"1140 260 LINE SMOOTH",
"1080 140 OFFCURVE",
"1020 100 OFFCURVE",
"900 100 CURVE SMOOTH",
"600 100 LINE SMOOTH",
"560 100 OFFCURVE",
"520 120 OFFCURVE",
"520 180 CURVE SMOOTH",
"520 680 LINE",
"680 680 LINE SMOOTH",
"780 680 OFFCURVE",
"854 660 OFFCURVE",
"880 580 CURVE SMOOTH",
"920 460 LINE",
"980 460 LINE",
"980 980 LINE",
"920 980 LINE",
"880 860 LINE SMOOTH",
"854 780 OFFCURVE",
"780 760 OFFCURVE",
"680 760 CURVE SMOOTH",
"520 760 LINE",
"520 1220 LINE SMOOTH",
"520 1280 OFFCURVE",
"560 1300 OFFCURVE",
"600 1300 CURVE SMOOTH",
"800 1300 LINE SMOOTH",
"920 1300 OFFCURVE",
"990 1280 OFFCURVE",
"1040 1180 CURVE SMOOTH",
"1120 1020 LINE",
"1200 1020 LINE",
"1200 1400 LINE",
"80 1400 LINE",
"80 1340 LINE",
"240 1300 LINE SMOOTH",
"280 1290 OFFCURVE",
"300 1260 OFFCURVE",
"300 1220 CURVE SMOOTH",
"300 180 LINE SMOOTH",
"300 140 OFFCURVE",
"280 110 OFFCURVE",
"240 100 CURVE SMOOTH",
"80 60 LINE",
"80 0 LINE"
);
}
);
width = 1380;
},
{
layerId = "27D48214-71DC-4330-B979-784A7B16B611";
width = 1200;
}
);
unicode = 0045;
userData = {
com.fontlab.hintData = {
hhints = (
{
position = 0;
width = 30;
},
{
position = 0;
width = 50;
},
{
position = 340;
width = 40;
},
{
position = 470;
width = 20;
},
{
position = 650;
width = 50;
},
{
position = 670;
width = 30;
}
);
vhints = (
{
position = 150;
width = 110;
},
{
position = 240;
width = 20;
},
{
position = 440;
width = 50;
}
);
};
};
},
{
color = 11;
glyphname = F;
lastChange = "2020-01-10 19:30:18 +0000";
layers = (
{
layerId = "EE8FC948-6E49-42F4-ACA5-5A0A3F8AB331";
paths = (
{
closed = 1;
nodes = (
"740 0 LINE",
"740 60 LINE",
"580 100 LINE SMOOTH",
"540 110 OFFCURVE",
"520 140 OFFCURVE",
"520 180 CURVE SMOOTH",
"520 680 LINE",
"680 680 LINE SMOOTH",
"780 680 OFFCURVE",
"854 660 OFFCURVE",
"880 580 CURVE SMOOTH",
"920 460 LINE",
"980 460 LINE",
"980 980 LINE",
"920 980 LINE",
"880 860 LINE SMOOTH",
"854 780 OFFCURVE",
"780 760 OFFCURVE",
"680 760 CURVE SMOOTH",
"520 760 LINE",
"520 1220 LINE SMOOTH",
"520 1280 OFFCURVE",
"560 1300 OFFCURVE",
"600 1300 CURVE SMOOTH",
"800 1300 LINE SMOOTH",
"920 1300 OFFCURVE",
"990 1280 OFFCURVE",
"1040 1180 CURVE SMOOTH",
"1120 1020 LINE",
"1200 1020 LINE",
"1200 1400 LINE",
"80 1400 LINE",
"80 1340 LINE",
"240 1300 LINE SMOOTH",
"280 1290 OFFCURVE",
"300 1260 OFFCURVE",
"300 1220 CURVE SMOOTH",
"300 180 LINE SMOOTH",
"300 140 OFFCURVE",
"280 110 OFFCURVE",
"240 100 CURVE SMOOTH",
"80 60 LINE",
"80 0 LINE"
);
}
);
width = 1260;
},
{
layerId = "27D48214-71DC-4330-B979-784A7B16B611";
width = 1200;
}
);
unicode = 0046;
userData = {
com.fontlab.hintData = {
hhints = (
{
position = 0;
width = 30;
},
{
position = 340;
width = 40;
},
{
position = 470;
width = 20;
},
{
position = 650;
width = 50;
},
{
position = 670;
width = 30;
}
);
vhints = (
{
position = 150;
width = 110;
},
{
position = 240;
width = 20;
},
{
position = 440;
width = 50;
}
);
};
};
},
{
color = 11;
glyphname = G;
lastChange = "2020-01-10 19:30:18 +0000";
layers = (
{
layerId = "EE8FC948-6E49-42F4-ACA5-5A0A3F8AB331";
paths = (
{
closed = 1;
nodes = (
"808 -30 LINE SMOOTH",
"981 -30 OFFCURVE",
"1127 25 OFFCURVE",
"1248 118 CURVE",
"1248 164 LINE",
"1248 412 LINE",
"1248 460 LINE SMOOTH",
"1248 500 OFFCURVE",
"1261 530 OFFCURVE",
"1288 540 CURVE SMOOTH",
"1388 580 LINE",
"1388 640 LINE",
"868 640 LINE",
"868 580 LINE",
"988 540 LINE SMOOTH",
"1015 530 OFFCURVE",
"1028 500 OFFCURVE",
"1028 460 CURVE SMOOTH",
"1028 164 LINE",
"1050 164 LINE",
"983 86 OFFCURVE",
"898 50 OFFCURVE",
"814 50 CURVE SMOOTH",
"794 50 LINE SMOOTH",
"549 50 OFFCURVE",
"320 232 OFFCURVE",
"320 730 CURVE SMOOTH",
"320 987 OFFCURVE",
"410 1350 OFFCURVE",
"780 1350 CURVE SMOOTH",
"814 1350 LINE SMOOTH",
"961 1350 OFFCURVE",
"1109 1242 OFFCURVE",
"1160 988 CURVE",
"1248 988 LINE",
"1248 1282 LINE",
"1127 1375 OFFCURVE",
"981 1430 OFFCURVE",
"808 1430 CURVE SMOOTH",
"357 1430 OFFCURVE",
"80 1102 OFFCURVE",
"80 686 CURVE SMOOTH",
"80 200 OFFCURVE",
"431 -30 OFFCURVE",
"766 -30 CURVE SMOOTH"
);
}
);
width = 1328;
},
{
layerId = "27D48214-71DC-4330-B979-784A7B16B611";
width = 1200;
}
);
unicode = 0047;
userData = {
com.fontlab.hintData = {
hhints = (
{
position = -15;
width = 40;
},
{
position = 494;
width = 21;
},
{
position = 675;
width = 40;
}
);
vhints = (
{
position = 40;
width = 120;
},
{
position = 514;
width = 110;
},
{
position = 580;
width = 44;
}
);
};
};
},
{
color = 11;
glyphname = H;
lastChange = "2020-01-10 19:30:18 +0000";
layers = (
{
layerId = "EE8FC948-6E49-42F4-ACA5-5A0A3F8AB331";
paths = (
{
closed = 1;
nodes = (
"740 0 LINE",
"740 60 LINE",
"580 100 LINE SMOOTH",
"540 110 OFFCURVE",
"520 140 OFFCURVE",
"520 180 CURVE SMOOTH",
"520 670 LINE",
"1240 670 LINE",
"1240 180 LINE SMOOTH",
"1240 140 OFFCURVE",
"1220 110 OFFCURVE",
"1180 100 CURVE SMOOTH",
"1020 60 LINE",
"1020 0 LINE",
"1680 0 LINE",
"1680 60 LINE",
"1520 100 LINE SMOOTH",
"1480 110 OFFCURVE",
"1460 140 OFFCURVE",
"1460 180 CURVE SMOOTH",
"1460 1220 LINE SMOOTH",
"1460 1260 OFFCURVE",
"1480 1290 OFFCURVE",
"1520 1300 CURVE SMOOTH",
"1680 1340 LINE",
"1680 1400 LINE",
"1020 1400 LINE",
"1020 1340 LINE",
"1180 1300 LINE SMOOTH",
"1220 1290 OFFCURVE",
"1240 1260 OFFCURVE",
"1240 1220 CURVE SMOOTH",
"1240 760 LINE",
"520 760 LINE",
"520 1220 LINE SMOOTH",
"520 1260 OFFCURVE",
"540 1290 OFFCURVE",
"580 1300 CURVE SMOOTH",
"740 1340 LINE",
"740 1400 LINE",
"80 1400 LINE",
"80 1340 LINE",
"240 1300 LINE SMOOTH",
"280 1290 OFFCURVE",
"300 1260 OFFCURVE",
"300 1220 CURVE SMOOTH",
"300 180 LINE SMOOTH",
"300 140 OFFCURVE",
"280 110 OFFCURVE",
"240 100 CURVE SMOOTH",
"80 60 LINE",
"80 0 LINE"
);
}
);
width = 1760;
},
{
layerId = "27D48214-71DC-4330-B979-784A7B16B611";
width = 1200;
}
);
unicode = 0048;
userData = {
com.fontlab.hintData = {
hhints = (
{
position = 0;
width = 30;
},
{
position = 335;
width = 45;
},
{
position = 670;
width = 30;
}
);
vhints = (
{
position = 150;
width = 110;
},
{
position = 240;
width = 20;
},
{
position = 620;
width = 20;
},
{
position = 620;
width = 110;
}
);
};
};
},
{
color = 11;
glyphname = I;
lastChange = "2020-01-10 19:30:18 +0000";
layers = (
{
anchors = (
{
name = "Anchor-1";
position = "{410, 1620}";
},
{
name = Anchor1;
position = "{410, 1620}";
}
);
layerId = "EE8FC948-6E49-42F4-ACA5-5A0A3F8AB331";
paths = (
{
closed = 1;
nodes = (
"740 0 LINE",
"740 60 LINE",
"580 100 LINE SMOOTH",
"540 110 OFFCURVE",
"520 140 OFFCURVE",
"520 180 CURVE SMOOTH",
"520 1220 LINE SMOOTH",
"520 1260 OFFCURVE",
"540 1290 OFFCURVE",
"580 1300 CURVE SMOOTH",
"740 1340 LINE",
"740 1400 LINE",
"80 1400 LINE",
"80 1340 LINE",
"240 1300 LINE SMOOTH",
"280 1290 OFFCURVE",
"300 1260 OFFCURVE",
"300 1220 CURVE SMOOTH",
"300 180 LINE SMOOTH",
"300 140 OFFCURVE",
"280 110 OFFCURVE",
"240 100 CURVE SMOOTH",
"80 60 LINE",
"80 0 LINE"
);
}
);
width = 820;
},
{
layerId = "27D48214-71DC-4330-B979-784A7B16B611";
width = 1200;
}
);
unicode = 0049;
userData = {
com.fontlab.hintData = {
hhints = (
{
position = 0;
width = 30;
},
{
position = 670;
width = 30;
}
);
vhints = (
{
position = 150;
width = 110;
}
);
};
};
},
{
color = 11;
glyphname = J;
lastChange = "2020-01-10 19:30:18 +0000";
layers = (
{
layerId = "EE8FC948-6E49-42F4-ACA5-5A0A3F8AB331";
paths = (
{
closed = 1;
nodes = (
"433 -326 OFFCURVE",
"520 -192 OFFCURVE",
"520 55 CURVE SMOOTH",
"520 1220 LINE SMOOTH",
"520 1260 OFFCURVE",
"541 1290 OFFCURVE",
"580 1300 CURVE SMOOTH",
"740 1340 LINE",
"740 1400 LINE",
"80 1400 LINE",
"80 1340 LINE",
"240 1300 LINE SMOOTH",
"280 1290 OFFCURVE",
"300 1260 OFFCURVE",
"300 1220 CURVE SMOOTH",
"300 -141 LINE SMOOTH",
"300 -203 OFFCURVE",
"249 -234 OFFCURVE",
"207 -234 CURVE SMOOTH",
"162 -234 OFFCURVE",
"113 -152 OFFCURVE",
"113 -152 CURVE",
"86 -117 OFFCURVE",
"64 -91 OFFCURVE",
"28 -91 CURVE SMOOTH",
"-14 -91 OFFCURVE",
"-52 -120 OFFCURVE",
"-52 -182 CURVE SMOOTH",
"-52 -270 OFFCURVE",
"77 -326 OFFCURVE",
"198 -326 CURVE SMOOTH"
);
}
);
width = 820;
},
{
layerId = "27D48214-71DC-4330-B979-784A7B16B611";
width = 1200;
}
);
unicode = 004A;
userData = {
com.fontlab.hintData = {
hhints = (
{
position = -163;
width = 46;
},
{
position = 670;
width = 30;
}
);
vhints = (
{
position = 150;
width = 110;
}
);
};
};
},
{
color = 11;
glyphname = K;
lastChange = "2020-01-10 19:30:18 +0000";
layers = (
{
layerId = "EE8FC948-6E49-42F4-ACA5-5A0A3F8AB331";
paths = (
{
closed = 1;
nodes = (
"740 0 LINE",
"740 60 LINE",
"580 100 LINE SMOOTH",
"541 110 OFFCURVE",
"520 146 OFFCURVE",
"520 186 CURVE SMOOTH",
"520 694 LINE",
"1020 115 LINE SMOOTH",
"1073 57 OFFCURVE",
"1132 0 OFFCURVE",
"1159 0 CURVE SMOOTH",
"1542 0 LINE",
"1542 60 LINE",
"1454 60 OFFCURVE",
"1381 111 OFFCURVE",
"1292 176 CURVE",
"728 810 LINE",
"1156 1232 LINE SMOOTH",
"1220 1298 OFFCURVE",
"1316 1340 OFFCURVE",
"1406 1340 CURVE",
"1406 1400 LINE",
"920 1400 LINE",
"920 1340 LINE",
"996 1300 LINE SMOOTH",
"1011 1292 OFFCURVE",
"1020 1284 OFFCURVE",
"1020 1264 CURVE SMOOTH",
"1020 1244 OFFCURVE",
"1007 1228 OFFCURVE",
"982 1206 CURVE SMOOTH",
"520 745 LINE",
"520 1220 LINE SMOOTH",
"520 1260 OFFCURVE",
"541 1290 OFFCURVE",
"580 1300 CURVE SMOOTH",
"740 1340 LINE",
"740 1400 LINE",
"80 1400 LINE",
"80 1340 LINE",
"240 1300 LINE SMOOTH",
"280 1290 OFFCURVE",
"300 1260 OFFCURVE",
"300 1220 CURVE SMOOTH",
"300 177 LINE SMOOTH",
"300 137 OFFCURVE",
"281 110 OFFCURVE",
"240 100 CURVE SMOOTH",
"80 60 LINE",
"80 0 LINE"
);
}
);
width = 1622;
},
{
layerId = "27D48214-71DC-4330-B979-784A7B16B611";
width = 1200;
}
);
unicode = 004B;
userData = {
com.fontlab.hintData = {
hhints = (
{
position = 0;
width = 30;
},
{
position = 670;
width = 30;
}
);
vhints = (
{
position = 150;
width = 110;
}
);
};
};
},
{
color = 11;
glyphname = L;
lastChange = "2020-01-10 19:30:18 +0000";
layers = (
{
layerId = "EE8FC948-6E49-42F4-ACA5-5A0A3F8AB331";
paths = (
{
closed = 1;
nodes = (
"1240 0 LINE",
"1300 420 LINE",
"1220 420 LINE",
"1140 260 LINE SMOOTH",
"1080 140 OFFCURVE",
"1020 100 OFFCURVE",
"900 100 CURVE SMOOTH",
"600 100 LINE SMOOTH",
"560 100 OFFCURVE",
"520 120 OFFCURVE",
"520 180 CURVE SMOOTH",
"520 1220 LINE SMOOTH",
"520 1260 OFFCURVE",
"540 1290 OFFCURVE",
"580 1300 CURVE SMOOTH",
"740 1340 LINE",
"740 1400 LINE",
"80 1400 LINE",
"80 1340 LINE",
"240 1300 LINE SMOOTH",
"280 1290 OFFCURVE",
"300 1260 OFFCURVE",
"300 1220 CURVE SMOOTH",
"300 180 LINE SMOOTH",
"300 140 OFFCURVE",
"280 110 OFFCURVE",
"240 100 CURVE SMOOTH",
"80 60 LINE",
"80 0 LINE"
);
}
);
width = 1340;
},
{
layerId = "27D48214-71DC-4330-B979-784A7B16B611";
width = 1200;
}
);
unicode = 004C;
userData = {
com.fontlab.hintData = {
hhints = (
{
position = 0;
width = 30;
},
{
position = 0;
width = 50;
},
{
position = 670;
width = 30;
}
);
vhints = (
{
position = 150;
width = 110;
}
);
};
};
},
{
color = 11;
glyphname = M;
lastChange = "2020-01-10 19:30:18 +0000";
layers = (
{
layerId = "EE8FC948-6E49-42F4-ACA5-5A0A3F8AB331";
paths = (
{
closed = 1;
nodes = (
"556 0 LINE",
"556 60 LINE",
"472 100 LINE SMOOTH",
"435 121 OFFCURVE",
"402 144 OFFCURVE",
"400 200 CURVE SMOOTH",
"500 1080 LINE",
"880 0 LINE",
"980 0 LINE",
"1394 1080 LINE",
"1500 180 LINE",
"1456 120 LINE",
"1296 60 LINE",
"1296 0 LINE",
"1910 0 LINE",
"1910 60 LINE",
"1746 100 LINE",
"1708 200 LINE",
"1576 1220 LINE",
"1608 1280 LINE",
"1728 1340 LINE",
"1728 1400 LINE",
"1338 1400 LINE",
"1338 1250 LINE",
"994 360 LINE",
"640 1400 LINE",
"256 1400 LINE",
"256 1340 LINE",
"360 1300 LINE",
"440 1236 LINE",
"294 232 LINE",
"275 169 OFFCURVE",
"238 125 OFFCURVE",
"182 100 CURVE SMOOTH",
"80 60 LINE",
"80 0 LINE"
);
}
);
width = 2000;
},
{
layerId = "27D48214-71DC-4330-B979-784A7B16B611";
width = 1200;
}
);
unicode = 004D;
userData = {
com.fontlab.hintData = {
hhints = (
{
position = 0;
width = 30;
},
{
position = 680;
width = 20;
}
);
};
};
},
{
color = 11;
glyphname = N;
lastChange = "2020-01-10 19:30:18 +0000";
layers = (
{
layerId = "EE8FC948-6E49-42F4-ACA5-5A0A3F8AB331";
paths = (
{
closed = 1;
nodes = (
"620 0 LINE",
"620 60 LINE",
"460 100 LINE SMOOTH",
"420 110 OFFCURVE",
"400 140 OFFCURVE",
"400 180 CURVE SMOOTH",
"400 1054 LINE",
"1240 0 LINE",
"1360 0 LINE",
"1346 60 OFFCURVE",
"1340 132 OFFCURVE",
"1340 220 CURVE SMOOTH",
"1340 1220 LINE SMOOTH",
"1340 1260 OFFCURVE",
"1360 1290 OFFCURVE",
"1400 1300 CURVE SMOOTH",
"1560 1340 LINE",
"1560 1400 LINE",
"1020 1400 LINE",
"1020 1340 LINE",
"1180 1300 LINE SMOOTH",
"1220 1290 OFFCURVE",
"1240 1260 OFFCURVE",
"1240 1220 CURVE SMOOTH",
"1240 346 LINE",
"400 1400 LINE",
"80 1400 LINE",
"80 1340 LINE",
"240 1256 LINE SMOOTH",
"275 1238 OFFCURVE",
"300 1216 OFFCURVE",
"300 1176 CURVE SMOOTH",
"300 180 LINE SMOOTH",
"300 140 OFFCURVE",
"280 110 OFFCURVE",
"240 100 CURVE SMOOTH",
"80 60 LINE",
"80 0 LINE"
);
}
);
width = 1640;
},
{
layerId = "27D48214-71DC-4330-B979-784A7B16B611";
width = 1200;
}
);
unicode = 004E;
userData = {
com.fontlab.hintData = {
hhints = (
{
position = 0;
width = 30;
},
{
position = 670;
width = 30;
}
);
vhints = (
{
position = 150;
width = 50;
},
{
position = 620;
width = 50;
}
);
};
};
},
{
color = 11;
glyphname = O;
lastChange = "2020-01-10 19:30:18 +0000";
layers = (
{
anchors = (
{
name = "Anchor-1";
position = "{780, 1620}";
},
{
name = Anchor1;
position = "{780, 1620}";
}
);
layerId = "EE8FC948-6E49-42F4-ACA5-5A0A3F8AB331";
paths = (
{
closed = 1;
nodes = (
"1203 -30 OFFCURVE",
"1494 255 OFFCURVE",
"1494 714 CURVE SMOOTH",
"1494 1200 OFFCURVE",
"1157 1430 OFFCURVE",
"808 1430 CURVE SMOOTH",
"357 1430 OFFCURVE",
"80 1102 OFFCURVE",
"80 686 CURVE SMOOTH",
"80 200 OFFCURVE",
"431 -30 OFFCURVE",
"766 -30 CURVE SMOOTH"
);
},
{
closed = 1;
nodes = (
"549 50 OFFCURVE",
"320 232 OFFCURVE",
"320 730 CURVE SMOOTH",
"320 987 OFFCURVE",
"410 1350 OFFCURVE",
"780 1350 CURVE SMOOTH",
"1025 1350 OFFCURVE",
"1254 1154 OFFCURVE",
"1254 670 CURVE SMOOTH",
"1254 398 OFFCURVE",
"1184 50 OFFCURVE",
"794 50 CURVE SMOOTH"
);
}
);
width = 1574;
},
{
layerId = "27D48214-71DC-4330-B979-784A7B16B611";
width = 1200;
}
);
unicode = 004F;
userData = {
com.fontlab.hintData = {
hhints = (
{
position = -15;
width = 40;
},
{
position = 675;
width = 40;
}
);
vhints = (
{
position = 40;
width = 120;
},
{
position = 627;
width = 120;
}
);
};
};
},
{
color = 11;
glyphname = P;
lastChange = "2020-01-10 19:30:18 +0000";
layers = (
{
layerId = "EE8FC948-6E49-42F4-ACA5-5A0A3F8AB331";
paths = (
{
closed = 1;
nodes = (
"740 0 LINE",
"740 60 LINE",
"580 100 LINE SMOOTH",
"540 110 OFFCURVE",
"520 140 OFFCURVE",
"520 180 CURVE SMOOTH",
"520 1240 LINE SMOOTH",
"520 1300 OFFCURVE",
"560 1320 OFFCURVE",
"600 1320 CURVE SMOOTH",
"700 1320 LINE SMOOTH",
"920 1320 OFFCURVE",
"1020 1202 OFFCURVE",
"1020 1020 CURVE SMOOTH",
"1020 822 OFFCURVE",
"920 640 OFFCURVE",
"640 680 CURVE",
"640 600 LINE",
"670 590 OFFCURVE",
"720 580 OFFCURVE",
"760 580 CURVE SMOOTH",
"1060 580 OFFCURVE",
"1260 760 OFFCURVE",
"1260 1020 CURVE SMOOTH",
"1260 1240 OFFCURVE",
"1140 1400 OFFCURVE",
"760 1400 CURVE SMOOTH",
"80 1400 LINE",
"80 1340 LINE",
"240 1300 LINE SMOOTH",
"280 1290 OFFCURVE",
"300 1260 OFFCURVE",
"300 1220 CURVE SMOOTH",
"300 180 LINE SMOOTH",
"300 140 OFFCURVE",
"280 110 OFFCURVE",
"240 100 CURVE SMOOTH",
"80 60 LINE",
"80 0 LINE"
);
}
);
width = 1320;
},
{
layerId = "27D48214-71DC-4330-B979-784A7B16B611";
width = 1200;
}
);
unicode = 0050;
userData = {
com.fontlab.hintData = {
hhints = (
{
position = 0;
width = 30;
},
{
position = 300;
width = 40;
},
{
position = 660;
width = 40;
},
{
position = 670;
width = 30;
}
);
vhints = (
{
position = 150;
width = 110;
},
{
position = 510;
width = 120;
}
);
};
};
},
{
color = 11;
glyphname = Q;
lastChange = "2020-01-10 19:30:18 +0000";
layers = (
{
layerId = "EE8FC948-6E49-42F4-ACA5-5A0A3F8AB331";
paths = (
{
closed = 1;
nodes = (
"1200 -30 OFFCURVE",
"1494 254 OFFCURVE",
"1494 714 CURVE SMOOTH",
"1494 1200 OFFCURVE",
"1156 1430 OFFCURVE",
"808 1430 CURVE SMOOTH",
"358 1430 OFFCURVE",
"80 1102 OFFCURVE",
"80 686 CURVE SMOOTH",
"80 200 OFFCURVE",
"430 -30 OFFCURVE",
"766 -30 CURVE SMOOTH"
);
},
{
closed = 1;
nodes = (
"1860 -510 OFFCURVE",
"1980 -420 OFFCURVE",
"2040 -340 CURVE",
"2000 -290 LINE",
"1930 -330 OFFCURVE",
"1860 -330 OFFCURVE",
"1800 -330 CURVE SMOOTH",
"1520 -330 OFFCURVE",
"1100 0 OFFCURVE",
"960 0 CURVE",
"766 -30 LINE",
"1042 -30 OFFCURVE",
"1260 -510 OFFCURVE",
"1720 -510 CURVE SMOOTH"
);
},
{
closed = 1;
nodes = (
"548 50 OFFCURVE",
"320 232 OFFCURVE",
"320 730 CURVE SMOOTH",
"320 988 OFFCURVE",
"410 1350 OFFCURVE",
"780 1350 CURVE SMOOTH",
"1026 1350 OFFCURVE",
"1254 1154 OFFCURVE",
"1254 670 CURVE SMOOTH",
"1254 398 OFFCURVE",
"1184 50 OFFCURVE",
"794 50 CURVE SMOOTH"
);
}
);
width = 1570;
},
{
layerId = "27D48214-71DC-4330-B979-784A7B16B611";
width = 1200;
}
);
unicode = 0051;
userData = {
com.fontlab.hintData = {
hhints = (
{
position = -195;
width = 55;
},
{
position = 0;
width = 25;
},
{
position = 675;
width = 40;
}
);
vhints = (
{
position = 40;
width = 123;
},
{
position = 622;
width = 123;
}
);
};
};
},
{
color = 11;
glyphname = R;
lastChange = "2020-01-10 19:30:18 +0000";
layers = (
{
layerId = "EE8FC948-6E49-42F4-ACA5-5A0A3F8AB331";
paths = (
{
closed = 1;
nodes = (
"740 0 LINE",
"740 60 LINE",
"580 100 LINE SMOOTH",
"540 110 OFFCURVE",
"520 140 OFFCURVE",
"520 180 CURVE SMOOTH",
"520 580 LINE",
"648 580 LINE",
"1060 114 LINE SMOOTH",
"1112 56 OFFCURVE",
"1172 0 OFFCURVE",
"1198 0 CURVE SMOOTH",
"1542 0 LINE",
"1542 60 LINE",
"1454 60 OFFCURVE",
"1381 111 OFFCURVE",
"1292 176 CURVE",
"917 598 LINE",
"1128 650 OFFCURVE",
"1260 808 OFFCURVE",
"1260 1020 CURVE SMOOTH",
"1260 1240 OFFCURVE",
"1140 1400 OFFCURVE",
"760 1400 CURVE SMOOTH",
"80 1400 LINE",
"80 1340 LINE",
"240 1300 LINE SMOOTH",
"280 1290 OFFCURVE",
"300 1260 OFFCURVE",
"300 1220 CURVE SMOOTH",
"300 180 LINE SMOOTH",
"300 140 OFFCURVE",
"280 110 OFFCURVE",
"240 100 CURVE SMOOTH",
"80 60 LINE",
"80 0 LINE"
);
},
{
closed = 1;
nodes = (
"520 1240 LINE SMOOTH",
"520 1300 OFFCURVE",
"560 1320 OFFCURVE",
"600 1320 CURVE SMOOTH",
"700 1320 LINE SMOOTH",
"920 1320 OFFCURVE",
"1020 1202 OFFCURVE",
"1020 1020 CURVE SMOOTH",
"1020 841 OFFCURVE",
"938 674 OFFCURVE",
"714 674 CURVE SMOOTH",
"640 674 LINE",
"520 674 LINE"
);
}
);
width = 1622;
},
{
layerId = "27D48214-71DC-4330-B979-784A7B16B611";
width = 1200;
}
);
unicode = 0052;
userData = {
com.fontlab.hintData = {
hhints = (
{
position = 0;
width = 30;
},
{
position = 290;
width = 47;
},
{
position = 300;
width = 37;
},
{
position = 660;
width = 40;
},
{
position = 670;
width = 30;
}
);
vhints = (
{
position = 150;
width = 110;
},
{
position = 510;
width = 120;
}
);
};
};
},
{
color = 11;
glyphname = S;
lastChange = "2020-01-10 19:30:18 +0000";
layers = (
{
layerId = "EE8FC948-6E49-42F4-ACA5-5A0A3F8AB331";
paths = (
{
closed = 1;
nodes = (
"916 -30 OFFCURVE",
"1108 136 OFFCURVE",
"1108 400 CURVE SMOOTH",
"1108 654 OFFCURVE",
"893 747 OFFCURVE",
"680 816 CURVE SMOOTH",
"487 878 OFFCURVE",
"308 974 OFFCURVE",
"308 1112 CURVE SMOOTH",
"308 1248 OFFCURVE",
"408 1320 OFFCURVE",
"576 1320 CURVE SMOOTH",
"763 1320 OFFCURVE",
"871 1221 OFFCURVE",
"922 988 CURVE",
"1010 988 LINE",
"1010 1282 LINE",
"889 1375 OFFCURVE",
"743 1430 OFFCURVE",
"570 1430 CURVE SMOOTH",
"292 1430 OFFCURVE",
"100 1281 OFFCURVE",
"100 1050 CURVE SMOOTH",
"100 779 OFFCURVE",
"402 650 OFFCURVE",
"588 592 CURVE SMOOTH",
"769 535 OFFCURVE",
"908 463 OFFCURVE",
"908 326 CURVE SMOOTH",
"908 193 OFFCURVE",
"777 80 OFFCURVE",
"594 80 CURVE SMOOTH",
"392 80 OFFCURVE",
"268 226 OFFCURVE",
"234 460 CURVE",
"140 460 LINE",
"140 80 LINE",
"263 15 OFFCURVE",
"352 -30 OFFCURVE",
"614 -30 CURVE SMOOTH"
);
}
);
width = 1212;
},
{
layerId = "27D48214-71DC-4330-B979-784A7B16B611";
width = 1200;
}
);
unicode = 0053;
userData = {
com.fontlab.hintData = {
hhints = (
{
position = -15;
width = 55;
},
{
position = 494;
width = 21;
},
{
position = 660;
width = 55;
}
);
vhints = (
{
position = 50;
width = 104;
},
{
position = 70;
width = 47;
},
{
position = 454;
width = 100;
},
{
position = 461;
width = 44;
}
);
};
};
},
{
color = 11;
glyphname = T;
lastChange = "2020-01-10 19:30:18 +0000";
layers = (
{
layerId = "EE8FC948-6E49-42F4-ACA5-5A0A3F8AB331";
paths = (
{
closed = 1;
nodes = (
"1020 0 LINE",
"1020 60 LINE",
"860 100 LINE SMOOTH",
"820 110 OFFCURVE",
"800 140 OFFCURVE",
"800 180 CURVE SMOOTH",
"800 1220 LINE SMOOTH",
"800 1280 OFFCURVE",
"840 1300 OFFCURVE",
"880 1300 CURVE SMOOTH",
"900 1300 LINE SMOOTH",
"1020 1300 OFFCURVE",
"1090 1280 OFFCURVE",
"1140 1180 CURVE SMOOTH",
"1220 1020 LINE",
"1300 1020 LINE",
"1240 1400 LINE",
"140 1400 LINE",
"80 1020 LINE",
"160 1020 LINE",
"240 1180 LINE SMOOTH",
"290 1280 OFFCURVE",
"360 1300 OFFCURVE",
"480 1300 CURVE SMOOTH",
"500 1300 LINE SMOOTH",
"550 1300 OFFCURVE",
"580 1268 OFFCURVE",
"580 1220 CURVE SMOOTH",
"580 180 LINE SMOOTH",
"580 140 OFFCURVE",
"560 110 OFFCURVE",
"520 100 CURVE SMOOTH",
"360 60 LINE",
"360 0 LINE"
);
}
);
width = 1380;
},
{
layerId = "27D48214-71DC-4330-B979-784A7B16B611";
width = 1200;
}
);
unicode = 0054;
userData = {
com.fontlab.hintData = {
hhints = (
{
position = 0;
width = 30;
},
{
position = 650;
width = 50;
}
);
vhints = (
{
position = 290;
width = 110;
}
);
};
};
},
{
color = 11;
glyphname = U;
lastChange = "2020-01-10 19:30:18 +0000";
layers = (
{
anchors = (
{
name = "Anchor-1";
position = "{880, 1620}";
},
{
name = Anchor1;
position = "{880, 1620}";
}
);
layerId = "EE8FC948-6E49-42F4-ACA5-5A0A3F8AB331";
paths = (
{
closed = 1;
nodes = (
"1140 -30 OFFCURVE",
"1384 120 OFFCURVE",
"1384 514 CURVE SMOOTH",
"1384 1220 LINE SMOOTH",
"1384 1260 OFFCURVE",
"1422 1289 OFFCURVE",
"1460 1300 CURVE SMOOTH",
"1596 1340 LINE",
"1596 1400 LINE",
"1038 1400 LINE",
"1038 1340 LINE",
"1180 1300 LINE SMOOTH",
"1219 1289 OFFCURVE",
"1270 1260 OFFCURVE",
"1270 1220 CURVE SMOOTH",
"1270 534 LINE SMOOTH",
"1263 154 OFFCURVE",
"1064 80 OFFCURVE",
"896 80 CURVE SMOOTH",
"622 80 OFFCURVE",
"520 227 OFFCURVE",
"520 468 CURVE SMOOTH",
"520 1220 LINE SMOOTH",
"520 1260 OFFCURVE",
"541 1290 OFFCURVE",
"580 1300 CURVE SMOOTH",
"740 1340 LINE",
"740 1400 LINE",
"80 1400 LINE",
"80 1340 LINE",
"240 1300 LINE SMOOTH",
"279 1290 OFFCURVE",
"300 1260 OFFCURVE",
"300 1220 CURVE SMOOTH",
"300 475 LINE SMOOTH",
"300 144 OFFCURVE",
"512 -30 OFFCURVE",
"824 -30 CURVE SMOOTH"
);
}
);
width = 1676;
},
{
layerId = "27D48214-71DC-4330-B979-784A7B16B611";
width = 1200;
}
);
unicode = 0055;
userData = {
com.fontlab.hintData = {
hhints = (
{
position = -15;
width = 55;
},
{
position = 670;
width = 30;
}
);
vhints = (
{
position = 150;
width = 110;
},
{
position = 635;
width = 57;
}
);
};
};
},
{
color = 11;
glyphname = V;
lastChange = "2020-01-10 19:30:18 +0000";
layers = (
{
layerId = "EE8FC948-6E49-42F4-ACA5-5A0A3F8AB331";
paths = (
{
closed = 1;
nodes = (
"832 -30 LINE",
"1322 1186 LINE SMOOTH",
"1340 1230 OFFCURVE",
"1358 1282 OFFCURVE",
"1400 1300 CURVE SMOOTH",
"1490 1340 LINE",
"1490 1400 LINE",
"1020 1400 LINE",
"1020 1340 LINE",
"1160 1300 LINE SMOOTH",
"1196 1288 OFFCURVE",
"1214 1254 OFFCURVE",
"1216 1220 CURVE",
"860 308 LINE",
"484 1220 LINE SMOOTH",
"484 1240 OFFCURVE",
"515 1278 OFFCURVE",
"560 1300 CURVE SMOOTH",
"640 1340 LINE",
"640 1400 LINE",
"80 1400 LINE",
"80 1340 LINE",
"160 1300 LINE SMOOTH",
"194 1280 OFFCURVE",
"212 1256 OFFCURVE",
"230 1220 CURVE SMOOTH",
"746 -30 LINE"
);
}
);
width = 1570;
},
{
layerId = "27D48214-71DC-4330-B979-784A7B16B611";
width = 1200;
}
);
unicode = 0056;
userData = {
com.fontlab.hintData = {
hhints = (
{
position = -15;
width = 21;
},
{
position = 670;
width = 30;
}
);
};
};
},
{
color = 11;
glyphname = W;
lastChange = "2020-01-10 19:30:18 +0000";
layers = (
{
layerId = "EE8FC948-6E49-42F4-ACA5-5A0A3F8AB331";
paths = (
{
closed = 1;
nodes = (
"1478 -30 LINE",
"1968 1186 LINE SMOOTH",
"1987 1232 OFFCURVE",
"2008 1279 OFFCURVE",
"2036 1306 CURVE",
"2090 1340 LINE",
"2090 1400 LINE",
"1690 1400 LINE",
"1690 1340 LINE",
"1792 1300 LINE SMOOTH",
"1828 1286 OFFCURVE",
"1847 1253 OFFCURVE",
"1848 1220 CURVE",
"1490 224 LINE",
"1259 787 LINE",
"1460 1186 LINE SMOOTH",
"1482 1228 OFFCURVE",
"1514 1284 OFFCURVE",
"1536 1300 CURVE SMOOTH",
"1606 1340 LINE",
"1606 1400 LINE",
"1230 1400 LINE",
"1230 1340 LINE",
"1298 1308 LINE SMOOTH",
"1328 1292 OFFCURVE",
"1365 1256 OFFCURVE",
"1366 1220 CURVE",
"1211 905 LINE",
"1082 1220 LINE SMOOTH",
"1074 1243 OFFCURVE",
"1081 1282 OFFCURVE",
"1110 1300 CURVE SMOOTH",
"1176 1340 LINE",
"1176 1400 LINE",
"692 1400 LINE",
"692 1340 LINE",
"752 1310 LINE SMOOTH",
"786 1289 OFFCURVE",
"810 1256 OFFCURVE",
"826 1220 CURVE SMOOTH",
"1084 647 LINE",
"876 224 LINE",
"484 1220 LINE SMOOTH",
"483 1224 OFFCURVE",
"482 1230 OFFCURVE",
"482 1234 CURVE SMOOTH",
"482 1256 OFFCURVE",
"498 1281 OFFCURVE",
"524 1300 CURVE SMOOTH",
"578 1340 LINE",
"578 1400 LINE",
"80 1400 LINE",
"80 1340 LINE",
"160 1300 LINE SMOOTH",
"192 1284 OFFCURVE",
"210 1256 OFFCURVE",
"230 1220 CURVE SMOOTH",
"760 -30 LINE",
"848 -30 LINE",
"1134 538 LINE",
"1390 -30 LINE"
);
}
);
width = 2170;
},
{
layerId = "27D48214-71DC-4330-B979-784A7B16B611";
width = 1200;
}
);
unicode = 0057;
userData = {
com.fontlab.hintData = {
hhints = (
{
position = -15;
width = 21;
},
{
position = 680;
width = 20;
}
);
};
};
},
{
color = 11;
glyphname = X;
lastChange = "2020-01-10 19:30:18 +0000";
layers = (
{
layerId = "EE8FC948-6E49-42F4-ACA5-5A0A3F8AB331";
paths = (
{
closed = 1;
nodes = (
"548 0 LINE",
"548 60 LINE",
"438 80 OFFCURVE",
"388 100 OFFCURVE",
"388 140 CURVE SMOOTH",
"388 200 OFFCURVE",
"408 220 OFFCURVE",
"448 280 CURVE SMOOTH",
"684 630 LINE",
"888 320 LINE SMOOTH",
"922 268 OFFCURVE",
"978 180 OFFCURVE",
"978 140 CURVE SMOOTH",
"978 100 OFFCURVE",
"948 80 OFFCURVE",
"838 60 CURVE",
"838 0 LINE",
"1480 0 LINE",
"1480 60 LINE",
"1336 90 OFFCURVE",
"1262 154 OFFCURVE",
"1194 254 CURVE SMOOTH",
"854 760 LINE",
"1108 1120 LINE SMOOTH",
"1178 1218 OFFCURVE",
"1248 1320 OFFCURVE",
"1398 1340 CURVE",
"1398 1400 LINE",
"878 1400 LINE",
"878 1340 LINE",
"1008 1320 OFFCURVE",
"1028 1280 OFFCURVE",
"1028 1240 CURVE SMOOTH",
"1028 1200 OFFCURVE",
"988 1140 OFFCURVE",
"928 1050 CURVE SMOOTH",
"788 840 LINE",
"648 1060 LINE SMOOTH",
"610 1120 OFFCURVE",
"548 1200 OFFCURVE",
"548 1240 CURVE SMOOTH",
"548 1300 OFFCURVE",
"568 1320 OFFCURVE",
"708 1340 CURVE",
"708 1400 LINE",
"28 1400 LINE",
"28 1340 LINE",
"208 1300 OFFCURVE",
"242 1260 OFFCURVE",
"368 1080 CURVE SMOOTH",
"628 710 LINE",
"288 230 LINE SMOOTH",
"224 140 OFFCURVE",
"168 80 OFFCURVE",
"20 60 CURVE",
"20 0 LINE"
);
}
);
width = 1470;
},
{
layerId = "27D48214-71DC-4330-B979-784A7B16B611";
width = 1200;
}
);
unicode = 0058;
userData = {
com.fontlab.hintData = {
hhints = (
{
position = 0;
width = 30;
},
{
position = 660;
width = 37;
},
{
position = 670;
width = 30;
}
);
};
};
},
{
color = 11;
glyphname = Y;
lastChange = "2020-01-10 19:30:18 +0000";
layers = (
{
anchors = (
{
name = "Anchor-1";
position = "{710, 1620}";
},
{
name = Anchor1;
position = "{820, 1620}";
}
);
layerId = "EE8FC948-6E49-42F4-ACA5-5A0A3F8AB331";
paths = (
{
closed = 1;
nodes = (
"1010 0 LINE",
"1010 60 LINE",
"812 110 OFFCURVE",
"790 130 OFFCURVE",
"790 200 CURVE SMOOTH",
"790 540 LINE SMOOTH",
"1182 1186 LINE SMOOTH",
"1210 1232 OFFCURVE",
"1240 1300 OFFCURVE",
"1390 1340 CURVE",
"1390 1400 LINE",
"930 1400 LINE",
"930 1340 LINE",
"1070 1300 OFFCURVE",
"1080 1260 OFFCURVE",
"1080 1240 CURVE SMOOTH",
"1080 1220 OFFCURVE",
"1066 1178 OFFCURVE",
"1006 1080 CURVE SMOOTH",
"750 660 LINE SMOOTH",
"510 1080 LINE SMOOTH",
"454 1178 OFFCURVE",
"430 1220 OFFCURVE",
"430 1240 CURVE SMOOTH",
"430 1280 OFFCURVE",
"450 1300 OFFCURVE",
"570 1340 CURVE",
"570 1400 LINE",
"-30 1400 LINE",
"-30 1340 LINE",
"110 1300 OFFCURVE",
"158 1240 OFFCURVE",
"240 1100 CURVE SMOOTH",
"570 540 LINE SMOOTH",
"570 200 LINE SMOOTH",
"570 130 OFFCURVE",
"550 110 OFFCURVE",
"350 60 CURVE",
"350 0 LINE"
);
}
);
width = 1360;
},
{
layerId = "27D48214-71DC-4330-B979-784A7B16B611";
width = 1200;
}
);
unicode = 0059;
userData = {
com.fontlab.hintData = {
hhints = (
{
position = 0;
width = 30;
},
{
position = 245;
width = 77;
},
{
position = 680;
width = 20;
}
);
vhints = (
{
position = 341;
width = 110;
}
);
};
};
},
{
color = 11;
glyphname = Z;
lastChange = "2020-01-10 19:30:18 +0000";
layers = (
{
layerId = "EE8FC948-6E49-42F4-ACA5-5A0A3F8AB331";
paths = (
{
closed = 1;
nodes = (
"1238 0 LINE",
"1320 440 LINE",
"1240 440 LINE",
"1120 220 OFFCURVE",
"1100 114 OFFCURVE",
"840 114 CURVE SMOOTH",
"370 114 LINE",
"1240 1320 LINE",
"1240 1400 LINE",
"120 1400 LINE",
"120 1000 LINE",
"198 1000 LINE",
"238 1160 OFFCURVE",
"282 1280 OFFCURVE",
"478 1280 CURVE SMOOTH",
"920 1280 LINE",
"80 86 LINE",
"80 0 LINE"
);
}
);
width = 1268;
},
{
layerId = "27D48214-71DC-4330-B979-784A7B16B611";
width = 1200;
}
);
unicode = 005A;
userData = {
com.fontlab.hintData = {
hhints = (
{
position = 0;
width = 57;
},
{
position = 641;
width = 59;
}
);
vhints = (
{
position = 65;
width = 49;
},
{
position = 545;
width = 49;
}
);
};
};
},
{
color = 11;
glyphname = bracketleft;
lastChange = "2020-01-10 19:30:18 +0000";
layers = (
{
layerId = "EE8FC948-6E49-42F4-ACA5-5A0A3F8AB331";
paths = (
{
closed = 1;
nodes = (
"718 -220 LINE",
"718 -142 LINE",
"604 -142 LINE SMOOTH",
"486 -142 OFFCURVE",
"448 -106 OFFCURVE",
"448 14 CURVE SMOOTH",
"448 1366 LINE SMOOTH",
"448 1486 OFFCURVE",
"486 1522 OFFCURVE",
"604 1522 CURVE SMOOTH",
"718 1522 LINE",
"718 1600 LINE",
"380 1600 LINE SMOOTH",
"320 1600 OFFCURVE",
"280 1560 OFFCURVE",
"280 1500 CURVE SMOOTH",
"280 -120 LINE SMOOTH",
"280 -180 OFFCURVE",
"320 -220 OFFCURVE",
"380 -220 CURVE SMOOTH"
);
}
);
width = 750;
},
{
layerId = "27D48214-71DC-4330-B979-784A7B16B611";
width = 1200;
}
);
unicode = 005B;
userData = {
com.fontlab.hintData = {
hhints = (
{
position = -110;
width = 39;
},
{
position = 761;
width = 39;
}
);
vhints = (
{
position = 140;
width = 84;
}
);
};
};
},
{
color = 11;
glyphname = backslash;
lastChange = "2020-01-10 19:30:18 +0000";
layers = (
{
layerId = "EE8FC948-6E49-42F4-ACA5-5A0A3F8AB331";
paths = (
{
closed = 1;
nodes = (
"656 -24 LINE",
"188 1398 LINE",
"80 1398 LINE",
"546 -24 LINE"
);
}
);
width = 736;
},
{
layerId = "27D48214-71DC-4330-B979-784A7B16B611";
width = 1200;
}
);
unicode = 005C;
userData = {
com.fontlab.hintData = {
hhints = (
{
position = -12;
width = 21;
},
{
position = 679;
width = 20;
}
);
vhints = (
{
position = 273;
width = 55;
}
);
};
};
},
{
color = 11;
glyphname = bracketright;
lastChange = "2020-01-10 19:30:18 +0000";
layers = (
{
layerId = "EE8FC948-6E49-42F4-ACA5-5A0A3F8AB331";
paths = (
{
closed = 1;
nodes = (
"418 -220 LINE SMOOTH",
"478 -220 OFFCURVE",
"518 -180 OFFCURVE",
"518 -120 CURVE SMOOTH",
"518 1500 LINE SMOOTH",
"518 1560 OFFCURVE",
"478 1600 OFFCURVE",
"418 1600 CURVE SMOOTH",
"80 1600 LINE",
"80 1522 LINE",
"194 1522 LINE SMOOTH",
"312 1522 OFFCURVE",
"350 1486 OFFCURVE",
"350 1366 CURVE SMOOTH",
"350 14 LINE SMOOTH",
"350 -106 OFFCURVE",
"312 -142 OFFCURVE",
"194 -142 CURVE SMOOTH",
"80 -142 LINE",
"80 -220 LINE"
);
}
);
width = 750;
},
{
layerId = "27D48214-71DC-4330-B979-784A7B16B611";
width = 1200;
}
);
unicode = 005D;
userData = {
com.fontlab.hintData = {
hhints = (
{
position = -110;
width = 39;
},
{
position = 761;
width = 39;
}
);
vhints = (
{
position = 175;
width = 84;
}
);
};
};
},
{
color = 11;
glyphname = asciicircum;
lastChange = "2020-01-10 19:30:18 +0000";
layers = (
{
layerId = "EE8FC948-6E49-42F4-ACA5-5A0A3F8AB331";
paths = (
{
closed = 1;
nodes = (
"164 760 LINE",
"470 1256 LINE",
"774 760 LINE",
"898 760 LINE",
"508 1400 LINE",
"434 1400 LINE",
"40 760 LINE"
);
}
);
width = 938;
},
{
layerId = "27D48214-71DC-4330-B979-784A7B16B611";
width = 1200;
}
);
unicode = 005E;
userData = {
com.fontlab.hintData = {
hhints = (
{
position = 380;
width = 320;
}
);
};
};
},
{
color = 11;
glyphname = underscore;
lastChange = "2020-01-10 19:30:18 +0000";
layers = (
{
layerId = "EE8FC948-6E49-42F4-ACA5-5A0A3F8AB331";
paths = (
{
closed = 1;
nodes = (
"1012 -260 LINE",
"1012 -120 LINE",
"-12 -120 LINE",
"-12 -260 LINE"
);
}
);
width = 1000;
},
{
layerId = "27D48214-71DC-4330-B979-784A7B16B611";
width = 1200;
}
);
unicode = 005F;
userData = {
com.fontlab.hintData = {
hhints = (
{
position = -130;
width = 70;
}
);
};
};
},
{
color = 11;
glyphname = grave;
lastChange = "2020-01-10 19:30:18 +0000";
layers = (
{
layerId = "EE8FC948-6E49-42F4-ACA5-5A0A3F8AB331";
paths = (
{
closed = 1;
nodes = (
"460 1160 LINE",
"360 1500 LINE",
"120 1500 LINE",
"400 1160 LINE"
);
}
);
width = 580;
},
{
layerId = "27D48214-71DC-4330-B979-784A7B16B611";
width = 1200;
}
);
unicode = 0060;
userData = {
com.fontlab.hintData = {
hhints = (
{
position = 580;
width = 170;
}
);
vhints = (
{
position = 60;
width = 170;
}
);
};
};
},
{
color = 11;
glyphname = a;
lastChange = "2020-01-10 19:30:18 +0000";
layers = (
{
anchors = (
{
name = "Anchor-1";
position = "{460, 1160}";
},
{
name = Anchor1;
position = "{460, 1160}";
}
);
layerId = "EE8FC948-6E49-42F4-ACA5-5A0A3F8AB331";
paths = (
{
closed = 1;
nodes = (
"844 -30 OFFCURVE",
"914 6 OFFCURVE",
"944 86 CURVE",
"910 120 LINE",
"894 104 OFFCURVE",
"880 100 OFFCURVE",
"860 100 CURVE SMOOTH",
"840 100 OFFCURVE",
"820 110 OFFCURVE",
"820 160 CURVE SMOOTH",
"820 710 LINE SMOOTH",
"820 896 OFFCURVE",
"720 1000 OFFCURVE",
"520 1000 CURVE SMOOTH",
"286 1000 OFFCURVE",
"154 868 OFFCURVE",
"154 758 CURVE SMOOTH",
"154 704 OFFCURVE",
"168 636 OFFCURVE",
"228 636 CURVE SMOOTH",
"268 636 OFFCURVE",
"346 682 OFFCURVE",
"346 726 CURVE SMOOTH",
"346 764 OFFCURVE",
"316 778 OFFCURVE",
"316 826 CURVE SMOOTH",
"316 884 OFFCURVE",
"392 922 OFFCURVE",
"470 922 CURVE SMOOTH",
"556 922 OFFCURVE",
"620 844 OFFCURVE",
"620 730 CURVE SMOOTH",
"620 150 LINE SMOOTH",
"620 30 OFFCURVE",
"672 -30 OFFCURVE",
"792 -30 CURVE SMOOTH"
);
},
{
closed = 1;
nodes = (
"476 -40 OFFCURVE",
"642 60 OFFCURVE",
"700 194 CURVE",
"700 278 LINE",
"646 194 OFFCURVE",
"532 120 OFFCURVE",
"460 120 CURVE SMOOTH",
"340 120 OFFCURVE",
"310 170 OFFCURVE",
"310 260 CURVE SMOOTH",
"310 352 OFFCURVE",
"402 436 OFFCURVE",
"700 512 CURVE",
"700 596 LINE",
"408 528 OFFCURVE",
"110 428 OFFCURVE",
"110 200 CURVE SMOOTH",
"110 70 OFFCURVE",
"200 -40 OFFCURVE",
"360 -40 CURVE SMOOTH"
);
}
);
width = 1020;
},
{
layerId = "27D48214-71DC-4330-B979-784A7B16B611";
width = 1200;
}
);
unicode = 0061;
userData = {
com.fontlab.hintData = {
hhints = (
{
position = -20;
width = 70;
},
{
position = 465;
width = 35;
}
);
vhints = (
{
position = 40;
width = 105;
},
{
position = 70;
width = 88;
},
{
position = 310;
width = 100;
}
);
};
com.typemytype.robofont.mark = (
1,
1,
0,
1
);
};
},
{
color = 11;
glyphname = b;
lastChange = "2020-01-10 19:30:18 +0000";
layers = (
{
layerId = "EE8FC948-6E49-42F4-ACA5-5A0A3F8AB331";
paths = (
{
closed = 1;
nodes = (
"900 -40 OFFCURVE",
"1070 220 OFFCURVE",
"1070 500 CURVE SMOOTH",
"1070 760 OFFCURVE",
"960 1000 OFFCURVE",
"660 1000 CURVE SMOOTH",
"510 1000 OFFCURVE",
"420 920 OFFCURVE",
"360 840 CURVE",
"340 840 LINE",
"340 1500 LINE",
"220 1500 LINE",
"20 1440 LINE",
"20 1390 LINE",
"100 1350 LINE SMOOTH",
"120 1340 OFFCURVE",
"140 1330 OFFCURVE",
"140 1300 CURVE SMOOTH",
"140 0 LINE",
"180 -20 LINE",
"300 40 LINE",
"380 -10 OFFCURVE",
"480 -40 OFFCURVE",
"600 -40 CURVE SMOOTH"
);
},
{
closed = 1;
nodes = (
"380 50 OFFCURVE",
"340 180 OFFCURVE",
"340 280 CURVE SMOOTH",
"340 580 LINE SMOOTH",
"340 760 OFFCURVE",
"400 860 OFFCURVE",
"540 860 CURVE SMOOTH",
"760 860 OFFCURVE",
"850 680 OFFCURVE",
"850 480 CURVE SMOOTH",
"850 120 OFFCURVE",
"700 50 OFFCURVE",
"560 50 CURVE SMOOTH"
);
}
);
width = 1150;
},
{
layerId = "27D48214-71DC-4330-B979-784A7B16B611";
width = 1200;
}
);
unicode = 0062;
userData = {
com.fontlab.hintData = {
hhints = (
{
position = -20;
width = 45;
},
{
position = -10;
width = 21;
},
{
position = 430;
width = 70;
},
{
position = 730;
width = 20;
}
);
vhints = (
{
position = 70;
width = 100;
},
{
position = 425;
width = 110;
}
);
};
};
},
{
color = 11;
glyphname = c;
lastChange = "2020-01-10 19:30:18 +0000";
layers = (
{
anchors = (
{
name = "Anchor-0";
position = "{460, 0}";
},
{
name = "Anchor-1";
position = "{510, 1160}";
},
{
name = Anchor0;
position = "{460, 0}";
},
{
name = Anchor1;
position = "{510, 1160}";
}
);
layerId = "EE8FC948-6E49-42F4-ACA5-5A0A3F8AB331";
paths = (
{
closed = 1;
nodes = (
"720 -30 OFFCURVE",
"840 90 OFFCURVE",
"910 180 CURVE",
"870 220 LINE",
"820 170 OFFCURVE",
"700 110 OFFCURVE",
"610 110 CURVE SMOOTH",
"450 110 OFFCURVE",
"300 240 OFFCURVE",
"300 550 CURVE SMOOTH",
"300 810 OFFCURVE",
"440 910 OFFCURVE",
"540 910 CURVE SMOOTH",
"620 910 OFFCURVE",
"670 850 OFFCURVE",
"670 760 CURVE SMOOTH",
"670 670 LINE",
"700 650 OFFCURVE",
"738 640 OFFCURVE",
"780 640 CURVE SMOOTH",
"840 640 OFFCURVE",
"890 680 OFFCURVE",
"890 760 CURVE SMOOTH",
"890 920 OFFCURVE",
"740 990 OFFCURVE",
"560 990 CURVE SMOOTH",
"310 990 OFFCURVE",
"80 790 OFFCURVE",
"80 470 CURVE SMOOTH",
"80 120 OFFCURVE",
"286 -30 OFFCURVE",
"510 -30 CURVE SMOOTH"
);
}
);
width = 950;
},
{
layerId = "27D48214-71DC-4330-B979-784A7B16B611";
width = 1200;
}
);
unicode = 0063;
userData = {
com.fontlab.hintData = {
hhints = (
{
position = -15;
width = 70;
},
{
position = 455;
width = 40;
}
);
vhints = (
{
position = 40;
width = 110;
},
{
position = 335;
width = 110;
}
);
};
};
},
{
color = 11;
glyphname = d;
lastChange = "2020-01-10 19:30:18 +0000";
layers = (
{
layerId = "EE8FC948-6E49-42F4-ACA5-5A0A3F8AB331";
paths = (
{
closed = 1;
nodes = (
"670 -40 OFFCURVE",
"780 50 OFFCURVE",
"810 120 CURVE",
"810 -30 LINE",
"860 -30 LINE",
"1122 24 LINE",
"1122 74 LINE",
"1050 74 OFFCURVE",
"1010 109 OFFCURVE",
"1010 156 CURVE SMOOTH",
"1010 1054 LINE",
"1010 1500 LINE",
"890 1500 LINE",
"690 1440 LINE",
"690 1390 LINE",
"770 1350 LINE SMOOTH",
"790 1340 OFFCURVE",
"810 1330 OFFCURVE",
"810 1300 CURVE SMOOTH",
"810 1054 LINE",
"810 951 LINE",
"733 978 OFFCURVE",
"644 1000 OFFCURVE",
"550 1000 CURVE SMOOTH",
"250 1000 OFFCURVE",
"80 740 OFFCURVE",
"80 460 CURVE SMOOTH",
"80 200 OFFCURVE",
"230 -40 OFFCURVE",
"530 -40 CURVE SMOOTH"
);
},
{
closed = 1;
nodes = (
"390 100 OFFCURVE",
"300 280 OFFCURVE",
"300 480 CURVE SMOOTH",
"300 840 OFFCURVE",
"450 910 OFFCURVE",
"590 910 CURVE SMOOTH",
"726 910 OFFCURVE",
"788 836 OFFCURVE",
"810 756 CURVE SMOOTH",
"817 730 OFFCURVE",
"820 704 OFFCURVE",
"820 680 CURVE SMOOTH",
"820 480 LINE SMOOTH",
"820 220 OFFCURVE",
"750 100 OFFCURVE",
"610 100 CURVE SMOOTH"
);
}
);
width = 1170;
},
{
layerId = "27D48214-71DC-4330-B979-784A7B16B611";
width = 1200;
}
);
unicode = 0064;
userData = {
com.fontlab.hintData = {
hhints = (
{
position = -20;
width = 70;
},
{
position = 12;
width = 25;
},
{
position = 455;
width = 45;
},
{
position = 730;
width = 20;
}
);
vhints = (
{
position = 40;
width = 110;
},
{
position = 405;
width = 100;
}
);
};
};
},
{
color = 11;
glyphname = e;
lastChange = "2020-01-10 19:30:18 +0000";
layers = (
{
anchors = (
{
name = "Anchor-1";
position = "{494, 1200}";
},
{
name = Anchor1;
position = "{494, 1200}";
}
);
layerId = "EE8FC948-6E49-42F4-ACA5-5A0A3F8AB331";
paths = (
{
closed = 1;
nodes = (
"714 -30 OFFCURVE",
"834 90 OFFCURVE",
"904 180 CURVE",
"864 220 LINE",
"814 170 OFFCURVE",
"694 110 OFFCURVE",
"604 110 CURVE SMOOTH",
"414 110 OFFCURVE",
"284 240 OFFCURVE",
"284 550 CURVE SMOOTH",
"284 550 OFFCURVE",
"284 552 OFFCURVE",
"284 552 CURVE SMOOTH",
"900 552 LINE",
"900 594 LINE SMOOTH",
"900 786 OFFCURVE",
"784 990 OFFCURVE",
"514 990 CURVE SMOOTH",
"284 990 OFFCURVE",
"64 790 OFFCURVE",
"64 468 CURVE SMOOTH",
"64 120 OFFCURVE",
"280 -30 OFFCURVE",
"504 -30 CURVE SMOOTH"
);
},
{
closed = 1;
nodes = (
"308 834 OFFCURVE",
"392 910 OFFCURVE",
"514 910 CURVE SMOOTH",
"654 910 OFFCURVE",
"712 808 OFFCURVE",
"708 640 CURVE",
"288 640 LINE"
);
}
);
width = 984;
},
{
layerId = "27D48214-71DC-4330-B979-784A7B16B611";
width = 1200;
}
);
leftMetricsKey = "=o";
unicode = 0065;
userData = {
com.fontlab.hintData = {
hhints = (
{
position = -15;
width = 70;
},
{
position = 276;
width = 44;
},
{
position = 455;
width = 40;
}
);
vhints = (
{
position = 35;
width = 110;
},
{
position = 350;
width = 110;
}
);
};
};
},
{
color = 11;
glyphname = f;
lastChange = "2020-01-10 19:31:30 +0000";
layers = (
{
layerId = "EE8FC948-6E49-42F4-ACA5-5A0A3F8AB331";
paths = (
{
closed = 1;
nodes = (
"560 0 LINE",
"560 50 LINE",
"460 70 OFFCURVE",
"420 110 OFFCURVE",
"420 190 CURVE",
"420 1100 LINE SMOOTH",
"420 1324 OFFCURVE",
"500 1400 OFFCURVE",
"570 1400 CURVE SMOOTH",
"660 1400 OFFCURVE",
"680 1280 OFFCURVE",
"760 1280 CURVE SMOOTH",
"802 1280 OFFCURVE",
"866 1334 OFFCURVE",
"866 1400 CURVE SMOOTH",
"866 1468 OFFCURVE",
"784 1510 OFFCURVE",
"680 1510 CURVE SMOOTH",
"352 1510 OFFCURVE",
"250 1238 OFFCURVE",
"250 1078 CURVE SMOOTH",
"250 994 OFFCURVE",
"200 950 OFFCURVE",
"100 930 CURVE",
"100 880 LINE",
"220 880 LINE",
"220 190 LINE SMOOTH",
"220 110 OFFCURVE",
"180 70 OFFCURVE",
"80 50 CURVE",
"80 0 LINE"
);
},
{
closed = 1;
nodes = (
"590 900 LINE",
"590 960 LINE",
"326 960 LINE",
"326 880 LINE"
);
}
);
width = 666;
},
{
layerId = "27D48214-71DC-4330-B979-784A7B16B611";
width = 600;
}
);
unicode = 0066;
userData = {
com.fontlab.hintData = {
hhints = (
{
position = 0;
width = 30;
},
{
position = 440;
width = 20;
},
{
position = 440;
width = 30;
},
{
position = 710;
width = 50;
}
);
vhints = (
{
position = 110;
width = 100;
},
{
position = 120;
width = 90;
}
);
};
com.typemytype.robofont.mark = (
1,
1,
0,
1
);
};
},
{
color = 11;
glyphname = g;
lastChange = "2020-01-10 19:30:18 +0000";
layers = (
{
layerId = "EE8FC948-6E49-42F4-ACA5-5A0A3F8AB331";
paths = (
{
closed = 1;
nodes = (
"710 -520 OFFCURVE",
"1010 -420 OFFCURVE",
"1010 -140 CURVE SMOOTH",
"1010 20 OFFCURVE",
"850 130 OFFCURVE",
"530 130 CURVE SMOOTH",
"330 130 OFFCURVE",
"270 200 OFFCURVE",
"270 240 CURVE SMOOTH",
"270 262 OFFCURVE",
"282 286 OFFCURVE",
"308 320 CURVE",
"358 300 OFFCURVE",
"418 290 OFFCURVE",
"490 290 CURVE SMOOTH",
"738 290 OFFCURVE",
"890 432 OFFCURVE",
"890 640 CURVE SMOOTH",
"890 718 OFFCURVE",
"862 786 OFFCURVE",
"820 840 CURVE",
"820 840 LINE",
"1010 790 LINE",
"1070 810 LINE",
"1070 960 LINE",
"736 918 LINE",
"662 970 OFFCURVE",
"572 1000 OFFCURVE",
"490 1000 CURVE SMOOTH",
"232 1000 OFFCURVE",
"90 858 OFFCURVE",
"90 660 CURVE SMOOTH",
"90 546 OFFCURVE",
"132 426 OFFCURVE",
"240 354 CURVE",
"190 306 OFFCURVE",
"120 232 OFFCURVE",
"120 180 CURVE SMOOTH",
"120 96 OFFCURVE",
"196 20 OFFCURVE",
"276 -18 CURVE",
"200 -66 OFFCURVE",
"50 -172 OFFCURVE",
"50 -240 CURVE SMOOTH",
"50 -466 OFFCURVE",
"242 -520 OFFCURVE",
"530 -520 CURVE SMOOTH"
);
},
{
closed = 1;
nodes = (
"380 -440 OFFCURVE",
"220 -364 OFFCURVE",
"220 -220 CURVE SMOOTH",
"220 -150 OFFCURVE",
"370 -40 OFFCURVE",
"370 -40 CURVE",
"670 -40 OFFCURVE",
"820 -80 OFFCURVE",
"820 -240 CURVE SMOOTH",
"820 -346 OFFCURVE",
"750 -440 OFFCURVE",
"570 -440 CURVE SMOOTH"
);
},
{
closed = 1;
nodes = (
"392 360 OFFCURVE",
"300 458 OFFCURVE",
"300 660 CURVE SMOOTH",
"300 770 OFFCURVE",
"332 930 OFFCURVE",
"490 930 CURVE SMOOTH",
"592 930 OFFCURVE",
"680 842 OFFCURVE",
"680 640 CURVE SMOOTH",
"680 528 OFFCURVE",
"642 360 OFFCURVE",
"490 360 CURVE SMOOTH"
);
}
);
width = 1090;
},
{
layerId = "27D48214-71DC-4330-B979-784A7B16B611";
width = 1200;
}
);
unicode = 0067;
userData = {
com.fontlab.hintData = {
hhints = (
{
position = -260;
width = 40;
},
{
position = -20;
width = 85;
},
{
position = 145;
width = 35;
},
{
position = 395;
width = 85;
},
{
position = 465;
width = 35;
}
);
vhints = (
{
position = 30;
width = 85;
},
{
position = 50;
width = 105;
},
{
position = 65;
width = 75;
},
{
position = 345;
width = 105;
},
{
position = 415;
width = 95;
}
);
};
};
},
{
color = 11;
glyphname = h;
lastChange = "2020-01-10 19:30:18 +0000";
layers = (
{
layerId = "EE8FC948-6E49-42F4-ACA5-5A0A3F8AB331";
paths = (
{
closed = 1;
nodes = (
"1128 0 LINE",
"1128 50 LINE",
"1028 70 OFFCURVE",
"988 110 OFFCURVE",
"988 190 CURVE SMOOTH",
"988 640 LINE SMOOTH",
"988 880 OFFCURVE",
"900 980 OFFCURVE",
"688 980 CURVE SMOOTH",
"572 980 OFFCURVE",
"458 916 OFFCURVE",
"362 852 CURVE",
"436 880 LINE",
"284 880 LINE",
"284 774 LINE",
"388 774 LINE",
"440 812 OFFCURVE",
"530 860 OFFCURVE",
"608 860 CURVE SMOOTH",
"744 860 OFFCURVE",
"788 780 OFFCURVE",
"788 660 CURVE SMOOTH",
"788 190 LINE SMOOTH",
"788 110 OFFCURVE",
"748 70 OFFCURVE",
"648 50 CURVE",
"648 0 LINE"
);
},
{
closed = 1;
nodes = (
"528 0 LINE",
"528 50 LINE",
"428 70 OFFCURVE",
"388 110 OFFCURVE",
"388 190 CURVE SMOOTH",
"388 774 LINE",
"380 880 LINE",
"380 1480 LINE",
"320 1500 LINE",
"68 1420 LINE",
"68 1380 LINE",
"188 1320 LINE",
"188 190 LINE SMOOTH",
"188 110 OFFCURVE",
"148 70 OFFCURVE",
"48 50 CURVE",
"48 0 LINE"
);
}
);
width = 1180;
},
{
layerId = "27D48214-71DC-4330-B979-784A7B16B611";
width = 1200;
}
);
rightMetricsKey = "=n";
unicode = 0068;
userData = {
com.fontlab.hintData = {
hhints = (
{
position = 0;
width = 25;
},
{
position = 430;
width = 60;
},
{
position = 730;
width = 20;
}
);
vhints = (
{
position = 95;
width = 100;
},
{
position = 395;
width = 100;
}
);
};
com.typemytype.robofont.mark = (
1,
1,
0,
1
);
};
},
{
color = 11;
glyphname = i;
lastChange = "2020-01-10 19:30:18 +0000";
layers = (
{
components = (
{
name = _serif;
transform = "{1, 0, 0, 1, -8, 0}";
}
);
layerId = "EE8FC948-6E49-42F4-ACA5-5A0A3F8AB331";
paths = (
{
closed = 1;
nodes = (
"396 20 LINE",
"396 980 LINE",
"336 1000 LINE",
"76 900 LINE",
"76 860 LINE",
"196 800 LINE",
"196 20 LINE SMOOTH"
);
},
{
closed = 1;
nodes = (
"346 1268 OFFCURVE",
"420 1344 OFFCURVE",
"420 1400 QCURVE SMOOTH",
"420 1456 OFFCURVE",
"346 1532 OFFCURVE",
"288 1532 QCURVE SMOOTH",
"230 1532 OFFCURVE",
"156 1456 OFFCURVE",
"156 1400 QCURVE SMOOTH",
"156 1344 OFFCURVE",
"230 1268 OFFCURVE",
"288 1268 QCURVE SMOOTH"
);
}
);
width = 576;
},
{
layerId = "27D48214-71DC-4330-B979-784A7B16B611";
width = 1200;
}
);
unicode = 0069;
userData = {
com.fontlab.hintData = {
hhints = (
{
position = 0;
width = 25;
},
{
position = 635;
width = 130;
}
);
vhints = (
{
position = 80;
width = 130;
},
{
position = 100;
width = 100;
}
);
};
com.typemytype.robofont.mark = (
1,
1,
0,
1
);
};
},
{
color = 11;
glyphname = j;
lastChange = "2020-01-10 19:31:30 +0000";
layers = (
{
layerId = "EE8FC948-6E49-42F4-ACA5-5A0A3F8AB331";
paths = (
{
closed = 1;
nodes = (
"260 -230 OFFCURVE",
"370 -100 OFFCURVE",
"370 100 CURVE SMOOTH",
"370 980 LINE",
"310 1000 LINE",
"50 900 LINE",
"50 860 LINE",
"170 800 LINE",
"170 150 LINE SMOOTH",
"170 -50 OFFCURVE",
"160 -150 OFFCURVE",
"20 -330 CURVE",
"60 -370 LINE"
);
},
{
closed = 1;
nodes = (
"340 1270 OFFCURVE",
"390 1330 OFFCURVE",
"390 1400 CURVE SMOOTH",
"390 1470 OFFCURVE",
"340 1530 OFFCURVE",
"260 1530 CURVE SMOOTH",
"180 1530 OFFCURVE",
"130 1470 OFFCURVE",
"130 1400 CURVE SMOOTH",
"130 1330 OFFCURVE",
"180 1270 OFFCURVE",
"260 1270 CURVE SMOOTH"
);
}
);
width = 490;
},
{
layerId = "27D48214-71DC-4330-B979-784A7B16B611";
width = 600;
}
);
unicode = 006A;
userData = {
com.fontlab.hintData = {
hhints = (
{
position = 635;
width = 130;
}
);
vhints = (
{
position = 65;
width = 130;
},
{
position = 85;
width = 100;
}
);
};
com.typemytype.robofont.mark = (
1,
1,
0,
1
);
};
},
{
color = 11;
glyphname = k;
lastChange = "2020-01-10 19:31:30 +0000";
layers = (
{
layerId = "EE8FC948-6E49-42F4-ACA5-5A0A3F8AB331";
paths = (
{
closed = 1;
nodes = (
"520 0 LINE",
"520 60 LINE",
"420 70 OFFCURVE",
"380 120 OFFCURVE",
"380 200 CURVE SMOOTH",
"380 460 LINE",
"840 0 LINE",
"1100 0 LINE",
"1100 60 LINE",
"1000 100 OFFCURVE",
"940 160 OFFCURVE",
"540 560 CURVE",
"822 842 OFFCURVE",
"880 880 OFFCURVE",
"1000 920 CURVE",
"1000 960 LINE",
"540 960 LINE",
"540 920 LINE",
"600 900 OFFCURVE",
"620 880 OFFCURVE",
"620 840 CURVE SMOOTH",
"620 780 OFFCURVE",
"600 760 OFFCURVE",
"380 540 CURVE",
"380 1480 LINE",
"320 1500 LINE",
"60 1420 LINE",
"60 1380 LINE",
"180 1320 LINE",
"180 200 LINE SMOOTH",
"180 120 OFFCURVE",
"140 70 OFFCURVE",
"40 60 CURVE",
"40 0 LINE"
);
}
);
width = 1110;
},
{
layerId = "27D48214-71DC-4330-B979-784A7B16B611";
width = 600;
}
);
unicode = 006B;
userData = {
com.fontlab.hintData = {
hhints = (
{
position = 0;
width = 30;
},
{
position = 460;
width = 20;
},
{
position = 730;
width = 20;
}
);
vhints = (
{
position = 90;
width = 100;
}
);
};
};
},
{
color = 11;
glyphname = l;
lastChange = "2020-01-10 19:31:30 +0000";
layers = (
{
layerId = "EE8FC948-6E49-42F4-ACA5-5A0A3F8AB331";
paths = (
{
closed = 1;
nodes = (
"516 0 LINE",
"516 60 LINE",
"416 80 OFFCURVE",
"376 120 OFFCURVE",
"376 200 CURVE SMOOTH",
"376 1480 LINE",
"316 1500 LINE",
"56 1420 LINE",
"56 1380 LINE",
"176 1320 LINE",
"176 200 LINE SMOOTH",
"176 120 OFFCURVE",
"136 80 OFFCURVE",
"36 60 CURVE",
"36 0 LINE"
);
}
);
width = 544;
},
{
layerId = "27D48214-71DC-4330-B979-784A7B16B611";
width = 600;
}
);
unicode = 006C;
userData = {
com.fontlab.hintData = {
hhints = (
{
position = 0;
width = 30;
},
{
position = 730;
width = 20;
}
);
vhints = (
{
position = 90;
width = 100;
}
);
};
com.typemytype.robofont.mark = (
1,
1,
0,
1
);
};
},
{
color = 11;
glyphname = m;
lastChange = "2020-01-10 19:31:30 +0000";
layers = (
{
layerId = "EE8FC948-6E49-42F4-ACA5-5A0A3F8AB331";
paths = (
{
closed = 1;
nodes = (
"1728 0 LINE",
"1728 50 LINE",
"1628 70 OFFCURVE",
"1588 110 OFFCURVE",
"1588 190 CURVE SMOOTH",
"1588 640 LINE SMOOTH",
"1588 880 OFFCURVE",
"1500 980 OFFCURVE",
"1288 980 CURVE SMOOTH",
"1172 980 OFFCURVE",
"998 896 OFFCURVE",
"902 832 CURVE",
"1036 870 LINE",
"884 870 LINE",
"884 754 LINE",
"948 754 LINE",
"1000 792 OFFCURVE",
"1130 860 OFFCURVE",
"1208 860 CURVE SMOOTH",
"1344 860 OFFCURVE",
"1388 780 OFFCURVE",
"1388 660 CURVE SMOOTH",
"1388 190 LINE SMOOTH",
"1388 110 OFFCURVE",
"1348 70 OFFCURVE",
"1248 50 CURVE",
"1248 0 LINE"
);
},
{
closed = 1;
nodes = (
"528 0 LINE",
"528 50 LINE",
"428 70 OFFCURVE",
"388 110 OFFCURVE",
"388 190 CURVE SMOOTH",
"388 774 LINE",
"380 880 LINE",
"380 980 LINE",
"320 1000 LINE",
"68 920 LINE",
"68 880 LINE",
"188 820 LINE",
"188 190 LINE SMOOTH",
"188 110 OFFCURVE",
"148 70 OFFCURVE",
"48 50 CURVE",
"48 0 LINE"
);
},
{
closed = 1;
nodes = (
"1128 0 LINE",
"1128 50 LINE",
"1028 70 OFFCURVE",
"988 110 OFFCURVE",
"988 190 CURVE SMOOTH",
"988 640 LINE SMOOTH",
"988 880 OFFCURVE",
"900 980 OFFCURVE",
"688 980 CURVE SMOOTH",
"572 980 OFFCURVE",
"458 916 OFFCURVE",
"362 852 CURVE",
"436 880 LINE",
"284 880 LINE",
"284 774 LINE",
"388 774 LINE",
"440 812 OFFCURVE",
"530 860 OFFCURVE",
"608 860 CURVE SMOOTH",
"744 860 OFFCURVE",
"788 780 OFFCURVE",
"788 660 CURVE SMOOTH",
"788 190 LINE SMOOTH",
"788 110 OFFCURVE",
"748 70 OFFCURVE",
"648 50 CURVE",
"648 0 LINE"
);
}
);
width = 1760;
},
{
layerId = "27D48214-71DC-4330-B979-784A7B16B611";
width = 600;
}
);
unicode = 006D;
userData = {
com.fontlab.hintData = {
hhints = (
{
position = 0;
width = 30;
},
{
position = 430;
width = 60;
}
);
vhints = (
{
position = 100;
width = 100;
},
{
position = 400;
width = 100;
},
{
position = 700;
width = 100;
}
);
};
com.typemytype.robofont.mark = (
1,
1,
0,
1
);
};
},
{
color = 11;
glyphname = n;
lastChange = "2020-01-10 19:30:18 +0000";
layers = (
{
layerId = "EE8FC948-6E49-42F4-ACA5-5A0A3F8AB331";
paths = (
{
closed = 1;
nodes = (
"1128 0 LINE",
"1128 50 LINE",
"1028 70 OFFCURVE",
"988 110 OFFCURVE",
"988 190 CURVE SMOOTH",
"988 640 LINE SMOOTH",
"988 880 OFFCURVE",
"900 980 OFFCURVE",
"688 980 CURVE SMOOTH",
"572 980 OFFCURVE",
"458 916 OFFCURVE",
"362 852 CURVE",
"436 880 LINE",
"284 880 LINE",
"284 774 LINE",
"388 774 LINE",
"440 812 OFFCURVE",
"530 860 OFFCURVE",
"608 860 CURVE SMOOTH",
"744 860 OFFCURVE",
"788 780 OFFCURVE",
"788 660 CURVE SMOOTH",
"788 190 LINE SMOOTH",
"788 110 OFFCURVE",
"748 70 OFFCURVE",
"648 50 CURVE",
"648 0 LINE"
);
},
{
closed = 1;
nodes = (
"528 0 LINE",
"528 50 LINE",
"428 70 OFFCURVE",
"388 110 OFFCURVE",
"388 190 CURVE SMOOTH",
"388 774 LINE",
"380 880 LINE",
"380 980 LINE",
"320 1000 LINE",
"68 920 LINE",
"68 880 LINE",
"188 820 LINE",
"188 190 LINE SMOOTH",
"188 110 OFFCURVE",
"148 70 OFFCURVE",
"48 50 CURVE",
"48 0 LINE"
);
}
);
width = 1180;
},
{
layerId = "27D48214-71DC-4330-B979-784A7B16B611";
width = 1200;
}
);
unicode = 006E;
userData = {
com.fontlab.hintData = {
hhints = (
{
position = 0;
width = 30;
},
{
position = 435;
width = 60;
}
);
vhints = (
{
position = 100;
width = 100;
},
{
position = 410;
width = 100;
}
);
};
com.typemytype.robofont.mark = (
1,
1,
0,
1
);
};
},
{
color = 11;
glyphname = o;
lastChange = "2020-01-10 19:30:18 +0000";
layers = (
{
anchors = (
{
name = Anchor1;
position = "{548, 1160}";
}
);
layerId = "EE8FC948-6E49-42F4-ACA5-5A0A3F8AB331";
paths = (
{
closed = 1;
nodes = (
"834 -30 OFFCURVE",
"1034 170 OFFCURVE",
"1034 490 CURVE SMOOTH",
"1034 830 OFFCURVE",
"804 990 OFFCURVE",
"564 990 CURVE SMOOTH",
"254 990 OFFCURVE",
"64 760 OFFCURVE",
"64 470 CURVE SMOOTH",
"64 130 OFFCURVE",
"304 -30 OFFCURVE",
"534 -30 CURVE SMOOTH"
);
},
{
closed = 1;
nodes = (
"414 50 OFFCURVE",
"284 170 OFFCURVE",
"284 500 CURVE SMOOTH",
"284 670 OFFCURVE",
"334 910 OFFCURVE",
"544 910 CURVE SMOOTH",
"684 910 OFFCURVE",
"814 780 OFFCURVE",
"814 460 CURVE SMOOTH",
"814 280 OFFCURVE",
"774 50 OFFCURVE",
"554 50 CURVE SMOOTH"
);
}
);
width = 1098;
},
{
layerId = "27D48214-71DC-4330-B979-784A7B16B611";
width = 1200;
}
);
unicode = 006F;
userData = {
com.fontlab.hintData = {
hhints = (
{
position = -15;
width = 40;
},
{
position = 455;
width = 40;
}
);
vhints = (
{
position = 40;
width = 110;
},
{
position = 415;
width = 110;
}
);
};
com.typemytype.robofont.mark = (
1,
1,
0,
1
);
};
},
{
color = 11;
glyphname = p;
lastChange = "2020-01-10 19:31:30 +0000";
layers = (
{
layerId = "EE8FC948-6E49-42F4-ACA5-5A0A3F8AB331";
paths = (
{
closed = 1;
nodes = (
"140 -440 LINE",
"340 -440 LINE",
"480 -440 LINE",
"480 -380 LINE",
"380 -360 OFFCURVE",
"340 -320 OFFCURVE",
"340 -240 CURVE SMOOTH",
"340 -124 LINE SMOOTH",
"340 -68 OFFCURVE",
"334 -20 OFFCURVE",
"320 26 CURVE",
"340 36 LINE",
"380 4 OFFCURVE",
"472 -40 OFFCURVE",
"600 -40 CURVE SMOOTH",
"900 -40 OFFCURVE",
"1070 220 OFFCURVE",
"1070 500 CURVE SMOOTH",
"1070 760 OFFCURVE",
"960 1000 OFFCURVE",
"660 1000 CURVE SMOOTH",
"510 1000 OFFCURVE",
"420 920 OFFCURVE",
"360 840 CURVE",
"340 840 LINE",
"340 996 LINE",
"220 996 LINE",
"20 936 LINE",
"20 886 LINE",
"100 846 LINE SMOOTH",
"120 836 OFFCURVE",
"140 826 OFFCURVE",
"140 796 CURVE SMOOTH",
"140 -240 LINE SMOOTH",
"140 -320 OFFCURVE",
"100 -360 OFFCURVE",
"0 -380 CURVE",
"0 -440 LINE"
);
},
{
closed = 1;
nodes = (
"380 50 OFFCURVE",
"340 180 OFFCURVE",
"340 280 CURVE SMOOTH",
"340 580 LINE SMOOTH",
"340 760 OFFCURVE",
"400 860 OFFCURVE",
"540 860 CURVE SMOOTH",
"760 860 OFFCURVE",
"850 680 OFFCURVE",
"850 480 CURVE SMOOTH",
"850 120 OFFCURVE",
"700 50 OFFCURVE",
"560 50 CURVE SMOOTH"
);
}
);
width = 1150;
},
{
layerId = "27D48214-71DC-4330-B979-784A7B16B611";
width = 600;
}
);
unicode = 0070;
userData = {
com.fontlab.hintData = {
hhints = (
{
position = -220;
width = 30;
},
{
position = -220;
width = 100;
},
{
position = -20;
width = 45;
},
{
position = 430;
width = 70;
}
);
vhints = (
{
position = 70;
width = 100;
},
{
position = 425;
width = 110;
}
);
};
};
},
{
color = 11;
glyphname = q;
lastChange = "2020-01-10 19:30:18 +0000";
layers = (
{
layerId = "EE8FC948-6E49-42F4-ACA5-5A0A3F8AB331";
paths = (
{
closed = 1;
nodes = (
"1150 -440 LINE",
"1150 -380 LINE",
"1050 -360 OFFCURVE",
"1010 -320 OFFCURVE",
"1010 -240 CURVE SMOOTH",
"1010 960 LINE",
"946 1000 LINE",
"830 943 LINE",
"810 951 LINE SMOOTH",
"733 978 OFFCURVE",
"644 1000 OFFCURVE",
"550 1000 CURVE SMOOTH",
"250 1000 OFFCURVE",
"80 740 OFFCURVE",
"80 460 CURVE SMOOTH",
"80 200 OFFCURVE",
"230 -40 OFFCURVE",
"530 -40 CURVE SMOOTH",
"670 -40 OFFCURVE",
"780 50 OFFCURVE",
"810 120 CURVE",
"830 110 LINE",
"810 50 OFFCURVE",
"810 0 OFFCURVE",
"810 -40 CURVE SMOOTH",
"810 -240 LINE SMOOTH",
"810 -320 OFFCURVE",
"770 -360 OFFCURVE",
"670 -380 CURVE",
"670 -440 LINE"
);
},
{
closed = 1;
nodes = (
"390 100 OFFCURVE",
"300 280 OFFCURVE",
"300 480 CURVE SMOOTH",
"300 840 OFFCURVE",
"450 910 OFFCURVE",
"590 910 CURVE SMOOTH",
"726 910 OFFCURVE",
"788 836 OFFCURVE",
"810 756 CURVE SMOOTH",
"817 730 OFFCURVE",
"820 704 OFFCURVE",
"820 680 CURVE SMOOTH",
"820 480 LINE SMOOTH",
"820 220 OFFCURVE",
"750 100 OFFCURVE",
"610 100 CURVE SMOOTH"
);
}
);
width = 1170;
},
{
layerId = "27D48214-71DC-4330-B979-784A7B16B611";
width = 1200;
}
);
unicode = 0071;
userData = {
com.fontlab.hintData = {
hhints = (
{
position = -220;
width = 30;
},
{
position = -20;
width = 70;
},
{
position = 455;
width = 45;
}
);
vhints = (
{
position = 40;
width = 110;
},
{
position = 405;
width = 100;
}
);
};
};
},
{
color = 11;
glyphname = r;
lastChange = "2020-01-10 19:30:18 +0000";
layers = (
{
layerId = "EE8FC948-6E49-42F4-ACA5-5A0A3F8AB331";
paths = (
{
closed = 1;
nodes = (
"580 0 LINE",
"580 50 LINE",
"480 70 OFFCURVE",
"400 110 OFFCURVE",
"400 190 CURVE SMOOTH",
"400 692 LINE",
"392 790 LINE",
"392 980 LINE",
"332 1000 LINE",
"80 890 LINE",
"80 850 LINE",
"200 790 LINE",
"200 190 LINE SMOOTH",
"200 110 OFFCURVE",
"160 70 OFFCURVE",
"60 50 CURVE",
"60 0 LINE"
);
},
{
closed = 1;
nodes = (
"782 696 OFFCURVE",
"818 794 OFFCURVE",
"818 826 CURVE SMOOTH",
"818 890 OFFCURVE",
"778 980 OFFCURVE",
"664 980 CURVE SMOOTH",
"548 980 OFFCURVE",
"460 862 OFFCURVE",
"374 762 CURVE",
"448 790 LINE",
"296 790 LINE",
"296 692 LINE",
"400 692 LINE",
"460 764 OFFCURVE",
"486 800 OFFCURVE",
"548 800 CURVE SMOOTH",
"582 800 OFFCURVE",
"600 778 OFFCURVE",
"600 762 CURVE SMOOTH",
"600 724 OFFCURVE",
"638 696 OFFCURVE",
"696 696 CURVE SMOOTH"
);
}
);
width = 858;
},
{
layerId = "27D48214-71DC-4330-B979-784A7B16B611";
width = 1200;
}
);
unicode = 0072;
userData = {
com.fontlab.hintData = {
hhints = (
{
position = 0;
width = 21;
}
);
vhints = (
{
position = 100;
width = 100;
}
);
};
};
},
{
color = 11;
glyphname = s;
lastChange = "2020-01-10 19:30:18 +0000";
layers = (
{
layerId = "EE8FC948-6E49-42F4-ACA5-5A0A3F8AB331";
paths = (
{
closed = 1;
nodes = (
"695 -40 OFFCURVE",
"836 73 OFFCURVE",
"836 258 CURVE SMOOTH",
"836 453 OFFCURVE",
"690 517 OFFCURVE",
"520 578 CURVE SMOOTH",
"381 627 OFFCURVE",
"245 674 OFFCURVE",
"245 758 CURVE SMOOTH",
"245 844 OFFCURVE",
"319 892 OFFCURVE",
"444 892 CURVE SMOOTH",
"582 892 OFFCURVE",
"662 824 OFFCURVE",
"700 670 CURVE",
"766 670 LINE",
"766 899 LINE",
"676 960 OFFCURVE",
"567 990 OFFCURVE",
"439 990 CURVE SMOOTH",
"233 990 OFFCURVE",
"90 876 OFFCURVE",
"90 714 CURVE SMOOTH",
"90 507 OFFCURVE",
"294 423 OFFCURVE",
"452 365 CURVE SMOOTH",
"581 317 OFFCURVE",
"689 288 OFFCURVE",
"689 206 CURVE SMOOTH",
"689 121 OFFCURVE",
"592 58 OFFCURVE",
"456 58 CURVE SMOOTH",
"307 58 OFFCURVE",
"214 148 OFFCURVE",
"189 312 CURVE",
"119 312 LINE",
"119 45 LINE",
"210 -6 OFFCURVE",
"352 -40 OFFCURVE",
"471 -40 CURVE SMOOTH"
);
}
);
width = 926;
},
{
layerId = "27D48214-71DC-4330-B979-784A7B16B611";
width = 1200;
}
);
unicode = 0073;
userData = {
com.fontlab.hintData = {
hhints = (
{
position = -20;
width = 49;
},
{
position = 446;
width = 49;
}
);
vhints = (
{
position = 45;
width = 77;
},
{
position = 60;
width = 35;
},
{
position = 345;
width = 73;
},
{
position = 350;
width = 33;
}
);
};
};
},
{
color = 11;
glyphname = t;
lastChange = "2020-01-10 19:30:18 +0000";
layers = (
{
layerId = "EE8FC948-6E49-42F4-ACA5-5A0A3F8AB331";
paths = (
{
closed = 1;
nodes = (
"500 -40 OFFCURVE",
"540 -30 OFFCURVE",
"620 0 CURVE",
"620 60 LINE",
"530 60 LINE SMOOTH",
"440 60 OFFCURVE",
"380 136 OFFCURVE",
"380 306 CURVE SMOOTH",
"380 880 LINE",
"586 900 LINE",
"586 960 LINE",
"380 960 LINE",
"380 1180 LINE",
"320 1200 LINE",
"270 1080 OFFCURVE",
"240 1000 OFFCURVE",
"20 940 CURVE",
"20 880 LINE",
"180 880 LINE",
"180 226 LINE SMOOTH",
"180 52 OFFCURVE",
"280 -40 OFFCURVE",
"410 -40 CURVE SMOOTH"
);
}
);
width = 660;
},
{
layerId = "27D48214-71DC-4330-B979-784A7B16B611";
width = 1200;
}
);
unicode = 0074;
userData = {
com.fontlab.hintData = {
hhints = (
{
position = -20;
width = 50;
},
{
position = 0;
width = 30;
},
{
position = 440;
width = 40;
},
{
position = 440;
width = 30;
}
);
vhints = (
{
position = 90;
width = 100;
},
{
position = 160;
width = 30;
}
);
};
};
},
{
color = 11;
glyphname = u;
lastChange = "2020-01-10 19:30:18 +0000";
layers = (
{
anchors = (
{
name = "Anchor-1";
position = "{540, 1160}";
},
{
name = Anchor1;
position = "{540, 1160}";
}
);
layerId = "EE8FC948-6E49-42F4-ACA5-5A0A3F8AB331";
paths = (
{
closed = 1;
nodes = (
"170 800 LINE",
"170 280 LINE SMOOTH",
"170 100 OFFCURVE",
"290 -20 OFFCURVE",
"490 -20 CURVE SMOOTH",
"590 -20 OFFCURVE",
"700 58 OFFCURVE",
"770 158 CURVE",
"770 38 OFFCURVE",
"822 -30 OFFCURVE",
"942 -30 CURVE SMOOTH",
"994 -30 OFFCURVE",
"1064 6 OFFCURVE",
"1094 86 CURVE",
"1060 120 LINE",
"1044 104 OFFCURVE",
"1030 100 OFFCURVE",
"1010 100 CURVE SMOOTH",
"990 100 OFFCURVE",
"970 110 OFFCURVE",
"970 160 CURVE SMOOTH",
"970 960 LINE",
"910 980 LINE",
"650 890 LINE",
"650 850 LINE",
"770 800 LINE",
"770 300 LINE SMOOTH",
"770 178 OFFCURVE",
"656 100 OFFCURVE",
"570 100 CURVE SMOOTH",
"440 100 OFFCURVE",
"370 170 OFFCURVE",
"370 300 CURVE SMOOTH",
"370 960 LINE",
"310 980 LINE",
"50 890 LINE",
"50 850 LINE"
);
}
);
width = 1130;
},
{
layerId = "27D48214-71DC-4330-B979-784A7B16B611";
width = 1200;
}
);
unicode = 0075;
userData = {
com.fontlab.hintData = {
hhints = (
{
position = -10;
width = 60;
},
{
position = 450;
width = 30;
}
);
vhints = (
{
position = 85;
width = 100;
},
{
position = 385;
width = 100;
}
);
};
};
},
{
color = 11;
glyphname = v;
lastChange = "2020-01-10 19:30:18 +0000";
layers = (
{
layerId = "EE8FC948-6E49-42F4-ACA5-5A0A3F8AB331";
paths = (
{
closed = 1;
nodes = (
"576 -40 LINE",
"920 790 LINE SMOOTH",
"949 860 OFFCURVE",
"1000 900 OFFCURVE",
"1060 910 CURVE",
"1060 960 LINE",
"680 960 LINE",
"680 910 LINE",
"740 900 OFFCURVE",
"800 860 OFFCURVE",
"800 820 CURVE SMOOTH",
"800 760 OFFCURVE",
"784 720 OFFCURVE",
"744 620 CURVE SMOOTH",
"548 136 LINE",
"586 136 LINE",
"400 620 LINE SMOOTH",
"361 721 OFFCURVE",
"340 760 OFFCURVE",
"340 820 CURVE SMOOTH",
"340 860 OFFCURVE",
"400 900 OFFCURVE",
"460 910 CURVE",
"460 960 LINE",
"-20 960 LINE",
"-20 910 LINE",
"40 900 OFFCURVE",
"82 860 OFFCURVE",
"110 790 CURVE SMOOTH",
"450 -40 LINE"
);
}
);
width = 1040;
},
{
layerId = "27D48214-71DC-4330-B979-784A7B16B611";
width = 1200;
}
);
unicode = 0076;
userData = {
com.fontlab.hintData = {
hhints = (
{
position = 0;
width = 21;
},
{
position = 448;
width = 32;
},
{
position = 455;
width = 25;
}
);
};
};
},
{
color = 11;
glyphname = w;
lastChange = "2020-01-10 19:31:30 +0000";
layers = (
{
layerId = "EE8FC948-6E49-42F4-ACA5-5A0A3F8AB331";
paths = (
{
closed = 1;
nodes = (
"1166 -40 LINE",
"1524 790 LINE SMOOTH",
"1554 860 OFFCURVE",
"1604 900 OFFCURVE",
"1664 910 CURVE",
"1664 960 LINE",
"1284 960 LINE",
"1284 910 LINE",
"1344 900 OFFCURVE",
"1404 860 OFFCURVE",
"1404 820 CURVE SMOOTH",
"1404 760 OFFCURVE",
"1390 720 OFFCURVE",
"1348 620 CURVE SMOOTH",
"1154 156 LINE",
"1182 156 LINE",
"1004 620 LINE SMOOTH",
"966 720 OFFCURVE",
"944 760 OFFCURVE",
"944 820 CURVE SMOOTH",
"944 860 OFFCURVE",
"1004 900 OFFCURVE",
"1064 910 CURVE",
"1064 960 LINE",
"584 960 LINE",
"584 910 LINE",
"644 900 OFFCURVE",
"686 860 OFFCURVE",
"714 790 CURVE SMOOTH",
"1054 -40 LINE"
);
},
{
closed = 1;
nodes = (
"598 -40 LINE",
"868 584 LINE",
"816 704 LINE",
"586 156 LINE",
"614 156 LINE",
"436 620 LINE SMOOTH",
"398 720 OFFCURVE",
"376 760 OFFCURVE",
"376 820 CURVE SMOOTH",
"376 860 OFFCURVE",
"436 900 OFFCURVE",
"496 910 CURVE",
"496 960 LINE",
"16 960 LINE",
"16 910 LINE",
"76 900 OFFCURVE",
"118 860 OFFCURVE",
"146 790 CURVE SMOOTH",
"486 -40 LINE"
);
}
);
width = 1680;
},
{
layerId = "27D48214-71DC-4330-B979-784A7B16B611";
width = 600;
}
);
unicode = 0077;
userData = {
com.fontlab.hintData = {
hhints = (
{
position = 0;
width = 21;
},
{
position = 448;
width = 32;
},
{
position = 455;
width = 25;
}
);
};
};
},
{
color = 11;
glyphname = x;
lastChange = "2020-01-10 19:31:30 +0000";
layers = (
{
layerId = "EE8FC948-6E49-42F4-ACA5-5A0A3F8AB331";
paths = (
{
closed = 1;
nodes = (
"1050 0 LINE",
"1050 50 LINE",
"950 70 OFFCURVE",
"914 100 OFFCURVE",
"860 180 CURVE SMOOTH",
"460 760 LINE SMOOTH",
"432 800 OFFCURVE",
"420 820 OFFCURVE",
"420 840 CURVE SMOOTH",
"420 880 OFFCURVE",
"460 900 OFFCURVE",
"520 910 CURVE",
"520 960 LINE",
"50 960 LINE",
"50 910 LINE",
"110 900 OFFCURVE",
"168 866 OFFCURVE",
"220 790 CURVE SMOOTH",
"610 220 LINE SMOOTH",
"638 180 OFFCURVE",
"660 140 OFFCURVE",
"660 120 CURVE SMOOTH",
"660 80 OFFCURVE",
"630 60 OFFCURVE",
"570 50 CURVE",
"570 0 LINE"
);
},
{
closed = 1;
nodes = (
"400 0 LINE",
"400 50 LINE",
"340 60 OFFCURVE",
"320 80 OFFCURVE",
"320 120 CURVE SMOOTH",
"320 140 OFFCURVE",
"330 170 OFFCURVE",
"360 210 CURVE SMOOTH",
"540 454 LINE",
"500 508 LINE",
"230 180 LINE SMOOTH",
"165 101 OFFCURVE",
"100 70 OFFCURVE",
"20 50 CURVE",
"20 0 LINE"
);
},
{
closed = 1;
nodes = (
"830 790 LINE SMOOTH",
"884 864 OFFCURVE",
"950 900 OFFCURVE",
"1010 910 CURVE",
"1010 960 LINE",
"650 960 LINE",
"650 910 LINE",
"710 900 OFFCURVE",
"740 880 OFFCURVE",
"740 840 CURVE SMOOTH",
"740 820 OFFCURVE",
"728 791 OFFCURVE",
"700 750 CURVE SMOOTH",
"548 528 LINE",
"592 464 LINE"
);
}
);
width = 1070;
},
{
layerId = "27D48214-71DC-4330-B979-784A7B16B611";
width = 600;
}
);
unicode = 0078;
userData = {
com.fontlab.hintData = {
hhints = (
{
position = 0;
width = 25;
},
{
position = 455;
width = 25;
}
);
};
};
},
{
color = 11;
glyphname = y;
lastChange = "2020-01-10 19:31:30 +0000";
layers = (
{
anchors = (
{
name = Anchor1;
position = "{580, 1160}";
}
);
layerId = "EE8FC948-6E49-42F4-ACA5-5A0A3F8AB331";
paths = (
{
closed = 1;
nodes = (
"380 -440 OFFCURVE",
"480 -280 OFFCURVE",
"600 0 CURVE SMOOTH",
"940 790 LINE SMOOTH",
"970 860 OFFCURVE",
"1020 900 OFFCURVE",
"1080 910 CURVE",
"1080 960 LINE",
"700 960 LINE",
"700 910 LINE",
"760 900 OFFCURVE",
"820 860 OFFCURVE",
"820 820 CURVE SMOOTH",
"820 760 OFFCURVE",
"806 719 OFFCURVE",
"764 620 CURVE SMOOTH",
"570 156 LINE",
"590 156 LINE",
"412 620 LINE SMOOTH",
"373 721 OFFCURVE",
"352 760 OFFCURVE",
"352 820 CURVE SMOOTH",
"352 860 OFFCURVE",
"412 900 OFFCURVE",
"472 910 CURVE",
"472 960 LINE",
"0 960 LINE",
"0 910 LINE",
"60 900 OFFCURVE",
"101 860 OFFCURVE",
"130 790 CURVE SMOOTH",
"476 -40 LINE",
"436 -140 OFFCURVE",
"380 -272 OFFCURVE",
"320 -272 CURVE SMOOTH",
"260 -272 OFFCURVE",
"240 -224 OFFCURVE",
"180 -224 CURVE SMOOTH",
"120 -224 OFFCURVE",
"64 -260 OFFCURVE",
"64 -330 CURVE SMOOTH",
"64 -400 OFFCURVE",
"130 -440 OFFCURVE",
"220 -440 CURVE SMOOTH"
);
}
);
width = 1080;
},
{
layerId = "27D48214-71DC-4330-B979-784A7B16B611";
width = 600;
}
);
unicode = 0079;
userData = {
com.fontlab.hintData = {
hhints = (
{
position = -220;
width = 110;
},
{
position = 448;
width = 32;
},
{
position = 455;
width = 25;
}
);
};
};
},
{
color = 11;
glyphname = z;
lastChange = "2020-01-10 19:30:18 +0000";
layers = (
{
layerId = "EE8FC948-6E49-42F4-ACA5-5A0A3F8AB331";
paths = (
{
closed = 1;
nodes = (
"920 0 LINE",
"960 340 LINE",
"880 340 LINE",
"820 120 OFFCURVE",
"760 80 OFFCURVE",
"660 80 CURVE SMOOTH",
"212 80 LINE",
"274 36 LINE",
"920 900 LINE",
"920 960 LINE",
"229 960 LINE",
"159 992 LINE",
"100 992 LINE",
"100 640 LINE",
"180 640 LINE",
"220 800 OFFCURVE",
"260 880 OFFCURVE",
"438 880 CURVE SMOOTH",
"734 880 LINE",
"704 930 LINE",
"60 60 LINE",
"60 0 LINE"
);
}
);
width = 1030;
},
{
layerId = "27D48214-71DC-4330-B979-784A7B16B611";
width = 1200;
}
);
unicode = 007A;
userData = {
com.fontlab.hintData = {
hhints = (
{
position = 0;
width = 40;
},
{
position = 440;
width = 40;
}
);
vhints = (
{
position = 50;
width = 40;
},
{
position = 440;
width = 40;
}
);
};
};
},
{
color = 11;
glyphname = braceleft;
lastChange = "2020-01-10 19:31:30 +0000";
layers = (
{
layerId = "EE8FC948-6E49-42F4-ACA5-5A0A3F8AB331";
paths = (
{
closed = 1;
nodes = (
"704 -332 LINE",
"555 -301 OFFCURVE",
"492 -226 OFFCURVE",
"492 -140 CURVE SMOOTH",
"492 -49 OFFCURVE",
"528 34 OFFCURVE",
"528 168 CURVE SMOOTH",
"528 310 OFFCURVE",
"432 442 OFFCURVE",
"280 508 CURVE",
"432 574 OFFCURVE",
"528 706 OFFCURVE",
"528 848 CURVE SMOOTH",
"528 981 OFFCURVE",
"492 1065 OFFCURVE",
"492 1156 CURVE SMOOTH",
"492 1242 OFFCURVE",
"555 1317 OFFCURVE",
"704 1348 CURVE",
"704 1414 LINE",
"490 1386 OFFCURVE",
"338 1228 OFFCURVE",
"338 1038 CURVE SMOOTH",
"338 931 OFFCURVE",
"384 834 OFFCURVE",
"384 738 CURVE SMOOTH",
"384 634 OFFCURVE",
"292 548 OFFCURVE",
"160 530 CURVE",
"160 486 LINE",
"292 468 OFFCURVE",
"384 382 OFFCURVE",
"384 278 CURVE SMOOTH",
"384 184 OFFCURVE",
"338 84 OFFCURVE",
"338 -22 CURVE SMOOTH",
"338 -212 OFFCURVE",
"490 -370 OFFCURVE",
"704 -398 CURVE"
);
}
);
width = 784;
},
{
layerId = "27D48214-71DC-4330-B979-784A7B16B611";
width = 600;
}
);
unicode = 007B;
userData = {
com.fontlab.hintData = {
hhints = (
{
position = -199;
width = 33;
},
{
position = 243;
width = 22;
},
{
position = 674;
width = 33;
}
);
vhints = (
{
position = 169;
width = 77;
},
{
position = 192;
width = 72;
}
);
};
};
},
{
color = 11;
glyphname = bar;
lastChange = "2020-01-10 19:31:30 +0000";
layers = (
{
layerId = "EE8FC948-6E49-42F4-ACA5-5A0A3F8AB331";
paths = (
{
closed = 1;
nodes = (
"300 -400 LINE",
"300 1400 LINE",
"160 1400 LINE",
"160 -400 LINE"
);
}
);
width = 460;
},
{
layerId = "27D48214-71DC-4330-B979-784A7B16B611";
width = 600;
}
);
unicode = 007C;
userData = {
com.fontlab.hintData = {
hhints = (
{
position = 680;
width = 20;
}
);
vhints = (
{
position = 80;
width = 70;
}
);
};
};
},
{
color = 11;
glyphname = braceright;
lastChange = "2020-01-10 19:31:30 +0000";
layers = (
{
layerId = "EE8FC948-6E49-42F4-ACA5-5A0A3F8AB331";
paths = (
{
closed = 1;
nodes = (
"294 -370 OFFCURVE",
"446 -212 OFFCURVE",
"446 -22 CURVE SMOOTH",
"446 84 OFFCURVE",
"400 184 OFFCURVE",
"400 278 CURVE SMOOTH",
"400 382 OFFCURVE",
"492 468 OFFCURVE",
"624 486 CURVE",
"624 530 LINE",
"492 548 OFFCURVE",
"400 634 OFFCURVE",
"400 738 CURVE SMOOTH",
"400 834 OFFCURVE",
"446 932 OFFCURVE",
"446 1038 CURVE SMOOTH",
"446 1228 OFFCURVE",
"294 1386 OFFCURVE",
"80 1414 CURVE",
"80 1348 LINE",
"228 1316 OFFCURVE",
"292 1242 OFFCURVE",
"292 1156 CURVE SMOOTH",
"292 1066 OFFCURVE",
"256 982 OFFCURVE",
"256 848 CURVE SMOOTH",
"256 706 OFFCURVE",
"352 574 OFFCURVE",
"504 508 CURVE",
"352 442 OFFCURVE",
"256 310 OFFCURVE",
"256 168 CURVE SMOOTH",
"256 34 OFFCURVE",
"292 -50 OFFCURVE",
"292 -140 CURVE SMOOTH",
"292 -226 OFFCURVE",
"228 -300 OFFCURVE",
"80 -332 CURVE",
"80 -398 LINE"
);
}
);
width = 784;
},
{
layerId = "27D48214-71DC-4330-B979-784A7B16B611";
width = 600;
}
);
unicode = 007D;
userData = {
com.fontlab.hintData = {
hhints = (
{
position = -199;
width = 33;
},
{
position = 243;
width = 22;
},
{
position = 674;
width = 33;
}
);
vhints = (
{
position = 128;
width = 72;
},
{
position = 146;
width = 77;
}
);
};
};
},
{
color = 11;
glyphname = asciitilde;
lastChange = "2020-01-10 19:31:30 +0000";
layers = (
{
layerId = "EE8FC948-6E49-42F4-ACA5-5A0A3F8AB331";
paths = (
{
closed = 1;
nodes = (
"892 484 OFFCURVE",
"994 610 OFFCURVE",
"1000 810 CURVE",
"922 810 LINE",
"912 704 OFFCURVE",
"857 642 OFFCURVE",
"772 642 CURVE SMOOTH",
"724 642 OFFCURVE",
"674 654 OFFCURVE",
"564 704 CURVE SMOOTH",
"502 732 OFFCURVE",
"418 764 OFFCURVE",
"370 782 CURVE SMOOTH",
"286 812 OFFCURVE",
"244 822 OFFCURVE",
"190 822 CURVE SMOOTH",
"112 822 OFFCURVE",
"36 778 OFFCURVE",
"-10 702 CURVE SMOOTH",
"-44 650 OFFCURVE",
"-58 594 OFFCURVE",
"-64 496 CURVE",
"16 496 LINE",
"32 605 OFFCURVE",
"82 660 OFFCURVE",
"166 660 CURVE SMOOTH",
"212 660 OFFCURVE",
"266 644 OFFCURVE",
"370 600 CURVE SMOOTH",
"616 498 OFFCURVE",
"660 484 OFFCURVE",
"738 484 CURVE SMOOTH"
);
}
);
width = 938;
},
{
layerId = "27D48214-71DC-4330-B979-784A7B16B611";
width = 600;
}
);
unicode = 007E;
userData = {
com.fontlab.hintData = {
hhints = (
{
position = 242;
width = 79;
},
{
position = 330;
width = 81;
}
);
vhints = (
{
position = -32;
width = 40;
},
{
position = 461;
width = 39;
}
);
};
};
},
{
color = 11;
glyphname = exclamdown;
lastChange = "2020-01-10 19:30:18 +0000";
layers = (
{
layerId = "EE8FC948-6E49-42F4-ACA5-5A0A3F8AB331";
paths = (
{
closed = 1;
nodes = (
"393 -440 OFFCURVE",
"466 -392 OFFCURVE",
"466 -320 CURVE SMOOTH",
"466 -220 LINE",
"400 580 LINE",
"260 580 LINE",
"180 -220 LINE",
"180 -320 LINE SMOOTH",
"180 -392 OFFCURVE",
"261 -440 OFFCURVE",
"330 -440 CURVE SMOOTH"
);
},
{
closed = 1;
nodes = (
"420 760 OFFCURVE",
"500 830 OFFCURVE",
"500 930 CURVE SMOOTH",
"500 1030 OFFCURVE",
"420 1100 OFFCURVE",
"330 1100 CURVE SMOOTH",
"240 1100 OFFCURVE",
"160 1030 OFFCURVE",
"160 930 CURVE SMOOTH",
"160 830 OFFCURVE",
"240 760 OFFCURVE",
"330 760 CURVE SMOOTH"
);
}
);
width = 660;
},
{
layerId = "27D48214-71DC-4330-B979-784A7B16B611";
width = 1200;
}
);
unicode = 00A1;
userData = {
com.fontlab.hintData = {
hhints = (
{
position = 380;
width = 170;
}
);
vhints = (
{
position = 80;
width = 170;
},
{
position = 90;
width = 143;
}
);
};
};
},
{
color = 11;
glyphname = cent;
lastChange = "2020-01-10 19:31:30 +0000";
layers = (
{
layerId = "EE8FC948-6E49-42F4-ACA5-5A0A3F8AB331";
paths = (
{
closed = 1;
nodes = (
"254 -240 LINE",
"338 3 LINE",
"392 -19 OFFCURVE",
"450 -30 OFFCURVE",
"510 -30 CURVE SMOOTH",
"720 -30 OFFCURVE",
"840 90 OFFCURVE",
"910 180 CURVE",
"870 220 LINE",
"820 170 OFFCURVE",
"700 110 OFFCURVE",
"610 110 CURVE SMOOTH",
"535 110 OFFCURVE",
"463 138 OFFCURVE",
"407 200 CURVE",
"638 865 LINE",
"659 839 OFFCURVE",
"670 803 OFFCURVE",
"670 760 CURVE SMOOTH",
"670 670 LINE",
"700 650 OFFCURVE",
"738 640 OFFCURVE",
"780 640 CURVE SMOOTH",
"840 640 OFFCURVE",
"890 680 OFFCURVE",
"890 760 CURVE SMOOTH",
"890 883 OFFCURVE",
"801 953 OFFCURVE",
"678 979 CURVE",
"762 1220 LINE",
"674 1220 LINE",
"594 989 LINE",
"583 990 OFFCURVE",
"571 990 OFFCURVE",
"560 990 CURVE SMOOTH",
"310 990 OFFCURVE",
"80 790 OFFCURVE",
"80 470 CURVE SMOOTH",
"80 258 OFFCURVE",
"155 120 OFFCURVE",
"265 43 CURVE",
"166 -240 LINE"
);
},
{
closed = 1;
nodes = (
"319 354 OFFCURVE",
"300 441 OFFCURVE",
"300 550 CURVE SMOOTH",
"300 810 OFFCURVE",
"440 910 OFFCURVE",
"540 910 CURVE SMOOTH",
"549 910 OFFCURVE",
"557 909 OFFCURVE",
"565 908 CURVE",
"350 288 LINE"
);
}
);
width = 950;
},
{
layerId = "27D48214-71DC-4330-B979-784A7B16B611";
width = 600;
}
);
unicode = 00A2;
userData = {
com.fontlab.hintData = {
hhints = (
{
position = -15;
width = 70;
},
{
position = 455;
width = 40;
}
);
vhints = (
{
position = 40;
width = 110;
},
{
position = 335;
width = 110;
}
);
};
};
},
{
color = 11;
glyphname = sterling;
lastChange = "2020-01-10 19:31:30 +0000";
layers = (
{
layerId = "EE8FC948-6E49-42F4-ACA5-5A0A3F8AB331";
paths = (
{
closed = 1;
nodes = (
"1012 -385 OFFCURVE",
"1214 -288 OFFCURVE",
"1214 -56 CURVE SMOOTH",
"1214 17 OFFCURVE",
"1168 72 OFFCURVE",
"1109 72 CURVE SMOOTH",
"1057 72 OFFCURVE",
"1015 25 OFFCURVE",
"1018 -30 CURVE SMOOTH",
"1021 -86 OFFCURVE",
"1090 -113 OFFCURVE",
"1090 -177 CURVE SMOOTH",
"1090 -209 OFFCURVE",
"1052 -236 OFFCURVE",
"1004 -236 CURVE SMOOTH",
"848 -236 OFFCURVE",
"760 -19 OFFCURVE",
"541 -19 CURVE SMOOTH",
"497 -19 OFFCURVE",
"467 -23 OFFCURVE",
"408 -40 CURVE",
"488 104 OFFCURVE",
"516 173 OFFCURVE",
"564 348 CURVE",
"834 348 LINE",
"854 436 LINE",
"588 436 LINE",
"618 548 OFFCURVE",
"643 658 OFFCURVE",
"665 760 CURVE SMOOTH",
"733 1087 OFFCURVE",
"788 1336 OFFCURVE",
"938 1336 CURVE SMOOTH",
"1017 1336 OFFCURVE",
"1063 1290 OFFCURVE",
"1103 1245 CURVE SMOOTH",
"1127 1217 OFFCURVE",
"1160 1201 OFFCURVE",
"1190 1201 CURVE SMOOTH",
"1231 1201 OFFCURVE",
"1266 1228 OFFCURVE",
"1266 1297 CURVE SMOOTH",
"1266 1374 OFFCURVE",
"1163 1430 OFFCURVE",
"1013 1430 CURVE SMOOTH",
"770 1430 OFFCURVE",
"609 1193 OFFCURVE",
"478 850 CURVE SMOOTH",
"426 720 OFFCURVE",
"390 601 OFFCURVE",
"346 436 CURVE",
"144 436 LINE",
"129 348 LINE",
"323 348 LINE",
"278 184 OFFCURVE",
"272 112 OFFCURVE",
"241 -97 CURVE",
"134 -156 OFFCURVE",
"67 -227 OFFCURVE",
"67 -305 CURVE SMOOTH",
"67 -348 OFFCURVE",
"102 -382 OFFCURVE",
"143 -382 CURVE SMOOTH",
"199 -382 OFFCURVE",
"270 -312 OFFCURVE",
"348 -157 CURVE",
"367 -153 OFFCURVE",
"386 -151 OFFCURVE",
"404 -151 CURVE SMOOTH",
"600 -151 OFFCURVE",
"693 -385 OFFCURVE",
"894 -385 CURVE SMOOTH"
);
}
);
width = 1354;
},
{
layerId = "27D48214-71DC-4330-B979-784A7B16B611";
width = 600;
}
);
unicode = 00A3;
userData = {
com.fontlab.hintData = {
hhints = (
{
position = -193;
width = 74;
},
{
position = -76;
width = 66;
},
{
position = 174;
width = 44;
},
{
position = 668;
width = 47;
}
);
vhints = (
{
position = 545;
width = 62;
}
);
};
};
},
{
color = 11;
glyphname = currency;
lastChange = "2020-01-10 19:31:30 +0000";
layers = (
{
layerId = "EE8FC948-6E49-42F4-ACA5-5A0A3F8AB331";
paths = (
{
closed = 1;
nodes = (
"409 299 LINE",
"502 237 OFFCURVE",
"569 213 OFFCURVE",
"671 213 CURVE SMOOTH",
"770 213 OFFCURVE",
"835 235 OFFCURVE",
"929 299 CURVE",
"1055 174 LINE",
"1145 265 LINE",
"1019 391 LINE",
"1084 484 OFFCURVE",
"1106 551 OFFCURVE",
"1106 649 CURVE SMOOTH",
"1106 749 OFFCURVE",
"1084 817 OFFCURVE",
"1019 911 CURVE",
"1145 1037 LINE",
"1055 1128 LINE",
"929 1001 LINE",
"833 1066 OFFCURVE",
"769 1088 OFFCURVE",
"667 1088 CURVE SMOOTH",
"569 1088 OFFCURVE",
"505 1066 OFFCURVE",
"409 1002 CURVE",
"282 1128 LINE",
"191 1037 LINE",
"318 912 LINE",
"253 816 OFFCURVE",
"231 749 OFFCURVE",
"231 651 CURVE SMOOTH",
"231 551 OFFCURVE",
"253 484 OFFCURVE",
"318 391 CURVE",
"191 265 LINE",
"282 174 LINE"
);
},
{
closed = 1;
nodes = (
"504 351 OFFCURVE",
"369 486 OFFCURVE",
"369 651 CURVE SMOOTH",
"369 815 OFFCURVE",
"504 951 OFFCURVE",
"669 951 CURVE SMOOTH",
"833 951 OFFCURVE",
"969 815 OFFCURVE",
"969 651 CURVE SMOOTH",
"969 485 OFFCURVE",
"833 351 OFFCURVE",
"669 351 CURVE SMOOTH"
);
}
);
width = 1260;
},
{
layerId = "27D48214-71DC-4330-B979-784A7B16B611";
width = 600;
}
);
unicode = 00A4;
userData = {
com.fontlab.hintData = {
hhints = (
{
position = 107;
width = 69;
},
{
position = 475;
width = 69;
}
);
vhints = (
{
position = 116;
width = 69;
},
{
position = 484;
width = 69;
}
);
};
};
},
{
color = 11;
glyphname = yen;
lastChange = "2020-01-10 19:30:18 +0000";
layers = (
{
layerId = "EE8FC948-6E49-42F4-ACA5-5A0A3F8AB331";
paths = (
{
closed = 1;
nodes = (
"1122 0 LINE",
"1122 60 LINE",
"962 100 LINE SMOOTH",
"922 110 OFFCURVE",
"902 140 OFFCURVE",
"902 180 CURVE SMOOTH",
"902 552 LINE",
"1410 552 LINE",
"1410 632 LINE",
"916 632 LINE",
"1092 932 LINE",
"1410 932 LINE",
"1410 1012 LINE",
"1140 1012 LINE",
"1242 1186 LINE SMOOTH",
"1269 1230 OFFCURVE",
"1299 1273 OFFCURVE",
"1360 1300 CURVE SMOOTH",
"1450 1340 LINE",
"1450 1400 LINE",
"1020 1400 LINE",
"1020 1340 LINE",
"1120 1300 LINE SMOOTH",
"1147 1289 OFFCURVE",
"1152 1252 OFFCURVE",
"1136 1220 CURVE SMOOTH",
"1019 1012 LINE",
"689 1012 LINE",
"564 1220 LINE SMOOTH",
"548 1248 OFFCURVE",
"557 1287 OFFCURVE",
"578 1300 CURVE SMOOTH",
"640 1340 LINE",
"640 1400 LINE",
"80 1400 LINE",
"80 1340 LINE",
"160 1300 LINE SMOOTH",
"211 1274 OFFCURVE",
"242 1256 OFFCURVE",
"270 1220 CURVE SMOOTH",
"406 1012 LINE",
"120 1012 LINE",
"120 932 LINE",
"458 932 LINE",
"653 632 LINE",
"120 632 LINE",
"120 552 LINE",
"682 552 LINE",
"682 180 LINE SMOOTH",
"682 140 OFFCURVE",
"662 110 OFFCURVE",
"622 100 CURVE SMOOTH",
"462 60 LINE",
"462 0 LINE"
);
},
{
closed = 1;
nodes = (
"737 932 LINE",
"974 932 LINE",
"860 728 LINE"
);
}
);
width = 1530;
},
{
layerId = "27D48214-71DC-4330-B979-784A7B16B611";
width = 1200;
}
);
unicode = 00A5;
userData = {
com.fontlab.hintData = {
hhints = (
{
position = 0;
width = 30;
},
{
position = 245;
width = 77;
},
{
position = 276;
width = 40;
},
{
position = 466;
width = 40;
},
{
position = 680;
width = 20;
}
);
vhints = (
{
position = 341;
width = 110;
}
);
};
};
},
{
color = 11;
glyphname = brokenbar;
lastChange = "2020-01-10 19:31:30 +0000";
layers = (
{
layerId = "EE8FC948-6E49-42F4-ACA5-5A0A3F8AB331";
paths = (
{
closed = 1;
nodes = (
"300 792 LINE",
"300 1400 LINE",
"160 1400 LINE",
"160 792 LINE"
);
},
{
closed = 1;
nodes = (
"300 -400 LINE",
"300 206 LINE",
"160 206 LINE",
"160 -400 LINE"
);
}
);
width = 460;
},
{
layerId = "27D48214-71DC-4330-B979-784A7B16B611";
width = 600;
}
);
unicode = 00A6;
userData = {
com.fontlab.hintData = {
hhints = (
{
position = 680;
width = 20;
}
);
vhints = (
{
position = 80;
width = 70;
}
);
};
};
},
{
color = 11;
glyphname = section;
lastChange = "2020-01-10 19:31:30 +0000";
layers = (
{
layerId = "EE8FC948-6E49-42F4-ACA5-5A0A3F8AB331";
paths = (
{
closed = 1;
nodes = (
"524 -371 OFFCURVE",
"650 -298 OFFCURVE",
"734 -162 CURVE SMOOTH",
"794 -64 OFFCURVE",
"812 98 OFFCURVE",
"812 180 CURVE SMOOTH",
"812 272 OFFCURVE",
"787 366 OFFCURVE",
"745 453 CURVE SMOOTH",
"700 546 OFFCURVE",
"641 647 OFFCURVE",
"568 758 CURVE SMOOTH",
"511 846 OFFCURVE",
"448 957 OFFCURVE",
"394 1049 CURVE SMOOTH",
"371 1088 OFFCURVE",
"355 1118 OFFCURVE",
"355 1168 CURVE SMOOTH",
"355 1234 OFFCURVE",
"395 1282 OFFCURVE",
"466 1282 CURVE SMOOTH",
"537 1282 OFFCURVE",
"600 1232 OFFCURVE",
"600 1160 CURVE SMOOTH",
"600 1127 OFFCURVE",
"591 1100 OFFCURVE",
"572 1081 CURVE SMOOTH",
"557 1065 OFFCURVE",
"551 1052 OFFCURVE",
"551 1040 CURVE SMOOTH",
"551 1016 OFFCURVE",
"582 1002 OFFCURVE",
"630 1002 CURVE SMOOTH",
"717 1002 OFFCURVE",
"770 1076 OFFCURVE",
"770 1162 CURVE SMOOTH",
"770 1290 OFFCURVE",
"659 1360 OFFCURVE",
"538 1360 CURVE SMOOTH",
"356 1360 OFFCURVE",
"221 1284 OFFCURVE",
"145 1164 CURVE SMOOTH",
"100 1094 OFFCURVE",
"80 1004 OFFCURVE",
"80 918 CURVE SMOOTH",
"80 802 OFFCURVE",
"108 672 OFFCURVE",
"155 565 CURVE SMOOTH",
"196 471 OFFCURVE",
"254 369 OFFCURVE",
"320 260 CURVE SMOOTH",
"410 129 OFFCURVE",
"491 6 OFFCURVE",
"532 -118 CURVE SMOOTH",
"561 -206 OFFCURVE",
"519 -288 OFFCURVE",
"428 -288 CURVE SMOOTH",
"357 -288 OFFCURVE",
"294 -238 OFFCURVE",
"294 -166 CURVE SMOOTH",
"294 -133 OFFCURVE",
"303 -106 OFFCURVE",
"322 -87 CURVE SMOOTH",
"336 -72 OFFCURVE",
"343 -59 OFFCURVE",
"343 -48 CURVE SMOOTH",
"343 -25 OFFCURVE",
"313 -12 OFFCURVE",
"264 -12 CURVE SMOOTH",
"177 -12 OFFCURVE",
"124 -85 OFFCURVE",
"124 -168 CURVE SMOOTH",
"124 -296 OFFCURVE",
"235 -363 OFFCURVE",
"356 -366 CURVE SMOOTH"
);
},
{
closed = 1;
nodes = (
"633 6 OFFCURVE",
"553 96 OFFCURVE",
"454 264 CURVE SMOOTH",
"373 400 OFFCURVE",
"308 513 OFFCURVE",
"265 608 CURVE SMOOTH",
"216 715 OFFCURVE",
"190 841 OFFCURVE",
"190 960 CURVE SMOOTH",
"190 1041 OFFCURVE",
"216 1128 OFFCURVE",
"274 1196 CURVE",
"242 1026 OFFCURVE",
"317 912 OFFCURVE",
"405 776 CURVE SMOOTH",
"446 715 OFFCURVE",
"492 642 OFFCURVE",
"530 584 CURVE SMOOTH",
"574 517 OFFCURVE",
"612 458 OFFCURVE",
"639 406 CURVE SMOOTH",
"680 326 OFFCURVE",
"696 232 OFFCURVE",
"696 144 CURVE SMOOTH",
"696 45 OFFCURVE",
"670 -54 OFFCURVE",
"616 -140 CURVE"
);
}
);
width = 892;
},
{
layerId = "27D48214-71DC-4330-B979-784A7B16B611";
width = 600;
}
);
unicode = 00A7;
userData = {
com.fontlab.hintData = {
hhints = (
{
position = -183;
width = 39;
},
{
position = -26;
width = 20;
},
{
position = 641;
width = 39;
}
);
vhints = (
{
position = 40;
width = 55;
},
{
position = 62;
width = 85;
},
{
position = 300;
width = 85;
},
{
position = 348;
width = 58;
}
);
};
};
},
{
color = 11;
glyphname = dieresis;
lastChange = "2020-01-10 19:31:30 +0000";
layers = (
{
layerId = "EE8FC948-6E49-42F4-ACA5-5A0A3F8AB331";
paths = (
{
closed = 1;
nodes = (
"639 1149 OFFCURVE",
"692 1202 OFFCURVE",
"692 1266 CURVE SMOOTH",
"692 1330 OFFCURVE",
"639 1383 OFFCURVE",
"575 1383 CURVE SMOOTH",
"512 1383 OFFCURVE",
"459 1330 OFFCURVE",
"459 1266 CURVE SMOOTH",
"459 1202 OFFCURVE",
"512 1149 OFFCURVE",
"575 1149 CURVE SMOOTH"
);
},
{
closed = 1;
nodes = (
"261 1149 OFFCURVE",
"314 1202 OFFCURVE",
"314 1266 CURVE SMOOTH",
"314 1330 OFFCURVE",
"261 1383 OFFCURVE",
"197 1383 CURVE SMOOTH",
"133 1383 OFFCURVE",
"80 1330 OFFCURVE",
"80 1266 CURVE SMOOTH",
"80 1202 OFFCURVE",
"133 1149 OFFCURVE",
"197 1149 CURVE SMOOTH"
);
}
);
width = 772;
},
{
layerId = "27D48214-71DC-4330-B979-784A7B16B611";
width = 600;
}
);
unicode = 00A8;
userData = {
com.fontlab.hintData = {
hhints = (
{
position = 575;
width = 117;
}
);
vhints = (
{
position = 40;
width = 117;
},
{
position = 229;
width = 117;
}
);
};
};
},
{
color = 11;
glyphname = copyright;
lastChange = "2020-01-10 19:31:30 +0000";
layers = (
{
layerId = "EE8FC948-6E49-42F4-ACA5-5A0A3F8AB331";
paths = (
{
closed = 1;
nodes = (
"1142 -20 OFFCURVE",
"1452 290 OFFCURVE",
"1452 672 CURVE SMOOTH",
"1452 1054 OFFCURVE",
"1142 1364 OFFCURVE",
"760 1364 CURVE SMOOTH",
"378 1364 OFFCURVE",
"68 1054 OFFCURVE",
"68 672 CURVE SMOOTH",
"68 290 OFFCURVE",
"378 -20 OFFCURVE",
"760 -20 CURVE SMOOTH"
);
},
{
closed = 1;
nodes = (
"787 207 LINE SMOOTH",
"896 207 OFFCURVE",
"988 242 OFFCURVE",
"1064 300 CURVE",
"1064 486 LINE",
"1009 486 LINE",
"977 326 OFFCURVE",
"883 258 OFFCURVE",
"791 258 CURVE SMOOTH",
"778 258 LINE SMOOTH",
"624 258 OFFCURVE",
"480 372 OFFCURVE",
"480 686 CURVE SMOOTH",
"480 848 OFFCURVE",
"536 1077 OFFCURVE",
"769 1077 CURVE SMOOTH",
"791 1077 LINE SMOOTH",
"883 1077 OFFCURVE",
"977 1008 OFFCURVE",
"1009 848 CURVE",
"1064 848 LINE",
"1064 1034 LINE",
"988 1092 OFFCURVE",
"896 1127 OFFCURVE",
"787 1127 CURVE SMOOTH",
"503 1127 OFFCURVE",
"328 920 OFFCURVE",
"328 658 CURVE SMOOTH",
"328 352 OFFCURVE",
"550 207 OFFCURVE",
"761 207 CURVE SMOOTH"
);
},
{
closed = 1;
nodes = (
"412 42 OFFCURVE",
"130 324 OFFCURVE",
"130 672 CURVE SMOOTH",
"130 1020 OFFCURVE",
"412 1302 OFFCURVE",
"760 1302 CURVE SMOOTH",
"1108 1302 OFFCURVE",
"1390 1020 OFFCURVE",
"1390 672 CURVE SMOOTH",
"1390 324 OFFCURVE",
"1108 42 OFFCURVE",
"760 42 CURVE SMOOTH"
);
}
);
width = 1520;
},
{
layerId = "27D48214-71DC-4330-B979-784A7B16B611";
width = 600;
}
);
unicode = 00A9;
userData = {
com.fontlab.hintData = {
hhints = (
{
position = -10;
width = 31;
},
{
position = 104;
width = 25;
},
{
position = 424;
width = 21;
},
{
position = 538;
width = 25;
},
{
position = 651;
width = 31;
}
);
vhints = (
{
position = 34;
width = 31;
},
{
position = 164;
width = 76;
},
{
position = 504;
width = 28;
},
{
position = 695;
width = 31;
}
);
};
};
},
{
color = 11;
glyphname = ordfeminine;
lastChange = "2020-01-10 19:30:18 +0000";
layers = (
{
layerId = "EE8FC948-6E49-42F4-ACA5-5A0A3F8AB331";
paths = (
{
closed = 1;
nodes = (
"282 776 OFFCURVE",
"330 806 OFFCURVE",
"366 866 CURVE",
"378 806 OFFCURVE",
"426 782 OFFCURVE",
"486 782 CURVE SMOOTH",
"546 782 OFFCURVE",
"582 812 OFFCURVE",
"606 848 CURVE",
"582 872 LINE",
"570 860 OFFCURVE",
"546 854 OFFCURVE",
"528 854 CURVE SMOOTH",
"510 854 OFFCURVE",
"486 872 OFFCURVE",
"486 908 CURVE SMOOTH",
"486 1244 LINE SMOOTH",
"486 1316 OFFCURVE",
"450 1400 OFFCURVE",
"306 1400 CURVE SMOOTH",
"138 1400 OFFCURVE",
"78 1316 OFFCURVE",
"78 1268 CURVE SMOOTH",
"78 1232 OFFCURVE",
"90 1196 OFFCURVE",
"126 1196 CURVE SMOOTH",
"150 1196 OFFCURVE",
"186 1208 OFFCURVE",
"210 1232 CURVE",
"192 1268 LINE SMOOTH",
"186 1280 OFFCURVE",
"183 1290 OFFCURVE",
"183 1299 CURVE SMOOTH",
"183 1338 OFFCURVE",
"228 1358 OFFCURVE",
"276 1358 CURVE SMOOTH",
"324 1358 OFFCURVE",
"366 1334 OFFCURVE",
"366 1274 CURVE SMOOTH",
"366 1160 LINE",
"186 1100 OFFCURVE",
"42 1064 OFFCURVE",
"42 944 CURVE SMOOTH",
"42 848 OFFCURVE",
"114 776 OFFCURVE",
"210 776 CURVE SMOOTH"
);
},
{
closed = 1;
nodes = (
"198 860 OFFCURVE",
"168 908 OFFCURVE",
"168 956 CURVE SMOOTH",
"168 1028 OFFCURVE",
"210 1058 OFFCURVE",
"366 1118 CURVE",
"366 980 LINE SMOOTH",
"366 908 OFFCURVE",
"336 860 OFFCURVE",
"270 860 CURVE SMOOTH"
);
}
);
width = 626;
},
{
layerId = "27D48214-71DC-4330-B979-784A7B16B611";
width = 1200;
}
);
unicode = 00AA;
userData = {
com.fontlab.hintData = {
hhints = (
{
position = 388;
width = 42;
},
{
position = 679;
width = 21;
}
);
vhints = (
{
position = 21;
width = 63;
},
{
position = 39;
width = 53;
},
{
position = 183;
width = 60;
}
);
};
};
},
{
color = 11;
glyphname = logicalnot;
lastChange = "2020-01-10 19:30:18 +0000";
layers = (
{
layerId = "EE8FC948-6E49-42F4-ACA5-5A0A3F8AB331";
paths = (
{
closed = 1;
nodes = (
"1202 358 LINE",
"1202 960 LINE",
"132 960 LINE",
"132 820 LINE",
"1062 820 LINE",
"1062 358 LINE"
);
}
);
width = 1334;
},
{
layerId = "27D48214-71DC-4330-B979-784A7B16B611";
width = 1200;
}
);
unicode = 00AC;
userData = {
com.fontlab.hintData = {
hhints = (
{
position = 410;
width = 70;
}
);
vhints = (
{
position = 531;
width = 70;
}
);
};
};
},
{
color = 11;
glyphname = registered;
lastChange = "2020-01-10 19:30:18 +0000";
layers = (
{
layerId = "EE8FC948-6E49-42F4-ACA5-5A0A3F8AB331";
paths = (
{
closed = 1;
nodes = (
"1142 -20 OFFCURVE",
"1452 290 OFFCURVE",
"1452 672 CURVE SMOOTH",
"1452 1054 OFFCURVE",
"1142 1364 OFFCURVE",
"760 1364 CURVE SMOOTH",
"378 1364 OFFCURVE",
"68 1054 OFFCURVE",
"68 672 CURVE SMOOTH",
"68 290 OFFCURVE",
"378 -20 OFFCURVE",
"760 -20 CURVE SMOOTH"
);
},
{
closed = 1;
nodes = (
"412 42 OFFCURVE",
"130 324 OFFCURVE",
"130 672 CURVE SMOOTH",
"130 1020 OFFCURVE",
"412 1302 OFFCURVE",
"760 1302 CURVE SMOOTH",
"1108 1302 OFFCURVE",
"1390 1020 OFFCURVE",
"1390 672 CURVE SMOOTH",
"1390 324 OFFCURVE",
"1108 42 OFFCURVE",
"760 42 CURVE SMOOTH"
);
},
{
closed = 1;
nodes = (
"739 284 LINE",
"739 319 LINE",
"647 342 LINE SMOOTH",
"624 348 OFFCURVE",
"612 365 OFFCURVE",
"612 388 CURVE SMOOTH",
"612 619 LINE",
"663 619 LINE",
"901 350 LINE SMOOTH",
"932 317 OFFCURVE",
"966 284 OFFCURVE",
"981 284 CURVE SMOOTH",
"1203 284 LINE",
"1203 319 LINE",
"1151 319 OFFCURVE",
"1110 348 OFFCURVE",
"1058 386 CURVE",
"841 629 LINE",
"963 659 OFFCURVE",
"1040 751 OFFCURVE",
"1040 873 CURVE SMOOTH",
"1040 1000 OFFCURVE",
"970 1093 OFFCURVE",
"751 1093 CURVE SMOOTH",
"358 1093 LINE",
"358 1058 LINE",
"451 1035 LINE SMOOTH",
"474 1029 OFFCURVE",
"485 1012 OFFCURVE",
"485 989 CURVE SMOOTH",
"485 388 LINE SMOOTH",
"485 365 OFFCURVE",
"474 348 OFFCURVE",
"451 342 CURVE SMOOTH",
"358 319 LINE",
"358 284 LINE"
);
},
{
closed = 1;
nodes = (
"612 1000 LINE SMOOTH",
"612 1035 OFFCURVE",
"635 1046 OFFCURVE",
"659 1046 CURVE SMOOTH",
"716 1046 LINE SMOOTH",
"843 1046 OFFCURVE",
"901 978 OFFCURVE",
"901 873 CURVE SMOOTH",
"901 769 OFFCURVE",
"854 673 OFFCURVE",
"724 673 CURVE SMOOTH",
"682 673 LINE",
"612 673 LINE"
);
}
);
width = 1520;
},
{
layerId = "27D48214-71DC-4330-B979-784A7B16B611";
width = 1200;
}
);
unicode = 00AE;
userData = {
com.fontlab.hintData = {
hhints = (
{
position = -10;
width = 31;
},
{
position = 142;
width = 17;
},
{
position = 309;
width = 27;
},
{
position = 315;
width = 21;
},
{
position = 523;
width = 23;
},
{
position = 529;
width = 17;
},
{
position = 651;
width = 31;
}
);
vhints = (
{
position = 34;
width = 31;
},
{
position = 243;
width = 64;
},
{
position = 451;
width = 69;
},
{
position = 695;
width = 31;
}
);
};
};
},
{
color = 11;
glyphname = macron;
lastChange = "2020-01-10 19:30:18 +0000";
layers = (
{
layerId = "EE8FC948-6E49-42F4-ACA5-5A0A3F8AB331";
paths = (
{
closed = 1;
nodes = (
"644 1160 LINE",
"644 1300 LINE",
"22 1300 LINE",
"22 1160 LINE"
);
}
);
width = 666;
},
{
layerId = "27D48214-71DC-4330-B979-784A7B16B611";
width = 1200;
}
);
unicode = 00AF;
userData = {
com.fontlab.hintData = {
hhints = (
{
position = 580;
width = 70;
}
);
vhints = (
{
position = 11;
width = 311;
}
);
};
};
},
{
color = 11;
glyphname = degree;
lastChange = "2020-01-10 19:30:18 +0000";
layers = (
{
layerId = "EE8FC948-6E49-42F4-ACA5-5A0A3F8AB331";
paths = (
{
closed = 1;
nodes = (
"546 800 OFFCURVE",
"680 934 OFFCURVE",
"680 1100 CURVE SMOOTH",
"680 1266 OFFCURVE",
"546 1400 OFFCURVE",
"380 1400 CURVE SMOOTH",
"214 1400 OFFCURVE",
"80 1266 OFFCURVE",
"80 1100 CURVE SMOOTH",
"80 934 OFFCURVE",
"214 800 OFFCURVE",
"380 800 CURVE SMOOTH"
);
},
{
closed = 1;
nodes = (
"270 896 OFFCURVE",
"176 990 OFFCURVE",
"176 1100 CURVE SMOOTH",
"176 1210 OFFCURVE",
"270 1304 OFFCURVE",
"380 1304 CURVE SMOOTH",
"490 1304 OFFCURVE",
"584 1210 OFFCURVE",
"584 1100 CURVE SMOOTH",
"584 990 OFFCURVE",
"490 896 OFFCURVE",
"380 896 CURVE SMOOTH"
);
}
);
width = 760;
},
{
layerId = "27D48214-71DC-4330-B979-784A7B16B611";
width = 1200;
}
);
unicode = 00B0;
userData = {
com.fontlab.hintData = {
hhints = (
{
position = 400;
width = 48;
},
{
position = 652;
width = 48;
}
);
vhints = (
{
position = 40;
width = 48;
},
{
position = 292;
width = 48;
}
);
};
};
},
{
color = 11;
glyphname = plusminus;
lastChange = "2020-01-10 19:30:18 +0000";
layers = (
{
layerId = "EE8FC948-6E49-42F4-ACA5-5A0A3F8AB331";
paths = (
{
closed = 1;
nodes = (
"736 340 LINE",
"736 798 LINE",
"1194 798 LINE",
"1194 938 LINE",
"736 938 LINE",
"736 1396 LINE",
"596 1396 LINE",
"596 938 LINE",
"138 938 LINE",
"138 798 LINE",
"596 798 LINE",
"596 340 LINE"
);
},
{
closed = 1;
nodes = (
"1194 0 LINE",
"1194 140 LINE",
"138 140 LINE",
"138 0 LINE"
);
}
);
width = 1334;
},
{
layerId = "27D48214-71DC-4330-B979-784A7B16B611";
width = 1200;
}
);
unicode = 00B1;
userData = {
com.fontlab.hintData = {
hhints = (
{
position = 0;
width = 70;
},
{
position = 399;
width = 70;
}
);
vhints = (
{
position = 298;
width = 70;
}
);
};
};
},
{
color = 11;
glyphname = acute;
lastChange = "2020-01-10 19:30:18 +0000";
layers = (
{
layerId = "EE8FC948-6E49-42F4-ACA5-5A0A3F8AB331";
paths = (
{
closed = 1;
nodes = (
"180 1160 LINE",
"460 1500 LINE",
"220 1500 LINE",
"120 1160 LINE"
);
}
);
width = 580;
},
{
layerId = "27D48214-71DC-4330-B979-784A7B16B611";
width = 1200;
}
);
unicode = 00B4;
userData = {
com.fontlab.hintData = {
hhints = (
{
position = 580;
width = 170;
}
);
vhints = (
{
position = 60;
width = 170;
}
);
};
};
},
{
color = 11;
glyphname = mu;
lastChange = "2020-01-10 19:30:18 +0000";
layers = (
{
layerId = "EE8FC948-6E49-42F4-ACA5-5A0A3F8AB331";
paths = (
{
closed = 1;
nodes = (
"241 -460 OFFCURVE",
"288 -406 OFFCURVE",
"288 -340 CURVE SMOOTH",
"288 -227 OFFCURVE",
"232 -168 OFFCURVE",
"232 68 CURVE",
"238 68 LINE",
"283 2 OFFCURVE",
"334 -30 OFFCURVE",
"414 -30 CURVE SMOOTH",
"538 -30 OFFCURVE",
"639 33 OFFCURVE",
"768 174 CURVE",
"791 23 OFFCURVE",
"842 -30 OFFCURVE",
"952 -30 CURVE SMOOTH",
"1065 -30 OFFCURVE",
"1175 52 OFFCURVE",
"1180 220 CURVE",
"1130 220 LINE",
"1116 135 OFFCURVE",
"1087 90 OFFCURVE",
"1040 90 CURVE SMOOTH",
"1002 90 OFFCURVE",
"968 125 OFFCURVE",
"968 202 CURVE SMOOTH",
"968 960 LINE",
"768 960 LINE",
"768 240 LINE",
"686 144 OFFCURVE",
"593 104 OFFCURVE",
"504 104 CURVE SMOOTH",
"394 104 OFFCURVE",
"344 175 OFFCURVE",
"344 350 CURVE SMOOTH",
"344 960 LINE",
"144 960 LINE",
"144 119 LINE SMOOTH",
"144 -181 OFFCURVE",
"80 -223 OFFCURVE",
"80 -340 CURVE SMOOTH",
"80 -410 OFFCURVE",
"119 -460 OFFCURVE",
"180 -460 CURVE SMOOTH"
);
}
);
width = 1260;
},
{
layerId = "27D48214-71DC-4330-B979-784A7B16B611";
width = 1200;
}
);
unicode = 00B5;
userData = {
com.fontlab.hintData = {
hhints = (
{
position = -12;
width = 56;
},
{
position = -12;
width = 64;
},
{
position = 459;
width = 20;
}
);
vhints = (
{
position = 40;
width = 104;
},
{
position = 73;
width = 43;
},
{
position = 73;
width = 100;
},
{
position = 384;
width = 98;
},
{
position = 565;
width = 25;
}
);
};
};
},
{
color = 11;
glyphname = paragraph;
lastChange = "2020-01-10 19:30:18 +0000";
layers = (
{
layerId = "EE8FC948-6E49-42F4-ACA5-5A0A3F8AB331";
paths = (
{
closed = 1;
nodes = (
"646 -382 LINE",
"646 1284 LINE",
"772 1284 LINE",
"772 -382 LINE",
"872 -382 LINE",
"872 1284 LINE",
"1000 1284 LINE",
"1000 1364 LINE",
"518 1364 LINE SMOOTH",
"242 1364 OFFCURVE",
"80 1232 OFFCURVE",
"80 1000 CURVE SMOOTH",
"80 718 OFFCURVE",
"282 628 OFFCURVE",
"546 628 CURVE",
"546 -382 LINE"
);
}
);
width = 1080;
},
{
layerId = "27D48214-71DC-4330-B979-784A7B16B611";
width = 1200;
}
);
unicode = 00B6;
userData = {
com.fontlab.hintData = {
hhints = (
{
position = 642;
width = 40;
}
);
vhints = (
{
position = 40;
width = 283;
},
{
position = 273;
width = 50;
},
{
position = 386;
width = 50;
}
);
};
};
},
{
color = 11;
glyphname = periodcentered;
lastChange = "2020-01-10 19:30:18 +0000";
layers = (
{
layerId = "EE8FC948-6E49-42F4-ACA5-5A0A3F8AB331";
paths = (
{
closed = 1;
nodes = (
"394 500 OFFCURVE",
"466 563 OFFCURVE",
"466 653 CURVE SMOOTH",
"466 743 OFFCURVE",
"394 806 OFFCURVE",
"313 806 CURVE SMOOTH",
"232 806 OFFCURVE",
"160 743 OFFCURVE",
"160 653 CURVE SMOOTH",
"160 563 OFFCURVE",
"232 500 OFFCURVE",
"313 500 CURVE SMOOTH"
);
}
);
width = 626;
},
{
layerId = "27D48214-71DC-4330-B979-784A7B16B611";
width = 1200;
}
);
unicode = 00B7;
userData = {
com.fontlab.hintData = {
hhints = (
{
position = 250;
width = 153;
}
);
vhints = (
{
position = 80;
width = 153;
}
);
};
};
},
{
color = 11;
glyphname = cedilla;
lastChange = "2020-01-10 19:30:18 +0000";
layers = (
{
layerId = "EE8FC948-6E49-42F4-ACA5-5A0A3F8AB331";
paths = (
{
closed = 1;
nodes = (
"408 -428 OFFCURVE",
"516 -346 OFFCURVE",
"516 -240 CURVE SMOOTH",
"516 -176 OFFCURVE",
"470 -114 OFFCURVE",
"351 -104 CURVE",
"420 20 LINE",
"328 20 LINE",
"220 -174 LINE",
"312 -184 OFFCURVE",
"360 -222 OFFCURVE",
"360 -282 CURVE SMOOTH",
"360 -342 OFFCURVE",
"302 -390 OFFCURVE",
"232 -390 CURVE SMOOTH",
"214 -390 OFFCURVE",
"196 -388 OFFCURVE",
"160 -380 CURVE",
"152 -412 LINE",
"208 -424 OFFCURVE",
"234 -428 OFFCURVE",
"268 -428 CURVE SMOOTH"
);
}
);
width = 666;
},
{
layerId = "27D48214-71DC-4330-B979-784A7B16B611";
width = 1200;
}
);
unicode = 00B8;
userData = {
com.fontlab.hintData = {
hhints = (
{
position = -214;
width = 19;
}
);
vhints = (
{
position = 180;
width = 78;
}
);
};
};
},
{
color = 11;
glyphname = ordmasculine;
lastChange = "2020-01-10 19:30:18 +0000";
layers = (
{
layerId = "EE8FC948-6E49-42F4-ACA5-5A0A3F8AB331";
paths = (
{
closed = 1;
nodes = (
"528 771 OFFCURVE",
"654 897 OFFCURVE",
"654 1098 CURVE SMOOTH",
"654 1312 OFFCURVE",
"509 1412 OFFCURVE",
"358 1412 CURVE SMOOTH",
"164 1412 OFFCURVE",
"44 1268 OFFCURVE",
"44 1085 CURVE SMOOTH",
"44 872 OFFCURVE",
"195 771 OFFCURVE",
"340 771 CURVE SMOOTH"
);
},
{
closed = 1;
nodes = (
"264 821 OFFCURVE",
"182 897 OFFCURVE",
"182 1104 CURVE SMOOTH",
"182 1211 OFFCURVE",
"214 1362 OFFCURVE",
"346 1362 CURVE SMOOTH",
"434 1362 OFFCURVE",
"516 1280 OFFCURVE",
"516 1079 CURVE SMOOTH",
"516 966 OFFCURVE",
"490 821 OFFCURVE",
"352 821 CURVE SMOOTH"
);
}
);
width = 708;
},
{
layerId = "27D48214-71DC-4330-B979-784A7B16B611";
width = 1200;
}
);
unicode = 00BA;
userData = {
com.fontlab.hintData = {
hhints = (
{
position = 386;
width = 25;
},
{
position = 681;
width = 25;
}
);
vhints = (
{
position = 22;
width = 69;
},
{
position = 258;
width = 69;
}
);
};
};
},
{
color = 11;
glyphname = onequarter;
lastChange = "2020-01-10 19:30:18 +0000";
layers = (
{
layerId = "EE8FC948-6E49-42F4-ACA5-5A0A3F8AB331";
paths = (
{
closed = 1;
nodes = (
"423 -44 LINE",
"1345 1412 LINE",
"1243 1412 LINE",
"321 -44 LINE"
);
},
{
closed = 1;
nodes = (
"497 604 LINE",
"497 637 LINE",
"409 659 LINE SMOOTH",
"387 665 OFFCURVE",
"376 681 OFFCURVE",
"376 703 CURVE SMOOTH",
"376 714 LINE",
"376 1374 LINE",
"337 1374 LINE",
"282 1332 OFFCURVE",
"235 1318 OFFCURVE",
"155 1318 CURVE",
"155 1278 LINE",
"174 1278 LINE SMOOTH",
"237 1278 OFFCURVE",
"260 1248 OFFCURVE",
"260 1188 CURVE SMOOTH",
"260 714 LINE",
"260 703 LINE SMOOTH",
"260 681 OFFCURVE",
"249 665 OFFCURVE",
"227 659 CURVE SMOOTH",
"139 637 LINE",
"139 604 LINE"
);
},
{
closed = 1;
nodes = (
"1306 674 LINE",
"1309 674 LINE",
"1309 260 LINE",
"1052 260 LINE"
);
},
{
closed = 1;
nodes = (
"1526 0 LINE",
"1526 40 LINE",
"1457 40 OFFCURVE",
"1430 63 OFFCURVE",
"1430 127 CURVE SMOOTH",
"1430 206 LINE",
"1526 206 LINE",
"1543 330 LINE",
"1505 330 LINE",
"1489 276 OFFCURVE",
"1474 260 OFFCURVE",
"1430 260 CURVE",
"1430 770 LINE",
"1324 770 LINE",
"1007 270 LINE",
"1007 206 LINE",
"1309 206 LINE",
"1309 129 LINE SMOOTH",
"1309 66 OFFCURVE",
"1284 40 OFFCURVE",
"1210 40 CURVE",
"1210 0 LINE"
);
}
);
width = 1682;
},
{
layerId = "27D48214-71DC-4330-B979-784A7B16B611";
width = 1200;
}
);
unicode = 00BC;
userData = {
com.fontlab.hintData = {
hhints = (
{
position = 0;
width = 20;
},
{
position = 103;
width = 27;
},
{
position = 302;
width = 16;
},
{
position = 374;
width = 21;
},
{
position = 639;
width = 20;
},
{
position = 676;
width = 21;
},
{
position = 686;
width = 20;
}
);
vhints = (
{
position = 130;
width = 58;
},
{
position = 654;
width = 60;
},
{
position = 753;
width = 19;
}
);
};
};
},
{
color = 11;
glyphname = onehalf;
lastChange = "2020-01-10 19:30:18 +0000";
layers = (
{
layerId = "EE8FC948-6E49-42F4-ACA5-5A0A3F8AB331";
paths = (
{
closed = 1;
nodes = (
"424 -44 LINE",
"1346 1412 LINE",
"1244 1412 LINE",
"322 -44 LINE"
);
},
{
closed = 1;
nodes = (
"498 604 LINE",
"498 637 LINE",
"410 659 LINE SMOOTH",
"388 665 OFFCURVE",
"377 681 OFFCURVE",
"377 703 CURVE SMOOTH",
"377 714 LINE",
"377 1374 LINE",
"338 1374 LINE",
"283 1332 OFFCURVE",
"236 1318 OFFCURVE",
"156 1318 CURVE",
"156 1278 LINE",
"174 1278 LINE SMOOTH",
"238 1278 OFFCURVE",
"261 1248 OFFCURVE",
"261 1188 CURVE SMOOTH",
"261 714 LINE",
"261 703 LINE SMOOTH",
"261 681 OFFCURVE",
"250 665 OFFCURVE",
"228 659 CURVE SMOOTH",
"140 637 LINE",
"140 604 LINE"
);
},
{
closed = 1;
nodes = (
"1570 0 LINE",
"1624 182 LINE",
"1586 182 LINE",
"1555 109 OFFCURVE",
"1527 89 OFFCURVE",
"1457 89 CURVE SMOOTH",
"1204 89 LINE",
"1382 301 OFFCURVE",
"1609 367 OFFCURVE",
"1609 565 CURVE SMOOTH",
"1609 679 OFFCURVE",
"1527 770 OFFCURVE",
"1364 770 CURVE SMOOTH",
"1251 770 OFFCURVE",
"1159 688 OFFCURVE",
"1106 540 CURVE",
"1147 524 LINE",
"1192 630 OFFCURVE",
"1260 691 OFFCURVE",
"1337 691 CURVE SMOOTH",
"1445 691 OFFCURVE",
"1488 625 OFFCURVE",
"1488 545 CURVE SMOOTH",
"1488 399 OFFCURVE",
"1316 282 OFFCURVE",
"1102 40 CURVE",
"1102 0 LINE"
);
}
);
width = 1764;
},
{
layerId = "27D48214-71DC-4330-B979-784A7B16B611";
width = 1200;
}
);
unicode = 00BD;
userData = {
com.fontlab.hintData = {
hhints = (
{
position = 0;
width = 45;
},
{
position = 302;
width = 16;
},
{
position = 345;
width = 40;
},
{
position = 639;
width = 20;
},
{
position = 676;
width = 21;
},
{
position = 686;
width = 20;
}
);
vhints = (
{
position = 131;
width = 58;
},
{
position = 744;
width = 60;
}
);
};
};
},
{
color = 11;
glyphname = threequarters;
lastChange = "2020-01-10 19:30:18 +0000";
layers = (
{
layerId = "EE8FC948-6E49-42F4-ACA5-5A0A3F8AB331";
paths = (
{
closed = 1;
nodes = (
"483 -44 LINE",
"1405 1412 LINE",
"1303 1412 LINE",
"381 -44 LINE"
);
},
{
closed = 1;
nodes = (
"522 592 OFFCURVE",
"669 707 OFFCURVE",
"669 884 CURVE SMOOTH",
"669 997 OFFCURVE",
"587 1070 OFFCURVE",
"464 1070 CURVE",
"462 1072 LINE",
"573 1123 OFFCURVE",
"616 1167 OFFCURVE",
"616 1234 CURVE SMOOTH",
"616 1319 OFFCURVE",
"522 1378 OFFCURVE",
"420 1378 CURVE SMOOTH",
"308 1378 OFFCURVE",
"230 1330 OFFCURVE",
"159 1199 CURVE",
"190 1175 LINE",
"250 1262 OFFCURVE",
"307 1299 OFFCURVE",
"388 1299 CURVE SMOOTH",
"450 1299 OFFCURVE",
"495 1257 OFFCURVE",
"495 1204 CURVE SMOOTH",
"495 1122 OFFCURVE",
"424 1083 OFFCURVE",
"279 1006 CURVE",
"297 970 LINE",
"338 997 OFFCURVE",
"376 1012 OFFCURVE",
"410 1012 CURVE SMOOTH",
"488 1012 OFFCURVE",
"548 948 OFFCURVE",
"548 859 CURVE SMOOTH",
"548 712 OFFCURVE",
"439 639 OFFCURVE",
"308 639 CURVE SMOOTH",
"258 639 OFFCURVE",
"219 648 OFFCURVE",
"162 673 CURVE",
"140 641 LINE",
"187 611 OFFCURVE",
"270 592 OFFCURVE",
"348 592 CURVE SMOOTH"
);
},
{
closed = 1;
nodes = (
"1366 674 LINE",
"1368 674 LINE",
"1368 260 LINE",
"1111 260 LINE"
);
},
{
closed = 1;
nodes = (
"1586 0 LINE",
"1586 40 LINE",
"1516 40 OFFCURVE",
"1489 63 OFFCURVE",
"1489 127 CURVE SMOOTH",
"1489 206 LINE",
"1586 206 LINE",
"1602 330 LINE",
"1565 330 LINE",
"1548 276 OFFCURVE",
"1533 260 OFFCURVE",
"1489 260 CURVE",
"1489 770 LINE",
"1383 770 LINE",
"1066 270 LINE",
"1066 206 LINE",
"1368 206 LINE",
"1368 129 LINE SMOOTH",
"1368 66 OFFCURVE",
"1344 40 OFFCURVE",
"1269 40 CURVE",
"1269 0 LINE"
);
}
);
width = 1742;
},
{
layerId = "27D48214-71DC-4330-B979-784A7B16B611";
width = 1200;
}
);
unicode = 00BE;
userData = {
com.fontlab.hintData = {
hhints = (
{
position = 0;
width = 20;
},
{
position = 103;
width = 27;
},
{
position = 296;
width = 24;
},
{
position = 374;
width = 21;
},
{
position = 506;
width = 29;
},
{
position = 649;
width = 40;
},
{
position = 686;
width = 20;
}
);
vhints = (
{
position = 247;
width = 60;
},
{
position = 274;
width = 60;
},
{
position = 684;
width = 60;
},
{
position = 782;
width = 19;
}
);
};
};
},
{
color = 11;
glyphname = questiondown;
lastChange = "2020-01-10 19:30:18 +0000";
layers = (
{
layerId = "EE8FC948-6E49-42F4-ACA5-5A0A3F8AB331";
paths = (
{
closed = 1;
nodes = (
"628 -502 OFFCURVE",
"698 -454 OFFCURVE",
"698 -380 CURVE SMOOTH",
"698 -332 OFFCURVE",
"664 -298 OFFCURVE",
"614 -298 CURVE SMOOTH",
"554 -298 OFFCURVE",
"524 -342 OFFCURVE",
"452 -342 CURVE SMOOTH",
"330 -342 OFFCURVE",
"186 -178 OFFCURVE",
"186 -38 CURVE SMOOTH",
"186 8 OFFCURVE",
"210 56 OFFCURVE",
"246 92 CURVE SMOOTH",
"347 192 OFFCURVE",
"536 190 OFFCURVE",
"570 224 CURVE SMOOTH",
"580 234 OFFCURVE",
"582 244 OFFCURVE",
"582 260 CURVE SMOOTH",
"582 302 OFFCURVE",
"552 368 OFFCURVE",
"552 558 CURVE",
"472 558 LINE",
"470 494 OFFCURVE",
"462 442 OFFCURVE",
"434 414 CURVE SMOOTH",
"367 346 OFFCURVE",
"241 350 OFFCURVE",
"136 244 CURVE SMOOTH",
"82 190 OFFCURVE",
"60 124 OFFCURVE",
"60 50 CURVE SMOOTH",
"60 -75 OFFCURVE",
"242 -502 OFFCURVE",
"522 -502 CURVE SMOOTH"
);
},
{
closed = 1;
nodes = (
"587 760 OFFCURVE",
"648 821 OFFCURVE",
"648 897 CURVE SMOOTH",
"648 973 OFFCURVE",
"587 1038 OFFCURVE",
"510 1038 CURVE SMOOTH",
"433 1038 OFFCURVE",
"370 973 OFFCURVE",
"370 897 CURVE SMOOTH",
"370 821 OFFCURVE",
"433 760 OFFCURVE",
"510 760 CURVE SMOOTH"
);
}
);
width = 770;
},
{
layerId = "27D48214-71DC-4330-B979-784A7B16B611";
width = 1200;
}
);
unicode = 00BF;
userData = {
com.fontlab.hintData = {
hhints = (
{
position = -251;
width = 80;
},
{
position = 380;
width = 139;
}
);
vhints = (
{
position = 30;
width = 63;
},
{
position = 185;
width = 139;
},
{
position = 236;
width = 40;
}
);
};
};
},
{
color = 11;
glyphname = Agrave;
lastChange = "2020-01-10 19:30:18 +0000";
layers = (
{
layerId = "EE8FC948-6E49-42F4-ACA5-5A0A3F8AB331";
paths = (
{
closed = 1;
nodes = (
"520 0 LINE",
"520 60 LINE",
"390 100 LINE SMOOTH",
"350 112 OFFCURVE",
"320 160 OFFCURVE",
"334 200 CURVE SMOOTH",
"470 580 LINE",
"950 580 LINE",
"1090 200 LINE SMOOTH",
"1104 160 OFFCURVE",
"1080 112 OFFCURVE",
"1040 100 CURVE SMOOTH",
"910 60 LINE",
"910 0 LINE",
"1560 0 LINE",
"1560 60 LINE",
"1420 100 LINE SMOOTH",
"1380 112 OFFCURVE",
"1372 140 OFFCURVE",
"1356 180 CURVE SMOOTH",
"870 1400 LINE",
"680 1400 LINE",
"204 180 LINE SMOOTH",
"188 140 OFFCURVE",
"170 108 OFFCURVE",
"140 100 CURVE SMOOTH",
"0 60 LINE",
"0 0 LINE"
);
},
{
closed = 1;
nodes = (
"710 1240 LINE",
"920 670 LINE",
"500 670 LINE"
);
},
{
closed = 1;
nodes = (
"800 1580 LINE",
"700 1920 LINE",
"460 1920 LINE",
"740 1580 LINE"
);
}
);
width = 1560;
},
{
layerId = "27D48214-71DC-4330-B979-784A7B16B611";
width = 1200;
}
);
unicode = 00C0;
userData = {
com.fontlab.hintData = {
hhints = (
{
position = 0;
width = 30;
},
{
position = 290;
width = 45;
},
{
position = 680;
width = 20;
},
{
position = 790;
width = 170;
}
);
vhints = (
{
position = 230;
width = 170;
}
);
};
};
},
{
color = 11;
glyphname = Aacute;
lastChange = "2020-01-10 19:30:18 +0000";
layers = (
{
layerId = "EE8FC948-6E49-42F4-ACA5-5A0A3F8AB331";
paths = (
{
closed = 1;
nodes = (
"520 0 LINE",
"520 60 LINE",
"390 100 LINE SMOOTH",
"350 112 OFFCURVE",
"320 160 OFFCURVE",
"334 200 CURVE SMOOTH",
"470 580 LINE",
"950 580 LINE",
"1090 200 LINE SMOOTH",
"1104 160 OFFCURVE",
"1080 112 OFFCURVE",
"1040 100 CURVE SMOOTH",
"910 60 LINE",
"910 0 LINE",
"1560 0 LINE",
"1560 60 LINE",
"1420 100 LINE SMOOTH",
"1380 112 OFFCURVE",
"1372 140 OFFCURVE",
"1356 180 CURVE SMOOTH",
"870 1400 LINE",
"680 1400 LINE",
"204 180 LINE SMOOTH",
"188 140 OFFCURVE",
"170 108 OFFCURVE",
"140 100 CURVE SMOOTH",
"0 60 LINE",
"0 0 LINE"
);
},
{
closed = 1;
nodes = (
"710 1240 LINE",
"920 670 LINE",
"500 670 LINE"
);
},
{
closed = 1;
nodes = (
"740 1580 LINE",
"1020 1920 LINE",
"780 1920 LINE",
"680 1580 LINE"
);
}
);
width = 1560;
},
{
layerId = "27D48214-71DC-4330-B979-784A7B16B611";
width = 1200;
}
);
unicode = 00C1;
userData = {
com.fontlab.hintData = {
hhints = (
{
position = 0;
width = 30;
},
{
position = 290;
width = 45;
},
{
position = 680;
width = 20;
},
{
position = 790;
width = 170;
}
);
vhints = (
{
position = 340;
width = 170;
}
);
};
};
},
{
color = 11;
glyphname = Acircumflex;
lastChange = "2020-01-10 19:30:18 +0000";
layers = (
{
layerId = "EE8FC948-6E49-42F4-ACA5-5A0A3F8AB331";
paths = (
{
closed = 1;
nodes = (
"520 0 LINE",
"520 60 LINE",
"390 100 LINE SMOOTH",
"350 112 OFFCURVE",
"320 160 OFFCURVE",
"334 200 CURVE SMOOTH",
"470 580 LINE",
"950 580 LINE",
"1090 200 LINE SMOOTH",
"1104 160 OFFCURVE",
"1080 112 OFFCURVE",
"1040 100 CURVE SMOOTH",
"910 60 LINE",
"910 0 LINE",
"1560 0 LINE",
"1560 60 LINE",
"1420 100 LINE SMOOTH",
"1380 112 OFFCURVE",
"1372 140 OFFCURVE",
"1356 180 CURVE SMOOTH",
"870 1400 LINE",
"680 1400 LINE",
"204 180 LINE SMOOTH",
"188 140 OFFCURVE",
"170 108 OFFCURVE",
"140 100 CURVE SMOOTH",
"0 60 LINE",
"0 0 LINE"
);
},
{
closed = 1;
nodes = (
"710 1240 LINE",
"920 670 LINE",
"500 670 LINE"
);
},
{
closed = 1;
nodes = (
"515 1550 LINE",
"775 1783 LINE",
"1035 1550 LINE",
"1095 1550 LINE",
"895 1890 LINE",
"655 1890 LINE",
"455 1550 LINE"
);
}
);
width = 1560;
},
{
layerId = "27D48214-71DC-4330-B979-784A7B16B611";
width = 1200;
}
);
unicode = 00C2;
userData = {
com.fontlab.hintData = {
hhints = (
{
position = 0;
width = 30;
},
{
position = 290;
width = 45;
},
{
position = 680;
width = 20;
},
{
position = 775;
width = 170;
}
);
vhints = (
{
position = 228;
width = 320;
}
);
};
};
},
{
color = 11;
glyphname = Atilde;
lastChange = "2020-01-10 19:31:34 +0000";
layers = (
{
layerId = "EE8FC948-6E49-42F4-ACA5-5A0A3F8AB331";
paths = (
{
closed = 1;
nodes = (
"520 0 LINE",
"520 60 LINE",
"390 100 LINE SMOOTH",
"350 112 OFFCURVE",
"320 160 OFFCURVE",
"334 200 CURVE SMOOTH",
"470 580 LINE",
"950 580 LINE",
"1090 200 LINE SMOOTH",
"1104 160 OFFCURVE",
"1080 112 OFFCURVE",
"1040 100 CURVE SMOOTH",
"910 60 LINE",
"910 0 LINE",
"1560 0 LINE",
"1560 60 LINE",
"1420 100 LINE SMOOTH",
"1380 112 OFFCURVE",
"1372 140 OFFCURVE",
"1356 180 CURVE SMOOTH",
"870 1400 LINE",
"680 1400 LINE",
"204 180 LINE SMOOTH",
"188 140 OFFCURVE",
"170 108 OFFCURVE",
"140 100 CURVE SMOOTH",
"0 60 LINE",
"0 0 LINE"
);
},
{
closed = 1;
nodes = (
"710 1240 LINE",
"920 670 LINE",
"500 670 LINE"
);
},
{
closed = 1;
nodes = (
"1031 1550 OFFCURVE",
"1107 1658 OFFCURVE",
"1107 1808 CURVE",
"1057 1808 LINE",
"1047 1718 OFFCURVE",
"1015 1670 OFFCURVE",
"963 1670 CURVE SMOOTH",
"929 1670 OFFCURVE",
"888 1695 OFFCURVE",
"843 1726 CURVE SMOOTH",
"784 1766 OFFCURVE",
"718 1808 OFFCURVE",
"647 1808 CURVE SMOOTH",
"521 1808 OFFCURVE",
"447 1718 OFFCURVE",
"443 1554 CURVE",
"493 1554 LINE",
"501 1630 OFFCURVE",
"529 1688 OFFCURVE",
"583 1688 CURVE SMOOTH",
"622 1688 OFFCURVE",
"666 1661 OFFCURVE",
"713 1628 CURVE SMOOTH",
"766 1591 OFFCURVE",
"830 1550 OFFCURVE",
"899 1550 CURVE SMOOTH"
);
}
);
width = 1560;
},
{
layerId = "27D48214-71DC-4330-B979-784A7B16B611";
width = 600;
}
);
unicode = 00C3;
userData = {
com.fontlab.hintData = {
hhints = (
{
position = 0;
width = 30;
},
{
position = 290;
width = 45;
},
{
position = 680;
width = 20;
},
{
position = 775;
width = 60;
},
{
position = 844;
width = 60;
}
);
vhints = (
{
position = 222;
width = 25;
},
{
position = 528;
width = 25;
}
);
};
};
},
{
color = 11;
glyphname = Adieresis;
lastChange = "2020-01-10 19:31:34 +0000";
layers = (
{
layerId = "EE8FC948-6E49-42F4-ACA5-5A0A3F8AB331";
paths = (
{
closed = 1;
nodes = (
"520 0 LINE",
"520 60 LINE",
"390 100 LINE SMOOTH",
"350 112 OFFCURVE",
"320 160 OFFCURVE",
"334 200 CURVE SMOOTH",
"470 580 LINE",
"950 580 LINE",
"1090 200 LINE SMOOTH",
"1104 160 OFFCURVE",
"1080 112 OFFCURVE",
"1040 100 CURVE SMOOTH",
"910 60 LINE",
"910 0 LINE",
"1560 0 LINE",
"1560 60 LINE",
"1420 100 LINE SMOOTH",
"1380 112 OFFCURVE",
"1372 140 OFFCURVE",
"1356 180 CURVE SMOOTH",
"870 1400 LINE",
"680 1400 LINE",
"204 180 LINE SMOOTH",
"188 140 OFFCURVE",
"170 108 OFFCURVE",
"140 100 CURVE SMOOTH",
"0 60 LINE",
"0 0 LINE"
);
},
{
closed = 1;
nodes = (
"710 1240 LINE",
"920 670 LINE",
"500 670 LINE"
);
},
{
closed = 1;
nodes = (
"650 1550 OFFCURVE",
"702 1603 OFFCURVE",
"702 1667 CURVE SMOOTH",
"702 1730 OFFCURVE",
"650 1783 OFFCURVE",
"586 1783 CURVE SMOOTH",
"522 1783 OFFCURVE",
"469 1730 OFFCURVE",
"469 1667 CURVE SMOOTH",
"469 1603 OFFCURVE",
"522 1550 OFFCURVE",
"586 1550 CURVE SMOOTH"
);
},
{
closed = 1;
nodes = (
"1028 1550 OFFCURVE",
"1081 1603 OFFCURVE",
"1081 1667 CURVE SMOOTH",
"1081 1730 OFFCURVE",
"1028 1783 OFFCURVE",
"964 1783 CURVE SMOOTH",
"900 1783 OFFCURVE",
"848 1730 OFFCURVE",
"848 1667 CURVE SMOOTH",
"848 1603 OFFCURVE",
"900 1550 OFFCURVE",
"964 1550 CURVE SMOOTH"
);
}
);
width = 1560;
},
{
layerId = "27D48214-71DC-4330-B979-784A7B16B611";
width = 600;
}
);
unicode = 00C4;
userData = {
com.fontlab.hintData = {
hhints = (
{
position = 0;
width = 30;
},
{
position = 290;
width = 45;
},
{
position = 680;
width = 20;
},
{
position = 775;
width = 117;
}
);
vhints = (
{
position = 235;
width = 117;
},
{
position = 424;
width = 117;
}
);
};
};
},
{
color = 11;
glyphname = Aring;
lastChange = "2020-01-10 19:30:18 +0000";
layers = (
{
layerId = "EE8FC948-6E49-42F4-ACA5-5A0A3F8AB331";
paths = (
{
closed = 1;
nodes = (
"520 0 LINE",
"520 60 LINE",
"390 100 LINE SMOOTH",
"350 112 OFFCURVE",
"320 160 OFFCURVE",
"334 200 CURVE SMOOTH",
"470 580 LINE",
"950 580 LINE",
"1090 200 LINE SMOOTH",
"1104 160 OFFCURVE",
"1080 112 OFFCURVE",
"1040 100 CURVE SMOOTH",
"910 60 LINE",
"910 0 LINE",
"1560 0 LINE",
"1560 60 LINE",
"1420 100 LINE SMOOTH",
"1380 112 OFFCURVE",
"1372 140 OFFCURVE",
"1356 180 CURVE SMOOTH",
"870 1400 LINE",
"680 1400 LINE",
"204 180 LINE SMOOTH",
"188 140 OFFCURVE",
"170 108 OFFCURVE",
"140 100 CURVE SMOOTH",
"0 60 LINE",
"0 0 LINE"
);
},
{
closed = 1;
nodes = (
"710 1240 LINE",
"920 670 LINE",
"500 670 LINE"
);
},
{
closed = 1;
nodes = (
"878 1418 OFFCURVE",
"962 1502 OFFCURVE",
"962 1606 CURVE SMOOTH",
"962 1710 OFFCURVE",
"878 1792 OFFCURVE",
"774 1792 CURVE SMOOTH",
"670 1792 OFFCURVE",
"588 1710 OFFCURVE",
"588 1606 CURVE SMOOTH",
"588 1502 OFFCURVE",
"670 1418 OFFCURVE",
"774 1418 CURVE SMOOTH"
);
},
{
closed = 1;
nodes = (
"715 1497 OFFCURVE",
"668 1546 OFFCURVE",
"668 1605 CURVE SMOOTH",
"668 1665 OFFCURVE",
"715 1712 OFFCURVE",
"774 1712 CURVE SMOOTH",
"834 1712 OFFCURVE",
"882 1665 OFFCURVE",
"882 1605 CURVE SMOOTH",
"882 1546 OFFCURVE",
"834 1497 OFFCURVE",
"774 1497 CURVE SMOOTH"
);
}
);
width = 1560;
},
{
layerId = "27D48214-71DC-4330-B979-784A7B16B611";
width = 1200;
}
);
unicode = 00C5;
userData = {
com.fontlab.hintData = {
hhints = (
{
position = 0;
width = 30;
},
{
position = 290;
width = 45;
},
{
position = 680;
width = 20;
},
{
position = 709;
width = 40;
},
{
position = 856;
width = 40;
}
);
vhints = (
{
position = 294;
width = 40;
},
{
position = 441;
width = 40;
}
);
};
};
},
{
color = 11;
glyphname = AE;
lastChange = "2020-01-10 19:30:18 +0000";
layers = (
{
anchors = (
{
name = "Anchor-1";
position = "{1232, 1620}";
},
{
name = Anchor1;
position = "{1232, 1620}";
}
);
layerId = "EE8FC948-6E49-42F4-ACA5-5A0A3F8AB331";
paths = (
{
closed = 1;
nodes = (
"600 0 LINE",
"600 60 LINE",
"470 100 LINE SMOOTH",
"430 112 OFFCURVE",
"393 164 OFFCURVE",
"414 200 CURVE SMOOTH",
"642 580 LINE",
"1010 580 LINE",
"1010 180 LINE SMOOTH",
"1010 140 OFFCURVE",
"990 110 OFFCURVE",
"950 100 CURVE SMOOTH",
"790 60 LINE",
"790 0 LINE",
"1440 0 LINE",
"1950 0 LINE",
"2010 420 LINE",
"1930 420 LINE",
"1850 260 LINE SMOOTH",
"1790 140 OFFCURVE",
"1730 100 OFFCURVE",
"1610 100 CURVE SMOOTH",
"1300 100 LINE",
"1256 112 OFFCURVE",
"1230 137 OFFCURVE",
"1230 180 CURVE SMOOTH",
"1230 180 LINE",
"1230 680 LINE",
"1390 680 LINE SMOOTH",
"1490 680 OFFCURVE",
"1563 660 OFFCURVE",
"1590 580 CURVE SMOOTH",
"1630 460 LINE",
"1690 460 LINE",
"1690 980 LINE",
"1630 980 LINE",
"1590 860 LINE SMOOTH",
"1563 780 OFFCURVE",
"1490 760 OFFCURVE",
"1390 760 CURVE SMOOTH",
"1230 760 LINE",
"1230 1220 LINE SMOOTH",
"1230 1280 OFFCURVE",
"1270 1300 OFFCURVE",
"1310 1300 CURVE SMOOTH",
"1510 1300 LINE SMOOTH",
"1630 1300 OFFCURVE",
"1700 1280 OFFCURVE",
"1750 1180 CURVE SMOOTH",
"1830 1020 LINE",
"1910 1020 LINE",
"1910 1400 LINE",
"790 1400 LINE",
"790 1340 LINE",
"926 1306 LINE",
"284 180 LINE SMOOTH",
"263 143 OFFCURVE",
"250 109 OFFCURVE",
"220 100 CURVE SMOOTH",
"80 60 LINE",
"80 0 LINE"
);
},
{
closed = 1;
nodes = (
"1009 1238 LINE SMOOTH",
"1010 1232 OFFCURVE",
"1010 1226 OFFCURVE",
"1010 1220 CURVE SMOOTH",
"1010 670 LINE",
"682 670 LINE"
);
}
);
width = 2090;
},
{
layerId = "27D48214-71DC-4330-B979-784A7B16B611";
width = 1200;
}
);
unicode = 00C6;
userData = {
com.fontlab.hintData = {
hhints = (
{
position = 0;
width = 30;
},
{
position = 0;
width = 50;
},
{
position = 290;
width = 45;
},
{
position = 340;
width = 40;
},
{
position = 470;
width = 20;
},
{
position = 650;
width = 50;
},
{
position = 670;
width = 30;
}
);
vhints = (
{
position = 505;
width = 110;
},
{
position = 595;
width = 20;
}
);
};
};
},
{
color = 11;
glyphname = Ccedilla;
lastChange = "2020-01-10 19:30:18 +0000";
layers = (
{
layerId = "EE8FC948-6E49-42F4-ACA5-5A0A3F8AB331";
paths = (
{
closed = 1;
nodes = (
"821 -463 OFFCURVE",
"929 -381 OFFCURVE",
"929 -275 CURVE SMOOTH",
"929 -211 OFFCURVE",
"883 -149 OFFCURVE",
"764 -139 CURVE",
"825 -30 LINE",
"990 -26 OFFCURVE",
"1131 28 OFFCURVE",
"1248 118 CURVE",
"1248 412 LINE",
"1160 412 LINE",
"1109 158 OFFCURVE",
"961 50 OFFCURVE",
"814 50 CURVE SMOOTH",
"794 50 LINE SMOOTH",
"549 50 OFFCURVE",
"320 232 OFFCURVE",
"320 730 CURVE SMOOTH",
"320 987 OFFCURVE",
"410 1350 OFFCURVE",
"780 1350 CURVE SMOOTH",
"814 1350 LINE SMOOTH",
"961 1350 OFFCURVE",
"1109 1242 OFFCURVE",
"1160 988 CURVE",
"1248 988 LINE",
"1248 1282 LINE",
"1127 1375 OFFCURVE",
"981 1430 OFFCURVE",
"808 1430 CURVE SMOOTH",
"357 1430 OFFCURVE",
"80 1102 OFFCURVE",
"80 686 CURVE SMOOTH",
"80 215 OFFCURVE",
"408 -15 OFFCURVE",
"733 -29 CURVE",
"633 -209 LINE",
"725 -219 OFFCURVE",
"773 -257 OFFCURVE",
"773 -317 CURVE SMOOTH",
"773 -377 OFFCURVE",
"715 -425 OFFCURVE",
"645 -425 CURVE SMOOTH",
"627 -425 OFFCURVE",
"609 -423 OFFCURVE",
"573 -415 CURVE",
"565 -447 LINE",
"621 -459 OFFCURVE",
"647 -463 OFFCURVE",
"681 -463 CURVE SMOOTH"
);
}
);
width = 1328;
},
{
layerId = "27D48214-71DC-4330-B979-784A7B16B611";
width = 1200;
}
);
unicode = 00C7;
userData = {
com.fontlab.hintData = {
hhints = (
{
position = -232;
width = 19;
},
{
position = -15;
width = 40;
},
{
position = 494;
width = 21;
},
{
position = 675;
width = 40;
}
);
vhints = (
{
position = 40;
width = 120;
},
{
position = 386;
width = 78;
},
{
position = 580;
width = 44;
}
);
};
};
},
{
color = 11;
glyphname = Egrave;
lastChange = "2020-01-10 19:30:19 +0000";
layers = (
{
layerId = "EE8FC948-6E49-42F4-ACA5-5A0A3F8AB331";
paths = (
{
closed = 1;
nodes = (
"1240 0 LINE",
"1300 420 LINE",
"1220 420 LINE",
"1140 260 LINE SMOOTH",
"1080 140 OFFCURVE",
"1020 100 OFFCURVE",
"900 100 CURVE SMOOTH",
"600 100 LINE SMOOTH",
"560 100 OFFCURVE",
"520 120 OFFCURVE",
"520 180 CURVE SMOOTH",
"520 680 LINE",
"680 680 LINE SMOOTH",
"780 680 OFFCURVE",
"854 660 OFFCURVE",
"880 580 CURVE SMOOTH",
"920 460 LINE",
"980 460 LINE",
"980 980 LINE",
"920 980 LINE",
"880 860 LINE SMOOTH",
"854 780 OFFCURVE",
"780 760 OFFCURVE",
"680 760 CURVE SMOOTH",
"520 760 LINE",
"520 1220 LINE SMOOTH",
"520 1280 OFFCURVE",
"560 1300 OFFCURVE",
"600 1300 CURVE SMOOTH",
"800 1300 LINE SMOOTH",
"920 1300 OFFCURVE",
"990 1280 OFFCURVE",
"1040 1180 CURVE SMOOTH",
"1120 1020 LINE",
"1200 1020 LINE",
"1200 1400 LINE",
"80 1400 LINE",
"80 1340 LINE",
"240 1300 LINE SMOOTH",
"280 1290 OFFCURVE",
"300 1260 OFFCURVE",
"300 1220 CURVE SMOOTH",
"300 180 LINE SMOOTH",
"300 140 OFFCURVE",
"280 110 OFFCURVE",
"240 100 CURVE SMOOTH",
"80 60 LINE",
"80 0 LINE"
);
},
{
closed = 1;
nodes = (
"720 1580 LINE",
"620 1920 LINE",
"380 1920 LINE",
"660 1580 LINE"
);
}
);
width = 1380;
},
{
layerId = "27D48214-71DC-4330-B979-784A7B16B611";
width = 1200;
}
);
unicode = 00C8;
userData = {
com.fontlab.hintData = {
hhints = (
{
position = 0;
width = 30;
},
{
position = 0;
width = 50;
},
{
position = 340;
width = 40;
},
{
position = 470;
width = 20;
},
{
position = 650;
width = 50;
},
{
position = 670;
width = 30;
},
{
position = 790;
width = 170;
}
);
vhints = (
{
position = 150;
width = 110;
},
{
position = 190;
width = 170;
},
{
position = 240;
width = 20;
},
{
position = 440;
width = 50;
}
);
};
};
},
{
color = 11;
glyphname = Eacute;
lastChange = "2020-01-10 19:30:19 +0000";
layers = (
{
layerId = "EE8FC948-6E49-42F4-ACA5-5A0A3F8AB331";
paths = (
{
closed = 1;
nodes = (
"1240 0 LINE",
"1300 420 LINE",
"1220 420 LINE",
"1140 260 LINE SMOOTH",
"1080 140 OFFCURVE",
"1020 100 OFFCURVE",
"900 100 CURVE SMOOTH",
"600 100 LINE SMOOTH",
"560 100 OFFCURVE",
"520 120 OFFCURVE",
"520 180 CURVE SMOOTH",
"520 680 LINE",
"680 680 LINE SMOOTH",
"780 680 OFFCURVE",
"854 660 OFFCURVE",
"880 580 CURVE SMOOTH",
"920 460 LINE",
"980 460 LINE",
"980 980 LINE",
"920 980 LINE",
"880 860 LINE SMOOTH",
"854 780 OFFCURVE",
"780 760 OFFCURVE",
"680 760 CURVE SMOOTH",
"520 760 LINE",
"520 1220 LINE SMOOTH",
"520 1280 OFFCURVE",
"560 1300 OFFCURVE",
"600 1300 CURVE SMOOTH",
"800 1300 LINE SMOOTH",
"920 1300 OFFCURVE",
"990 1280 OFFCURVE",
"1040 1180 CURVE SMOOTH",
"1120 1020 LINE",
"1200 1020 LINE",
"1200 1400 LINE",
"80 1400 LINE",
"80 1340 LINE",
"240 1300 LINE SMOOTH",
"280 1290 OFFCURVE",
"300 1260 OFFCURVE",
"300 1220 CURVE SMOOTH",
"300 180 LINE SMOOTH",
"300 140 OFFCURVE",
"280 110 OFFCURVE",
"240 100 CURVE SMOOTH",
"80 60 LINE",
"80 0 LINE"
);
},
{
closed = 1;
nodes = (
"660 1580 LINE",
"940 1920 LINE",
"700 1920 LINE",
"600 1580 LINE"
);
}
);
width = 1380;
},
{
layerId = "27D48214-71DC-4330-B979-784A7B16B611";
width = 1200;
}
);
unicode = 00C9;
userData = {
com.fontlab.hintData = {
hhints = (
{
position = 0;
width = 30;
},
{
position = 0;
width = 50;
},
{
position = 340;
width = 40;
},
{
position = 470;
width = 20;
},
{
position = 650;
width = 50;
},
{
position = 670;
width = 30;
},
{
position = 790;
width = 170;
}
);
vhints = (
{
position = 150;
width = 110;
},
{
position = 240;
width = 20;
},
{
position = 300;
width = 170;
},
{
position = 440;
width = 50;
}
);
};
};
},
{
color = 11;
glyphname = Ecircumflex;
lastChange = "2020-01-10 19:30:19 +0000";
layers = (
{
layerId = "EE8FC948-6E49-42F4-ACA5-5A0A3F8AB331";
paths = (
{
closed = 1;
nodes = (
"1240 0 LINE",
"1300 420 LINE",
"1220 420 LINE",
"1140 260 LINE SMOOTH",
"1080 140 OFFCURVE",
"1020 100 OFFCURVE",
"900 100 CURVE SMOOTH",
"600 100 LINE SMOOTH",
"560 100 OFFCURVE",
"520 120 OFFCURVE",
"520 180 CURVE SMOOTH",
"520 680 LINE",
"680 680 LINE SMOOTH",
"780 680 OFFCURVE",
"854 660 OFFCURVE",
"880 580 CURVE SMOOTH",
"920 460 LINE",
"980 460 LINE",
"980 980 LINE",
"920 980 LINE",
"880 860 LINE SMOOTH",
"854 780 OFFCURVE",
"780 760 OFFCURVE",
"680 760 CURVE SMOOTH",
"520 760 LINE",
"520 1220 LINE SMOOTH",
"520 1280 OFFCURVE",
"560 1300 OFFCURVE",
"600 1300 CURVE SMOOTH",
"800 1300 LINE SMOOTH",
"920 1300 OFFCURVE",
"990 1280 OFFCURVE",
"1040 1180 CURVE SMOOTH",
"1120 1020 LINE",
"1200 1020 LINE",
"1200 1400 LINE",
"80 1400 LINE",
"80 1340 LINE",
"240 1300 LINE SMOOTH",
"280 1290 OFFCURVE",
"300 1260 OFFCURVE",
"300 1220 CURVE SMOOTH",
"300 180 LINE SMOOTH",
"300 140 OFFCURVE",
"280 110 OFFCURVE",
"240 100 CURVE SMOOTH",
"80 60 LINE",
"80 0 LINE"
);
},
{
closed = 1;
nodes = (
"380 1550 LINE",
"640 1783 LINE",
"900 1550 LINE",
"960 1550 LINE",
"760 1890 LINE",
"520 1890 LINE",
"320 1550 LINE"
);
}
);
width = 1380;
},
{
layerId = "27D48214-71DC-4330-B979-784A7B16B611";
width = 1200;
}
);
unicode = 00CA;
userData = {
com.fontlab.hintData = {
hhints = (
{
position = 0;
width = 30;
},
{
position = 0;
width = 50;
},
{
position = 340;
width = 40;
},
{
position = 470;
width = 20;
},
{
position = 650;
width = 50;
},
{
position = 670;
width = 30;
},
{
position = 775;
width = 170;
}
);
vhints = (
{
position = 150;
width = 110;
},
{
position = 160;
width = 320;
},
{
position = 240;
width = 20;
},
{
position = 440;
width = 50;
}
);
};
};
},
{
color = 11;
glyphname = Edieresis;
lastChange = "2020-01-10 19:30:19 +0000";
layers = (
{
layerId = "EE8FC948-6E49-42F4-ACA5-5A0A3F8AB331";
paths = (
{
closed = 1;
nodes = (
"1240 0 LINE",
"1300 420 LINE",
"1220 420 LINE",
"1140 260 LINE SMOOTH",
"1080 140 OFFCURVE",
"1020 100 OFFCURVE",
"900 100 CURVE SMOOTH",
"600 100 LINE SMOOTH",
"560 100 OFFCURVE",
"520 120 OFFCURVE",
"520 180 CURVE SMOOTH",
"520 680 LINE",
"680 680 LINE SMOOTH",
"780 680 OFFCURVE",
"854 660 OFFCURVE",
"880 580 CURVE SMOOTH",
"920 460 LINE",
"980 460 LINE",
"980 980 LINE",
"920 980 LINE",
"880 860 LINE SMOOTH",
"854 780 OFFCURVE",
"780 760 OFFCURVE",
"680 760 CURVE SMOOTH",
"520 760 LINE",
"520 1220 LINE SMOOTH",
"520 1280 OFFCURVE",
"560 1300 OFFCURVE",
"600 1300 CURVE SMOOTH",
"800 1300 LINE SMOOTH",
"920 1300 OFFCURVE",
"990 1280 OFFCURVE",
"1040 1180 CURVE SMOOTH",
"1120 1020 LINE",
"1200 1020 LINE",
"1200 1400 LINE",
"80 1400 LINE",
"80 1340 LINE",
"240 1300 LINE SMOOTH",
"280 1290 OFFCURVE",
"300 1260 OFFCURVE",
"300 1220 CURVE SMOOTH",
"300 180 LINE SMOOTH",
"300 140 OFFCURVE",
"280 110 OFFCURVE",
"240 100 CURVE SMOOTH",
"80 60 LINE",
"80 0 LINE"
);
},
{
closed = 1;
nodes = (
"515 1550 OFFCURVE",
"567 1603 OFFCURVE",
"567 1667 CURVE SMOOTH",
"567 1730 OFFCURVE",
"515 1783 OFFCURVE",
"451 1783 CURVE SMOOTH",
"387 1783 OFFCURVE",
"334 1730 OFFCURVE",
"334 1667 CURVE SMOOTH",
"334 1603 OFFCURVE",
"387 1550 OFFCURVE",
"451 1550 CURVE SMOOTH"
);
},
{
closed = 1;
nodes = (
"893 1550 OFFCURVE",
"946 1603 OFFCURVE",
"946 1667 CURVE SMOOTH",
"946 1730 OFFCURVE",
"893 1783 OFFCURVE",
"829 1783 CURVE SMOOTH",
"765 1783 OFFCURVE",
"713 1730 OFFCURVE",
"713 1667 CURVE SMOOTH",
"713 1603 OFFCURVE",
"765 1550 OFFCURVE",
"829 1550 CURVE SMOOTH"
);
}
);
width = 1380;
},
{
layerId = "27D48214-71DC-4330-B979-784A7B16B611";
width = 1200;
}
);
unicode = 00CB;
userData = {
com.fontlab.hintData = {
hhints = (
{
position = 0;
width = 30;
},
{
position = 0;
width = 50;
},
{
position = 340;
width = 40;
},
{
position = 470;
width = 20;
},
{
position = 650;
width = 50;
},
{
position = 670;
width = 30;
},
{
position = 775;
width = 117;
}
);
vhints = (
{
position = 150;
width = 110;
},
{
position = 167;
width = 117;
},
{
position = 240;
width = 20;
},
{
position = 356;
width = 117;
},
{
position = 440;
width = 50;
}
);
};
};
},
{
color = 11;
glyphname = Igrave;
lastChange = "2020-01-10 19:30:19 +0000";
layers = (
{
layerId = "EE8FC948-6E49-42F4-ACA5-5A0A3F8AB331";
paths = (
{
closed = 1;
nodes = (
"740 0 LINE",
"740 60 LINE",
"580 100 LINE SMOOTH",
"540 110 OFFCURVE",
"520 140 OFFCURVE",
"520 180 CURVE SMOOTH",
"520 1220 LINE SMOOTH",
"520 1260 OFFCURVE",
"540 1290 OFFCURVE",
"580 1300 CURVE SMOOTH",
"740 1340 LINE",
"740 1400 LINE",
"80 1400 LINE",
"80 1340 LINE",
"240 1300 LINE SMOOTH",
"280 1290 OFFCURVE",
"300 1260 OFFCURVE",
"300 1220 CURVE SMOOTH",
"300 180 LINE SMOOTH",
"300 140 OFFCURVE",
"280 110 OFFCURVE",
"240 100 CURVE SMOOTH",
"80 60 LINE",
"80 0 LINE"
);
},
{
closed = 1;
nodes = (
"450 1580 LINE",
"350 1920 LINE",
"110 1920 LINE",
"390 1580 LINE"
);
}
);
width = 820;
},
{
layerId = "27D48214-71DC-4330-B979-784A7B16B611";
width = 1200;
}
);
unicode = 00CC;
userData = {
com.fontlab.hintData = {
hhints = (
{
position = 0;
width = 30;
},
{
position = 670;
width = 30;
},
{
position = 790;
width = 170;
}
);
vhints = (
{
position = 55;
width = 170;
},
{
position = 150;
width = 110;
}
);
};
};
},
{
color = 11;
glyphname = Iacute;
lastChange = "2020-01-10 19:30:19 +0000";
layers = (
{
layerId = "EE8FC948-6E49-42F4-ACA5-5A0A3F8AB331";
paths = (
{
closed = 1;
nodes = (
"740 0 LINE",
"740 60 LINE",
"580 100 LINE SMOOTH",
"540 110 OFFCURVE",
"520 140 OFFCURVE",
"520 180 CURVE SMOOTH",
"520 1220 LINE SMOOTH",
"520 1260 OFFCURVE",
"540 1290 OFFCURVE",
"580 1300 CURVE SMOOTH",
"740 1340 LINE",
"740 1400 LINE",
"80 1400 LINE",
"80 1340 LINE",
"240 1300 LINE SMOOTH",
"280 1290 OFFCURVE",
"300 1260 OFFCURVE",
"300 1220 CURVE SMOOTH",
"300 180 LINE SMOOTH",
"300 140 OFFCURVE",
"280 110 OFFCURVE",
"240 100 CURVE SMOOTH",
"80 60 LINE",
"80 0 LINE"
);
},
{
closed = 1;
nodes = (
"390 1580 LINE",
"670 1920 LINE",
"430 1920 LINE",
"330 1580 LINE"
);
}
);
width = 820;
},
{
layerId = "27D48214-71DC-4330-B979-784A7B16B611";
width = 1200;
}
);
unicode = 00CD;
userData = {
com.fontlab.hintData = {
hhints = (
{
position = 0;
width = 30;
},
{
position = 670;
width = 30;
},
{
position = 790;
width = 170;
}
);
vhints = (
{
position = 150;
width = 110;
},
{
position = 165;
width = 170;
}
);
};
};
},
{
color = 11;
glyphname = Icircumflex;
lastChange = "2020-01-10 19:30:19 +0000";
layers = (
{
layerId = "EE8FC948-6E49-42F4-ACA5-5A0A3F8AB331";
paths = (
{
closed = 1;
nodes = (
"740 0 LINE",
"740 60 LINE",
"580 100 LINE SMOOTH",
"540 110 OFFCURVE",
"520 140 OFFCURVE",
"520 180 CURVE SMOOTH",
"520 1220 LINE SMOOTH",
"520 1260 OFFCURVE",
"540 1290 OFFCURVE",
"580 1300 CURVE SMOOTH",
"740 1340 LINE",
"740 1400 LINE",
"80 1400 LINE",
"80 1340 LINE",
"240 1300 LINE SMOOTH",
"280 1290 OFFCURVE",
"300 1260 OFFCURVE",
"300 1220 CURVE SMOOTH",
"300 180 LINE SMOOTH",
"300 140 OFFCURVE",
"280 110 OFFCURVE",
"240 100 CURVE SMOOTH",
"80 60 LINE",
"80 0 LINE"
);
},
{
closed = 1;
nodes = (
"150 1550 LINE",
"410 1783 LINE",
"670 1550 LINE",
"730 1550 LINE",
"530 1890 LINE",
"290 1890 LINE",
"90 1550 LINE"
);
}
);
width = 820;
},
{
layerId = "27D48214-71DC-4330-B979-784A7B16B611";
width = 1200;
}
);
unicode = 00CE;
userData = {
com.fontlab.hintData = {
hhints = (
{
position = 0;
width = 30;
},
{
position = 670;
width = 30;
},
{
position = 775;
width = 170;
}
);
vhints = (
{
position = 45;
width = 320;
},
{
position = 150;
width = 110;
}
);
};
};
},
{
color = 11;
glyphname = Idieresis;
lastChange = "2020-01-10 19:30:19 +0000";
layers = (
{
layerId = "EE8FC948-6E49-42F4-ACA5-5A0A3F8AB331";
paths = (
{
closed = 1;
nodes = (
"740 0 LINE",
"740 60 LINE",
"580 100 LINE SMOOTH",
"540 110 OFFCURVE",
"520 140 OFFCURVE",
"520 180 CURVE SMOOTH",
"520 1220 LINE SMOOTH",
"520 1260 OFFCURVE",
"540 1290 OFFCURVE",
"580 1300 CURVE SMOOTH",
"740 1340 LINE",
"740 1400 LINE",
"80 1400 LINE",
"80 1340 LINE",
"240 1300 LINE SMOOTH",
"280 1290 OFFCURVE",
"300 1260 OFFCURVE",
"300 1220 CURVE SMOOTH",
"300 180 LINE SMOOTH",
"300 140 OFFCURVE",
"280 110 OFFCURVE",
"240 100 CURVE SMOOTH",
"80 60 LINE",
"80 0 LINE"
);
},
{
closed = 1;
nodes = (
"285 1550 OFFCURVE",
"337 1603 OFFCURVE",
"337 1667 CURVE SMOOTH",
"337 1730 OFFCURVE",
"285 1783 OFFCURVE",
"221 1783 CURVE SMOOTH",
"157 1783 OFFCURVE",
"104 1730 OFFCURVE",
"104 1667 CURVE SMOOTH",
"104 1603 OFFCURVE",
"157 1550 OFFCURVE",
"221 1550 CURVE SMOOTH"
);
},
{
closed = 1;
nodes = (
"663 1550 OFFCURVE",
"716 1603 OFFCURVE",
"716 1667 CURVE SMOOTH",
"716 1730 OFFCURVE",
"663 1783 OFFCURVE",
"599 1783 CURVE SMOOTH",
"535 1783 OFFCURVE",
"483 1730 OFFCURVE",
"483 1667 CURVE SMOOTH",
"483 1603 OFFCURVE",
"535 1550 OFFCURVE",
"599 1550 CURVE SMOOTH"
);
}
);
width = 820;
},
{
layerId = "27D48214-71DC-4330-B979-784A7B16B611";
width = 1200;
}
);
unicode = 00CF;
userData = {
com.fontlab.hintData = {
hhints = (
{
position = 0;
width = 30;
},
{
position = 670;
width = 30;
},
{
position = 775;
width = 117;
}
);
vhints = (
{
position = 52;
width = 117;
},
{
position = 150;
width = 110;
},
{
position = 241;
width = 117;
}
);
};
};
},
{
color = 11;
glyphname = Eth;
lastChange = "2020-01-10 19:30:19 +0000";
layers = (
{
layerId = "EE8FC948-6E49-42F4-ACA5-5A0A3F8AB331";
paths = (
{
closed = 1;
nodes = (
"820 0 LINE SMOOTH",
"1144 0 OFFCURVE",
"1420 247 OFFCURVE",
"1420 700 CURVE SMOOTH",
"1420 1044 OFFCURVE",
"1253 1400 OFFCURVE",
"760 1400 CURVE SMOOTH",
"80 1400 LINE",
"80 1340 LINE",
"240 1300 LINE SMOOTH",
"280 1290 OFFCURVE",
"300 1260 OFFCURVE",
"300 1220 CURVE SMOOTH",
"300 840 LINE",
"40 840 LINE",
"40 700 LINE",
"300 700 LINE",
"300 180 LINE SMOOTH",
"300 140 OFFCURVE",
"280 110 OFFCURVE",
"240 100 CURVE SMOOTH",
"80 60 LINE",
"80 0 LINE"
);
},
{
closed = 1;
nodes = (
"560 80 OFFCURVE",
"520 100 OFFCURVE",
"520 160 CURVE SMOOTH",
"520 700 LINE",
"896 700 LINE",
"896 840 LINE",
"520 840 LINE",
"520 1240 LINE SMOOTH",
"520 1300 OFFCURVE",
"560 1320 OFFCURVE",
"600 1320 CURVE SMOOTH",
"700 1320 LINE SMOOTH",
"1006 1320 OFFCURVE",
"1180 1084 OFFCURVE",
"1180 700 CURVE SMOOTH",
"1180 429 OFFCURVE",
"1062 80 OFFCURVE",
"760 80 CURVE SMOOTH",
"600 80 LINE SMOOTH"
);
}
);
width = 1500;
},
{
layerId = "27D48214-71DC-4330-B979-784A7B16B611";
width = 1200;
}
);
unicode = 00D0;
userData = {
com.fontlab.hintData = {
hhints = (
{
position = 0;
width = 30;
},
{
position = 0;
width = 40;
},
{
position = 350;
width = 70;
},
{
position = 660;
width = 40;
},
{
position = 670;
width = 30;
}
);
vhints = (
{
position = 150;
width = 110;
},
{
position = 590;
width = 120;
}
);
};
};
},
{
color = 11;
glyphname = Ntilde;
lastChange = "2020-01-10 19:30:19 +0000";
layers = (
{
layerId = "EE8FC948-6E49-42F4-ACA5-5A0A3F8AB331";
paths = (
{
closed = 1;
nodes = (
"620 0 LINE",
"620 60 LINE",
"460 100 LINE SMOOTH",
"420 110 OFFCURVE",
"400 140 OFFCURVE",
"400 180 CURVE SMOOTH",
"400 1054 LINE",
"1240 0 LINE",
"1360 0 LINE",
"1346 60 OFFCURVE",
"1340 132 OFFCURVE",
"1340 220 CURVE SMOOTH",
"1340 1220 LINE SMOOTH",
"1340 1260 OFFCURVE",
"1360 1290 OFFCURVE",
"1400 1300 CURVE SMOOTH",
"1560 1340 LINE",
"1560 1400 LINE",
"1020 1400 LINE",
"1020 1340 LINE",
"1180 1300 LINE SMOOTH",
"1220 1290 OFFCURVE",
"1240 1260 OFFCURVE",
"1240 1220 CURVE SMOOTH",
"1240 346 LINE",
"400 1400 LINE",
"80 1400 LINE",
"80 1340 LINE",
"240 1256 LINE SMOOTH",
"275 1238 OFFCURVE",
"300 1216 OFFCURVE",
"300 1176 CURVE SMOOTH",
"300 180 LINE SMOOTH",
"300 140 OFFCURVE",
"280 110 OFFCURVE",
"240 100 CURVE SMOOTH",
"80 60 LINE",
"80 0 LINE"
);
},
{
closed = 1;
nodes = (
"1076 1550 OFFCURVE",
"1152 1658 OFFCURVE",
"1152 1808 CURVE",
"1102 1808 LINE",
"1092 1718 OFFCURVE",
"1060 1670 OFFCURVE",
"1008 1670 CURVE SMOOTH",
"974 1670 OFFCURVE",
"933 1695 OFFCURVE",
"888 1726 CURVE SMOOTH",
"829 1766 OFFCURVE",
"763 1808 OFFCURVE",
"692 1808 CURVE SMOOTH",
"566 1808 OFFCURVE",
"492 1718 OFFCURVE",
"488 1554 CURVE",
"538 1554 LINE",
"546 1630 OFFCURVE",
"574 1688 OFFCURVE",
"628 1688 CURVE SMOOTH",
"667 1688 OFFCURVE",
"711 1661 OFFCURVE",
"758 1628 CURVE SMOOTH",
"811 1591 OFFCURVE",
"875 1550 OFFCURVE",
"944 1550 CURVE SMOOTH"
);
}
);
width = 1640;
},
{
layerId = "27D48214-71DC-4330-B979-784A7B16B611";
width = 1200;
}
);
unicode = 00D1;
userData = {
com.fontlab.hintData = {
hhints = (
{
position = 0;
width = 30;
},
{
position = 670;
width = 30;
},
{
position = 775;
width = 60;
},
{
position = 844;
width = 60;
}
);
vhints = (
{
position = 150;
width = 50;
},
{
position = 244;
width = 25;
},
{
position = 551;
width = 25;
},
{
position = 620;
width = 50;
}
);
};
};
},
{
color = 11;
glyphname = Ograve;
lastChange = "2020-01-10 19:30:19 +0000";
layers = (
{
layerId = "EE8FC948-6E49-42F4-ACA5-5A0A3F8AB331";
paths = (
{
closed = 1;
nodes = (
"1203 -30 OFFCURVE",
"1494 255 OFFCURVE",
"1494 714 CURVE SMOOTH",
"1494 1200 OFFCURVE",
"1157 1430 OFFCURVE",
"808 1430 CURVE SMOOTH",
"357 1430 OFFCURVE",
"80 1102 OFFCURVE",
"80 686 CURVE SMOOTH",
"80 200 OFFCURVE",
"431 -30 OFFCURVE",
"766 -30 CURVE SMOOTH"
);
},
{
closed = 1;
nodes = (
"549 50 OFFCURVE",
"320 232 OFFCURVE",
"320 730 CURVE SMOOTH",
"320 987 OFFCURVE",
"410 1350 OFFCURVE",
"780 1350 CURVE SMOOTH",
"1025 1350 OFFCURVE",
"1254 1154 OFFCURVE",
"1254 670 CURVE SMOOTH",
"1254 398 OFFCURVE",
"1184 50 OFFCURVE",
"794 50 CURVE SMOOTH"
);
},
{
closed = 1;
nodes = (
"820 1580 LINE",
"720 1920 LINE",
"480 1920 LINE",
"760 1580 LINE"
);
}
);
width = 1574;
},
{
layerId = "27D48214-71DC-4330-B979-784A7B16B611";
width = 1200;
}
);
unicode = 00D2;
userData = {
com.fontlab.hintData = {
hhints = (
{
position = -15;
width = 40;
},
{
position = 675;
width = 40;
},
{
position = 790;
width = 170;
}
);
vhints = (
{
position = 40;
width = 120;
},
{
position = 240;
width = 170;
},
{
position = 627;
width = 120;
}
);
};
};
},
{
color = 11;
glyphname = Oacute;
lastChange = "2020-01-10 19:30:19 +0000";
layers = (
{
layerId = "EE8FC948-6E49-42F4-ACA5-5A0A3F8AB331";
paths = (
{
closed = 1;
nodes = (
"1203 -30 OFFCURVE",
"1494 255 OFFCURVE",
"1494 714 CURVE SMOOTH",
"1494 1200 OFFCURVE",
"1157 1430 OFFCURVE",
"808 1430 CURVE SMOOTH",
"357 1430 OFFCURVE",
"80 1102 OFFCURVE",
"80 686 CURVE SMOOTH",
"80 200 OFFCURVE",
"431 -30 OFFCURVE",
"766 -30 CURVE SMOOTH"
);
},
{
closed = 1;
nodes = (
"549 50 OFFCURVE",
"320 232 OFFCURVE",
"320 730 CURVE SMOOTH",
"320 987 OFFCURVE",
"410 1350 OFFCURVE",
"780 1350 CURVE SMOOTH",
"1025 1350 OFFCURVE",
"1254 1154 OFFCURVE",
"1254 670 CURVE SMOOTH",
"1254 398 OFFCURVE",
"1184 50 OFFCURVE",
"794 50 CURVE SMOOTH"
);
},
{
closed = 1;
nodes = (
"760 1580 LINE",
"1040 1920 LINE",
"800 1920 LINE",
"700 1580 LINE"
);
}
);
width = 1574;
},
{
layerId = "27D48214-71DC-4330-B979-784A7B16B611";
width = 1200;
}
);
unicode = 00D3;
userData = {
com.fontlab.hintData = {
hhints = (
{
position = -15;
width = 40;
},
{
position = 675;
width = 40;
},
{
position = 790;
width = 170;
}
);
vhints = (
{
position = 40;
width = 120;
},
{
position = 350;
width = 170;
},
{
position = 627;
width = 120;
}
);
};
};
},
{
color = 11;
glyphname = Ocircumflex;
lastChange = "2020-01-10 19:30:19 +0000";
layers = (
{
layerId = "EE8FC948-6E49-42F4-ACA5-5A0A3F8AB331";
paths = (
{
closed = 1;
nodes = (
"1203 -30 OFFCURVE",
"1494 255 OFFCURVE",
"1494 714 CURVE SMOOTH",
"1494 1200 OFFCURVE",
"1157 1430 OFFCURVE",
"808 1430 CURVE SMOOTH",
"357 1430 OFFCURVE",
"80 1102 OFFCURVE",
"80 686 CURVE SMOOTH",
"80 200 OFFCURVE",
"431 -30 OFFCURVE",
"766 -30 CURVE SMOOTH"
);
},
{
closed = 1;
nodes = (
"549 50 OFFCURVE",
"320 232 OFFCURVE",
"320 730 CURVE SMOOTH",
"320 987 OFFCURVE",
"410 1350 OFFCURVE",
"780 1350 CURVE SMOOTH",
"1025 1350 OFFCURVE",
"1254 1154 OFFCURVE",
"1254 670 CURVE SMOOTH",
"1254 398 OFFCURVE",
"1184 50 OFFCURVE",
"794 50 CURVE SMOOTH"
);
},
{
closed = 1;
nodes = (
"548 1550 LINE",
"808 1783 LINE",
"1068 1550 LINE",
"1128 1550 LINE",
"928 1890 LINE",
"688 1890 LINE",
"488 1550 LINE"
);
}
);
width = 1574;
},
{
layerId = "27D48214-71DC-4330-B979-784A7B16B611";
width = 1200;
}
);
unicode = 00D4;
userData = {
com.fontlab.hintData = {
hhints = (
{
position = -15;
width = 40;
},
{
position = 675;
width = 40;
},
{
position = 775;
width = 170;
}
);
vhints = (
{
position = 40;
width = 120;
},
{
position = 244;
width = 320;
},
{
position = 627;
width = 120;
}
);
};
};
},
{
color = 11;
glyphname = Otilde;
lastChange = "2020-01-10 19:30:19 +0000";
layers = (
{
layerId = "EE8FC948-6E49-42F4-ACA5-5A0A3F8AB331";
paths = (
{
closed = 1;
nodes = (
"1203 -30 OFFCURVE",
"1494 255 OFFCURVE",
"1494 714 CURVE SMOOTH",
"1494 1200 OFFCURVE",
"1157 1430 OFFCURVE",
"808 1430 CURVE SMOOTH",
"357 1430 OFFCURVE",
"80 1102 OFFCURVE",
"80 686 CURVE SMOOTH",
"80 200 OFFCURVE",
"431 -30 OFFCURVE",
"766 -30 CURVE SMOOTH"
);
},
{
closed = 1;
nodes = (
"549 50 OFFCURVE",
"320 232 OFFCURVE",
"320 730 CURVE SMOOTH",
"320 987 OFFCURVE",
"410 1350 OFFCURVE",
"780 1350 CURVE SMOOTH",
"1025 1350 OFFCURVE",
"1254 1154 OFFCURVE",
"1254 670 CURVE SMOOTH",
"1254 398 OFFCURVE",
"1184 50 OFFCURVE",
"794 50 CURVE SMOOTH"
);
},
{
closed = 1;
nodes = (
"1064 1550 OFFCURVE",
"1140 1658 OFFCURVE",
"1140 1808 CURVE",
"1090 1808 LINE",
"1080 1718 OFFCURVE",
"1048 1670 OFFCURVE",
"996 1670 CURVE SMOOTH",
"962 1670 OFFCURVE",
"921 1695 OFFCURVE",
"876 1726 CURVE SMOOTH",
"817 1766 OFFCURVE",
"751 1808 OFFCURVE",
"680 1808 CURVE SMOOTH",
"554 1808 OFFCURVE",
"480 1718 OFFCURVE",
"476 1554 CURVE",
"526 1554 LINE",
"534 1630 OFFCURVE",
"562 1688 OFFCURVE",
"616 1688 CURVE SMOOTH",
"655 1688 OFFCURVE",
"699 1661 OFFCURVE",
"746 1628 CURVE SMOOTH",
"799 1591 OFFCURVE",
"863 1550 OFFCURVE",
"932 1550 CURVE SMOOTH"
);
}
);
width = 1574;
},
{
layerId = "27D48214-71DC-4330-B979-784A7B16B611";
width = 1200;
}
);
unicode = 00D5;
userData = {
com.fontlab.hintData = {
hhints = (
{
position = -15;
width = 40;
},
{
position = 675;
width = 40;
},
{
position = 775;
width = 60;
},
{
position = 844;
width = 60;
}
);
vhints = (
{
position = 40;
width = 120;
},
{
position = 238;
width = 25;
},
{
position = 545;
width = 25;
},
{
position = 627;
width = 120;
}
);
};
};
},
{
color = 11;
glyphname = Odieresis;
lastChange = "2020-01-10 19:30:19 +0000";
layers = (
{
layerId = "EE8FC948-6E49-42F4-ACA5-5A0A3F8AB331";
paths = (
{
closed = 1;
nodes = (
"1203 -30 OFFCURVE",
"1494 255 OFFCURVE",
"1494 714 CURVE SMOOTH",
"1494 1200 OFFCURVE",
"1157 1430 OFFCURVE",
"808 1430 CURVE SMOOTH",
"357 1430 OFFCURVE",
"80 1102 OFFCURVE",
"80 686 CURVE SMOOTH",
"80 200 OFFCURVE",
"431 -30 OFFCURVE",
"766 -30 CURVE SMOOTH"
);
},
{
closed = 1;
nodes = (
"549 50 OFFCURVE",
"320 232 OFFCURVE",
"320 730 CURVE SMOOTH",
"320 987 OFFCURVE",
"410 1350 OFFCURVE",
"780 1350 CURVE SMOOTH",
"1025 1350 OFFCURVE",
"1254 1154 OFFCURVE",
"1254 670 CURVE SMOOTH",
"1254 398 OFFCURVE",
"1184 50 OFFCURVE",
"794 50 CURVE SMOOTH"
);
},
{
closed = 1;
nodes = (
"683 1550 OFFCURVE",
"735 1603 OFFCURVE",
"735 1667 CURVE SMOOTH",
"735 1730 OFFCURVE",
"683 1783 OFFCURVE",
"619 1783 CURVE SMOOTH",
"555 1783 OFFCURVE",
"502 1730 OFFCURVE",
"502 1667 CURVE SMOOTH",
"502 1603 OFFCURVE",
"555 1550 OFFCURVE",
"619 1550 CURVE SMOOTH"
);
},
{
closed = 1;
nodes = (
"1061 1550 OFFCURVE",
"1114 1603 OFFCURVE",
"1114 1667 CURVE SMOOTH",
"1114 1730 OFFCURVE",
"1061 1783 OFFCURVE",
"997 1783 CURVE SMOOTH",
"933 1783 OFFCURVE",
"881 1730 OFFCURVE",
"881 1667 CURVE SMOOTH",
"881 1603 OFFCURVE",
"933 1550 OFFCURVE",
"997 1550 CURVE SMOOTH"
);
}
);
width = 1574;
},
{
layerId = "27D48214-71DC-4330-B979-784A7B16B611";
width = 1200;
}
);
unicode = 00D6;
userData = {
com.fontlab.hintData = {
hhints = (
{
position = -15;
width = 40;
},
{
position = 675;
width = 40;
},
{
position = 775;
width = 117;
}
);
vhints = (
{
position = 40;
width = 120;
},
{
position = 251;
width = 117;
},
{
position = 440;
width = 117;
},
{
position = 627;
width = 120;
}
);
};
};
},
{
color = 11;
glyphname = multiply;
lastChange = "2020-01-10 19:30:19 +0000";
layers = (
{
layerId = "EE8FC948-6E49-42F4-ACA5-5A0A3F8AB331";
paths = (
{
closed = 1;
nodes = (
"608 532 LINE",
"932 208 LINE",
"1030 306 LINE",
"706 630 LINE",
"1030 954 LINE",
"932 1052 LINE",
"608 728 LINE",
"284 1052 LINE",
"186 954 LINE",
"510 630 LINE",
"186 306 LINE",
"284 208 LINE"
);
}
);
width = 1336;
},
{
layerId = "27D48214-71DC-4330-B979-784A7B16B611";
width = 1200;
}
);
unicode = 00D7;
},
{
color = 11;
glyphname = Thorn;
lastChange = "2020-01-10 19:30:19 +0000";
layers = (
{
layerId = "EE8FC948-6E49-42F4-ACA5-5A0A3F8AB331";
paths = (
{
closed = 1;
nodes = (
"740 0 LINE",
"740 60 LINE",
"580 100 LINE SMOOTH",
"540 110 OFFCURVE",
"520 140 OFFCURVE",
"520 180 CURVE SMOOTH",
"520 918 LINE SMOOTH",
"520 978 OFFCURVE",
"560 998 OFFCURVE",
"600 998 CURVE SMOOTH",
"640 998 LINE SMOOTH",
"860 998 OFFCURVE",
"960 880 OFFCURVE",
"960 698 CURVE SMOOTH",
"960 500 OFFCURVE",
"860 318 OFFCURVE",
"580 358 CURVE",
"580 278 LINE",
"610 268 OFFCURVE",
"660 258 OFFCURVE",
"700 258 CURVE SMOOTH",
"1000 258 OFFCURVE",
"1200 438 OFFCURVE",
"1200 698 CURVE SMOOTH",
"1200 918 OFFCURVE",
"1080 1078 OFFCURVE",
"700 1078 CURVE SMOOTH",
"520 1078 LINE",
"520 1200 LINE",
"520 1220 LINE SMOOTH",
"520 1260 OFFCURVE",
"540 1290 OFFCURVE",
"580 1300 CURVE SMOOTH",
"740 1340 LINE",
"740 1400 LINE",
"80 1400 LINE",
"80 1340 LINE",
"240 1300 LINE SMOOTH",
"280 1290 OFFCURVE",
"300 1260 OFFCURVE",
"300 1220 CURVE SMOOTH",
"300 1200 LINE",
"300 1078 LINE",
"300 180 LINE SMOOTH",
"300 140 OFFCURVE",
"280 110 OFFCURVE",
"240 100 CURVE SMOOTH",
"80 60 LINE",
"80 0 LINE"
);
}
);
width = 1280;
},
{
layerId = "27D48214-71DC-4330-B979-784A7B16B611";
width = 1200;
}
);
unicode = 00DE;
userData = {
com.fontlab.hintData = {
hhints = (
{
position = 0;
width = 30;
},
{
position = 139;
width = 40;
},
{
position = 499;
width = 40;
},
{
position = 539;
width = 161;
},
{
position = 670;
width = 30;
}
);
vhints = (
{
position = 150;
width = 110;
},
{
position = 480;
width = 120;
}
);
};
};
},
{
color = 11;
glyphname = germandbls;
lastChange = "2020-01-10 19:30:19 +0000";
layers = (
{
layerId = "EE8FC948-6E49-42F4-ACA5-5A0A3F8AB331";
paths = (
{
closed = 1;
nodes = (
"1036 -14 OFFCURVE",
"1158 203 OFFCURVE",
"1158 424 CURVE SMOOTH",
"1158 576 OFFCURVE",
"1058 788 OFFCURVE",
"752 818 CURVE",
"752 822 LINE",
"965 893 OFFCURVE",
"1050 988 OFFCURVE",
"1050 1136 CURVE SMOOTH",
"1050 1309 OFFCURVE",
"887 1430 OFFCURVE",
"656 1430 CURVE SMOOTH",
"524 1430 OFFCURVE",
"438 1389 OFFCURVE",
"362 1312 CURVE SMOOTH",
"206 1153 OFFCURVE",
"267 1000 OFFCURVE",
"180 926 CURVE SMOOTH",
"135 888 OFFCURVE",
"92 880 OFFCURVE",
"48 880 CURVE",
"48 792 LINE",
"200 792 LINE",
"200 190 LINE SMOOTH",
"200 110 OFFCURVE",
"160 70 OFFCURVE",
"60 50 CURVE",
"60 0 LINE",
"540 0 LINE",
"540 50 LINE",
"440 70 OFFCURVE",
"400 110 OFFCURVE",
"400 190 CURVE SMOOTH",
"400 1054 LINE SMOOTH",
"400 1249 OFFCURVE",
"488 1344 OFFCURVE",
"622 1344 CURVE SMOOTH",
"750 1344 OFFCURVE",
"850 1249 OFFCURVE",
"850 1126 CURVE SMOOTH",
"850 987 OFFCURVE",
"774 875 OFFCURVE",
"592 844 CURVE",
"592 760 LINE",
"838 731 OFFCURVE",
"938 483 OFFCURVE",
"938 322 CURVE SMOOTH",
"938 111 OFFCURVE",
"882 52 OFFCURVE",
"808 52 CURVE SMOOTH",
"694 52 OFFCURVE",
"784 204 OFFCURVE",
"670 204 CURVE SMOOTH",
"624 204 OFFCURVE",
"588 168 OFFCURVE",
"588 118 CURVE SMOOTH",
"588 46 OFFCURVE",
"650 -14 OFFCURVE",
"770 -14 CURVE SMOOTH"
);
}
);
width = 1238;
},
{
layerId = "27D48214-71DC-4330-B979-784A7B16B611";
width = 1200;
}
);
unicode = 00DF;
userData = {
com.fontlab.hintData = {
hhints = (
{
position = -7;
width = 33;
},
{
position = 0;
width = 25;
},
{
position = 396;
width = 44;
},
{
position = 672;
width = 43;
}
);
vhints = (
{
position = 100;
width = 100;
},
{
position = 425;
width = 100;
},
{
position = 469;
width = 110;
}
);
};
};
},
{
color = 11;
glyphname = eth;
lastChange = "2020-01-10 19:30:19 +0000";
layers = (
{
layerId = "EE8FC948-6E49-42F4-ACA5-5A0A3F8AB331";
paths = (
{
closed = 1;
nodes = (
"770 -30 OFFCURVE",
"970 150 OFFCURVE",
"970 468 CURVE SMOOTH",
"970 704 OFFCURVE",
"865 1030 OFFCURVE",
"586 1258 CURVE",
"780 1376 LINE",
"744 1430 LINE",
"532 1300 LINE",
"466 1350 OFFCURVE",
"386 1394 OFFCURVE",
"296 1430 CURVE",
"220 1384 LINE",
"306 1338 OFFCURVE",
"374 1286 OFFCURVE",
"428 1236 CURVE",
"216 1108 LINE",
"252 1054 LINE",
"474 1190 LINE",
"583 1075 OFFCURVE",
"643 958 OFFCURVE",
"680 866 CURVE",
"676 862 LINE",
"622 906 OFFCURVE",
"546 920 OFFCURVE",
"502 920 CURVE SMOOTH",
"234 920 OFFCURVE",
"56 715 OFFCURVE",
"56 456 CURVE SMOOTH",
"56 192 OFFCURVE",
"246 -30 OFFCURVE",
"518 -30 CURVE SMOOTH"
);
},
{
closed = 1;
nodes = (
"351 50 OFFCURVE",
"276 353 OFFCURVE",
"276 532 CURVE SMOOTH",
"276 758 OFFCURVE",
"362 840 OFFCURVE",
"494 840 CURVE SMOOTH",
"691 840 OFFCURVE",
"750 604 OFFCURVE",
"750 396 CURVE SMOOTH",
"750 184 OFFCURVE",
"668 50 OFFCURVE",
"536 50 CURVE SMOOTH"
);
}
);
width = 1028;
},
{
layerId = "27D48214-71DC-4330-B979-784A7B16B611";
width = 1200;
}
);
unicode = 00F0;
userData = {
com.fontlab.hintData = {
hhints = (
{
position = -15;
width = 40;
},
{
position = 420;
width = 40;
},
{
position = 695;
width = 20;
}
);
vhints = (
{
position = 28;
width = 110;
},
{
position = 375;
width = 110;
}
);
};
};
},
{
color = 11;
glyphname = divide;
lastChange = "2020-01-10 19:30:19 +0000";
layers = (
{
layerId = "EE8FC948-6E49-42F4-ACA5-5A0A3F8AB331";
paths = (
{
closed = 1;
nodes = (
"1202 580 LINE",
"1202 720 LINE",
"132 720 LINE",
"132 580 LINE"
);
},
{
closed = 1;
nodes = (
"743 104 OFFCURVE",
"806 169 OFFCURVE",
"806 245 CURVE SMOOTH",
"806 321 OFFCURVE",
"743 382 OFFCURVE",
"666 382 CURVE SMOOTH",
"589 382 OFFCURVE",
"528 321 OFFCURVE",
"528 245 CURVE SMOOTH",
"528 169 OFFCURVE",
"589 104 OFFCURVE",
"666 104 CURVE SMOOTH"
);
},
{
closed = 1;
nodes = (
"743 920 OFFCURVE",
"806 985 OFFCURVE",
"806 1061 CURVE SMOOTH",
"806 1137 OFFCURVE",
"743 1198 OFFCURVE",
"666 1198 CURVE SMOOTH",
"589 1198 OFFCURVE",
"528 1137 OFFCURVE",
"528 1061 CURVE SMOOTH",
"528 985 OFFCURVE",
"589 920 OFFCURVE",
"666 920 CURVE SMOOTH"
);
}
);
width = 1336;
},
{
layerId = "27D48214-71DC-4330-B979-784A7B16B611";
width = 1200;
}
);
unicode = 00F7;
userData = {
com.fontlab.hintData = {
hhints = (
{
position = 52;
width = 139;
},
{
position = 290;
width = 70;
},
{
position = 460;
width = 139;
}
);
vhints = (
{
position = 264;
width = 139;
}
);
};
};
},
{
color = 11;
glyphname = dotlessi;
lastChange = "2020-01-10 19:30:19 +0000";
layers = (
{
anchors = (
{
name = "Anchor-1";
position = "{280, 1160}";
},
{
name = Anchor1;
position = "{280, 1160}";
}
);
layerId = "EE8FC948-6E49-42F4-ACA5-5A0A3F8AB331";
paths = (
{
closed = 1;
nodes = (
"540 0 LINE",
"540 50 LINE",
"440 70 OFFCURVE",
"400 110 OFFCURVE",
"400 190 CURVE SMOOTH",
"400 980 LINE",
"340 1000 LINE",
"80 900 LINE",
"80 860 LINE",
"200 800 LINE",
"200 190 LINE SMOOTH",
"200 110 OFFCURVE",
"160 70 OFFCURVE",
"60 50 CURVE",
"60 0 LINE"
);
}
);
width = 600;
},
{
layerId = "27D48214-71DC-4330-B979-784A7B16B611";
width = 1200;
}
);
unicode = 0131;
userData = {
com.fontlab.hintData = {
hhints = (
{
position = 0;
width = 25;
}
);
vhints = (
{
position = 100;
width = 100;
}
);
};
};
},
{
color = 11;
glyphname = circumflex;
lastChange = "2020-01-10 19:30:19 +0000";
layers = (
{
anchors = (
{
name = "_Anchor-1";
position = "{540, 1200}";
},
{
name = _Anchor1;
position = "{540, 1200}";
}
);
layerId = "EE8FC948-6E49-42F4-ACA5-5A0A3F8AB331";
paths = (
{
closed = 1;
nodes = (
"280 1160 LINE",
"540 1393 LINE",
"800 1160 LINE",
"860 1160 LINE",
"660 1500 LINE",
"420 1500 LINE",
"220 1160 LINE"
);
}
);
width = 1146;
},
{
layerId = "27D48214-71DC-4330-B979-784A7B16B611";
width = 1200;
}
);
unicode = 02C6;
userData = {
com.fontlab.hintData = {
hhints = (
{
position = 580;
width = 170;
}
);
vhints = (
{
position = 110;
width = 320;
}
);
};
};
},
{
color = 11;
glyphname = breve;
lastChange = "2020-01-10 19:30:19 +0000";
layers = (
{
layerId = "EE8FC948-6E49-42F4-ACA5-5A0A3F8AB331";
paths = (
{
closed = 1;
nodes = (
"777 1120 OFFCURVE",
"933 1176 OFFCURVE",
"933 1296 CURVE SMOOTH",
"933 1380 OFFCURVE",
"880 1412 OFFCURVE",
"816 1412 CURVE SMOOTH",
"778 1412 OFFCURVE",
"730 1394 OFFCURVE",
"730 1334 CURVE SMOOTH",
"730 1294 OFFCURVE",
"756 1268 OFFCURVE",
"756 1238 CURVE SMOOTH",
"756 1208 OFFCURVE",
"704 1176 OFFCURVE",
"624 1176 CURVE SMOOTH",
"544 1176 OFFCURVE",
"498 1208 OFFCURVE",
"498 1238 CURVE SMOOTH",
"498 1268 OFFCURVE",
"524 1294 OFFCURVE",
"524 1334 CURVE SMOOTH",
"524 1394 OFFCURVE",
"476 1412 OFFCURVE",
"438 1412 CURVE SMOOTH",
"374 1412 OFFCURVE",
"320 1380 OFFCURVE",
"320 1296 CURVE SMOOTH",
"320 1176 OFFCURVE",
"473 1120 OFFCURVE",
"624 1120 CURVE SMOOTH"
);
}
);
width = 1276;
},
{
layerId = "27D48214-71DC-4330-B979-784A7B16B611";
width = 1200;
}
);
unicode = 02D8;
userData = {
com.fontlab.hintData = {
hhints = (
{
position = 560;
width = 28;
}
);
vhints = (
{
position = 160;
width = 89;
},
{
position = 378;
width = 88;
}
);
};
};
},
{
color = 11;
glyphname = ring;
lastChange = "2020-01-10 19:30:19 +0000";
layers = (
{
layerId = "EE8FC948-6E49-42F4-ACA5-5A0A3F8AB331";
paths = (
{
closed = 1;
nodes = (
"490 1140 OFFCURVE",
"574 1224 OFFCURVE",
"574 1328 CURVE SMOOTH",
"574 1432 OFFCURVE",
"490 1514 OFFCURVE",
"386 1514 CURVE SMOOTH",
"282 1514 OFFCURVE",
"200 1432 OFFCURVE",
"200 1328 CURVE SMOOTH",
"200 1224 OFFCURVE",
"282 1140 OFFCURVE",
"386 1140 CURVE SMOOTH"
);
},
{
closed = 1;
nodes = (
"327 1220 OFFCURVE",
"280 1269 OFFCURVE",
"280 1328 CURVE SMOOTH",
"280 1387 OFFCURVE",
"327 1434 OFFCURVE",
"386 1434 CURVE SMOOTH",
"446 1434 OFFCURVE",
"494 1387 OFFCURVE",
"494 1328 CURVE SMOOTH",
"494 1269 OFFCURVE",
"446 1220 OFFCURVE",
"386 1220 CURVE SMOOTH"
);
}
);
width = 774;
},
{
layerId = "27D48214-71DC-4330-B979-784A7B16B611";
width = 1200;
}
);
unicode = 02DA;
userData = {
com.fontlab.hintData = {
hhints = (
{
position = 570;
width = 40;
},
{
position = 717;
width = 40;
}
);
vhints = (
{
position = 100;
width = 40;
},
{
position = 247;
width = 40;
}
);
};
};
},
{
color = 11;
glyphname = tilde;
lastChange = "2020-01-10 19:30:19 +0000";
layers = (
{
layerId = "EE8FC948-6E49-42F4-ACA5-5A0A3F8AB331";
paths = (
{
closed = 1;
nodes = (
"708 1160 OFFCURVE",
"784 1268 OFFCURVE",
"784 1418 CURVE",
"734 1418 LINE",
"724 1328 OFFCURVE",
"692 1280 OFFCURVE",
"640 1280 CURVE SMOOTH",
"606 1280 OFFCURVE",
"565 1305 OFFCURVE",
"520 1336 CURVE SMOOTH",
"461 1376 OFFCURVE",
"395 1418 OFFCURVE",
"324 1418 CURVE SMOOTH",
"198 1418 OFFCURVE",
"124 1328 OFFCURVE",
"120 1164 CURVE",
"170 1164 LINE",
"178 1240 OFFCURVE",
"206 1298 OFFCURVE",
"260 1298 CURVE SMOOTH",
"299 1298 OFFCURVE",
"343 1271 OFFCURVE",
"390 1238 CURVE SMOOTH",
"443 1201 OFFCURVE",
"507 1160 OFFCURVE",
"576 1160 CURVE SMOOTH"
);
}
);
width = 904;
},
{
layerId = "27D48214-71DC-4330-B979-784A7B16B611";
width = 1200;
}
);
unicode = 02DC;
userData = {
com.fontlab.hintData = {
hhints = (
{
position = 580;
width = 60;
},
{
position = 649;
width = 60;
}
);
vhints = (
{
position = 60;
width = 25;
},
{
position = 367;
width = 25;
}
);
};
};
},
{
color = 11;
glyphname = quoteleft;
lastChange = "2020-01-10 19:30:19 +0000";
layers = (
{
layerId = "EE8FC948-6E49-42F4-ACA5-5A0A3F8AB331";
paths = (
{
closed = 1;
nodes = (
"310 920 OFFCURVE",
"360 980 OFFCURVE",
"360 1050 CURVE SMOOTH",
"360 1120 OFFCURVE",
"310 1190 OFFCURVE",
"230 1190 CURVE SMOOTH",
"200 1190 OFFCURVE",
"180 1210 OFFCURVE",
"180 1250 CURVE SMOOTH",
"180 1310 OFFCURVE",
"240 1390 OFFCURVE",
"320 1430 CURVE",
"280 1490 LINE",
"80 1390 OFFCURVE",
"60 1230 OFFCURVE",
"60 1090 CURVE SMOOTH",
"60 1030 OFFCURVE",
"100 920 OFFCURVE",
"230 920 CURVE SMOOTH"
);
}
);
width = 460;
},
{
layerId = "27D48214-71DC-4330-B979-784A7B16B611";
width = 1200;
}
);
unicode = 2018;
},
{
color = 11;
glyphname = quoteright;
lastChange = "2020-01-10 19:30:19 +0000";
layers = (
{
layerId = "EE8FC948-6E49-42F4-ACA5-5A0A3F8AB331";
paths = (
{
closed = 1;
nodes = (
"380 1060 OFFCURVE",
"400 1220 OFFCURVE",
"400 1360 CURVE SMOOTH",
"400 1420 OFFCURVE",
"360 1530 OFFCURVE",
"230 1530 CURVE SMOOTH",
"150 1530 OFFCURVE",
"100 1470 OFFCURVE",
"100 1400 CURVE SMOOTH",
"100 1330 OFFCURVE",
"150 1260 OFFCURVE",
"230 1260 CURVE SMOOTH",
"260 1260 OFFCURVE",
"280 1240 OFFCURVE",
"280 1200 CURVE SMOOTH",
"280 1140 OFFCURVE",
"220 1060 OFFCURVE",
"140 1020 CURVE",
"180 960 LINE"
);
}
);
width = 460;
},
{
layerId = "27D48214-71DC-4330-B979-784A7B16B611";
width = 1200;
}
);
unicode = 2019;
},
{
color = 11;
glyphname = circumflexcomb;
lastChange = "2020-01-10 19:30:19 +0000";
layers = (
{
anchors = (
{
name = "_Anchor-1";
position = "{-400, 1200}";
},
{
name = _Anchor1;
position = "{-400, 1200}";
}
);
layerId = "EE8FC948-6E49-42F4-ACA5-5A0A3F8AB331";
paths = (
{
closed = 1;
nodes = (
"-660 1160 LINE",
"-400 1393 LINE",
"-140 1160 LINE",
"-80 1160 LINE",
"-280 1500 LINE",
"-520 1500 LINE",
"-720 1160 LINE"
);
}
);
width = 0;
},
{
layerId = "27D48214-71DC-4330-B979-784A7B16B611";
width = 1200;
}
);
unicode = 0302;
userData = {
com.fontlab.hintData = {
hhints = (
{
position = 580;
width = 170;
}
);
vhints = (
{
position = -360;
width = 320;
}
);
};
};
},
{
color = 11;
glyphname = guillemotright;
lastChange = "2020-01-10 19:30:19 +0000";
layers = (
{
layerId = "EE8FC948-6E49-42F4-ACA5-5A0A3F8AB331";
paths = (
{
closed = 1;
nodes = (
"318 64 LINE",
"674 504 LINE",
"318 944 LINE",
"270 944 LINE",
"510 504 LINE",
"270 64 LINE"
);
},
{
closed = 1;
nodes = (
"108 148 LINE",
"370 504 LINE",
"108 860 LINE",
"60 860 LINE",
"226 504 LINE",
"60 148 LINE"
);
}
);
width = 734;
},
{
layerId = "27D48214-71DC-4330-B979-784A7B16B611";
width = 1200;
}
);
unicode = 00BB;
userData = {
com.fontlab.hintData = {
vhints = (
{
position = 30;
width = 307;
}
);
};
};
},
{
color = 11;
glyphname = gravecomb;
lastChange = "2020-01-10 19:30:19 +0000";
layers = (
{
anchors = (
{
name = "_Anchor-1";
position = "{-540, 1200}";
},
{
name = _Anchor1;
position = "{-540, 1200}";
}
);
layerId = "EE8FC948-6E49-42F4-ACA5-5A0A3F8AB331";
paths = (
{
closed = 1;
nodes = (
"-500 1160 LINE",
"-600 1500 LINE",
"-840 1500 LINE",
"-560 1160 LINE"
);
}
);
width = 0;
},
{
layerId = "27D48214-71DC-4330-B979-784A7B16B611";
width = 1200;
}
);
unicode = 0300;
userData = {
com.fontlab.hintData = {
hhints = (
{
position = 580;
width = 170;
}
);
vhints = (
{
position = -420;
width = 170;
}
);
};
};
},
